FrauncesItalic-144G100Light.ufo
<glyph name="exclam" format="2">
  <advance width="401"/>
  <unicode hex="0021"/>
  <outline>
    <contour>
      <point x="464" y="1352" type="curve" smooth="yes"/>
      <point x="431" y="1352"/>
      <point x="414" y="1325"/>
      <point x="405" y="1294" type="curve" smooth="yes"/>
      <point x="402" y="1284"/>
      <point x="395" y="1263"/>
      <point x="391" y="1245" type="curve" smooth="yes"/>
      <point x="202" y="467" type="line" smooth="yes"/>
      <point x="194" y="433"/>
      <point x="197" y="421"/>
      <point x="214" y="421" type="curve" smooth="yes"/>
      <point x="231" y="421"/>
      <point x="242" y="434"/>
      <point x="251" y="469" type="curve" smooth="yes"/>
      <point x="479" y="1245" type="line" smooth="yes"/>
      <point x="484" y="1263"/>
      <point x="488" y="1284"/>
      <point x="492" y="1294" type="curve" smooth="yes"/>
      <point x="500" y="1325"/>
      <point x="497" y="1352"/>
    </contour>
    <component base="period" yxScale="0.010182069312382691" xOffset="-22"/>
  </outline>
</glyph>
<glyph name="ampersand" format="2">
  <advance width="1128"/>
  <unicode hex="0026"/>
  <outline>
    <contour>
      <point x="131" y="199" type="line" smooth="yes"/>
      <point x="-16" y="67"/>
      <point x="-87" y="-78"/>
      <point x="-90" y="-271" type="curve" smooth="yes"/>
      <point x="-93" y="-369"/>
      <point x="-60" y="-408"/>
      <point x="-18" y="-408" type="curve" smooth="yes"/>
      <point x="12" y="-408"/>
      <point x="36" y="-381"/>
      <point x="38" y="-348" type="curve" smooth="yes"/>
      <point x="39" y="-300"/>
      <point x="-24" y="-278"/>
      <point x="-22" y="-197" type="curve" smooth="yes"/>
      <point x="-21" y="-73"/>
      <point x="25" y="45"/>
      <point x="156" y="161" type="curve" smooth="yes"/>
      <point x="1035" y="947" type="line" smooth="yes"/>
      <point x="1203" y="1097"/>
      <point x="1255" y="1201"/>
      <point x="1258" y="1335" type="curve" smooth="yes"/>
      <point x="1260" y="1417"/>
      <point x="1219" y="1466"/>
      <point x="1176" y="1466" type="curve" smooth="yes"/>
      <point x="1151" y="1466"/>
      <point x="1131" y="1436"/>
      <point x="1130" y="1408" type="curve" smooth="yes"/>
      <point x="1130" y="1362"/>
      <point x="1188" y="1334"/>
      <point x="1187" y="1274" type="curve" smooth="yes"/>
      <point x="1184" y="1186"/>
      <point x="1140" y="1102"/>
      <point x="1022" y="998" type="curve" smooth="yes"/>
    </contour>
    <contour>
      <point x="956" y="414" type="curve" smooth="yes"/>
      <point x="953" y="215"/>
      <point x="765" y="32"/>
      <point x="551" y="32" type="curve" smooth="yes"/>
      <point x="328" y="32"/>
      <point x="192" y="186"/>
      <point x="241" y="506" type="curve" smooth="yes"/>
      <point x="287" y="801"/>
      <point x="474" y="1043"/>
      <point x="679" y="1043" type="curve" smooth="yes"/>
      <point x="804" y="1043"/>
      <point x="862" y="967"/>
      <point x="860" y="850" type="curve" smooth="yes"/>
      <point x="859" y="819"/>
      <point x="839" y="780"/>
      <point x="812" y="749" type="curve"/>
      <point x="832" y="759"/>
      <point x="853" y="763"/>
      <point x="887" y="762" type="curve" smooth="yes"/>
      <point x="910" y="762"/>
      <point x="925" y="800"/>
      <point x="926" y="848" type="curve" smooth="yes"/>
      <point x="928" y="984"/>
      <point x="852" y="1086"/>
      <point x="697" y="1086" type="curve" smooth="yes"/>
      <point x="452" y="1086"/>
      <point x="241" y="843"/>
      <point x="180" y="504" type="curve" smooth="yes"/>
      <point x="121" y="179"/>
      <point x="290" y="-19"/>
      <point x="525" y="-19" type="curve" smooth="yes"/>
      <point x="827" y="-19"/>
      <point x="1035" y="266"/>
      <point x="1040" y="526" type="curve" smooth="yes"/>
      <point x="1041" y="585"/>
      <point x="1027" y="620"/>
      <point x="991" y="620" type="curve" smooth="yes"/>
      <point x="961" y="620"/>
      <point x="942" y="589"/>
      <point x="940" y="545" type="curve" smooth="yes"/>
      <point x="939" y="508"/>
      <point x="957" y="481"/>
    </contour>
  </outline>
</glyph>
<glyph name="quotesingle" format="2">
  <advance width="190"/>
  <unicode hex="0027"/>
  <outline>
    <contour>
      <point x="212" y="1000" type="curve" smooth="yes"/>
      <point x="224" y="1000"/>
      <point x="236" y="1009"/>
      <point x="242" y="1031" type="curve" smooth="yes"/>
      <point x="375" y="1490" type="line" smooth="yes"/>
      <point x="385" y="1525"/>
      <point x="377" y="1538"/>
      <point x="357" y="1538" type="curve" smooth="yes"/>
      <point x="337" y="1538"/>
      <point x="321" y="1521"/>
      <point x="313" y="1490" type="curve" smooth="yes"/>
      <point x="195" y="1031" type="line" smooth="yes"/>
      <point x="189" y="1009"/>
      <point x="199" y="1000"/>
    </contour>
  </outline>
</glyph>
<glyph name="parenleft" format="2">
  <advance width="523"/>
  <unicode hex="0028"/>
  <outline>
    <contour>
      <point x="195" y="627" type="curve" smooth="yes"/>
      <point x="92" y="246"/>
      <point x="171" y="-119"/>
      <point x="319" y="-232" type="curve" smooth="yes"/>
      <point x="331" y="-241"/>
      <point x="345" y="-238"/>
      <point x="356" y="-225" type="curve" smooth="yes"/>
      <point x="367" y="-212"/>
      <point x="363" y="-196"/>
      <point x="350" y="-184" type="curve" smooth="yes"/>
      <point x="223" y="-57"/>
      <point x="167" y="262"/>
      <point x="265" y="627" type="curve" smooth="yes"/>
      <point x="351" y="949"/>
      <point x="545" y="1185"/>
      <point x="753" y="1321" type="curve" smooth="yes"/>
      <point x="773" y="1334"/>
      <point x="786" y="1348"/>
      <point x="782" y="1363" type="curve" smooth="yes"/>
      <point x="777" y="1375"/>
      <point x="764" y="1380"/>
      <point x="747" y="1371" type="curve" smooth="yes"/>
      <point x="520" y="1245"/>
      <point x="284" y="964"/>
    </contour>
  </outline>
</glyph>
<glyph name="asterisk" format="2">
  <advance width="1032"/>
  <unicode hex="002A"/>
  <outline>
    <contour>
      <point x="657" y="947" type="line"/>
      <point x="692" y="1079"/>
      <point x="758" y="1260"/>
      <point x="782" y="1349" type="curve" smooth="yes"/>
      <point x="794" y="1395"/>
      <point x="785" y="1419"/>
      <point x="761" y="1419" type="curve" smooth="yes"/>
      <point x="734" y="1419"/>
      <point x="714" y="1395"/>
      <point x="702" y="1349" type="curve" smooth="yes"/>
      <point x="678" y="1260"/>
      <point x="648" y="1079"/>
      <point x="613" y="947" type="curve"/>
    </contour>
    <contour>
      <point x="633" y="969" type="curve"/>
      <point x="635" y="924" type="line"/>
      <point x="766" y="965"/>
      <point x="947" y="1008"/>
      <point x="1038" y="1036" type="curve" smooth="yes"/>
      <point x="1083" y="1049"/>
      <point x="1107" y="1070"/>
      <point x="1104" y="1092" type="curve" smooth="yes"/>
      <point x="1103" y="1117"/>
      <point x="1078" y="1122"/>
      <point x="1032" y="1108" type="curve" smooth="yes"/>
      <point x="942" y="1080"/>
      <point x="765" y="1009"/>
    </contour>
    <contour>
      <point x="647" y="971" type="line"/>
      <point x="538" y="1011"/>
      <point x="397" y="1080"/>
      <point x="323" y="1108" type="curve" smooth="yes"/>
      <point x="285" y="1122"/>
      <point x="256" y="1116"/>
      <point x="242" y="1094" type="curve" smooth="yes"/>
      <point x="227" y="1070"/>
      <point x="240" y="1049"/>
      <point x="278" y="1036" type="curve" smooth="yes"/>
      <point x="352" y="1008"/>
      <point x="512" y="967"/>
      <point x="622" y="926" type="curve"/>
    </contour>
    <contour>
      <point x="619" y="961" type="line"/>
      <point x="516" y="856"/>
      <point x="364" y="716"/>
      <point x="294" y="645" type="curve" smooth="yes"/>
      <point x="257" y="608"/>
      <point x="248" y="580"/>
      <point x="264" y="566" type="curve" smooth="yes"/>
      <point x="282" y="551"/>
      <point x="310" y="563"/>
      <point x="347" y="599" type="curve" smooth="yes"/>
      <point x="416" y="671"/>
      <point x="545" y="828"/>
      <point x="647" y="934" type="curve"/>
    </contour>
    <contour>
      <point x="612" y="934" type="line"/>
      <point x="659" y="827"/>
      <point x="703" y="671"/>
      <point x="735" y="599" type="curve" smooth="yes"/>
      <point x="751" y="563"/>
      <point x="775" y="552"/>
      <point x="798" y="565" type="curve" smooth="yes"/>
      <point x="823" y="581"/>
      <point x="828" y="608"/>
      <point x="813" y="645" type="curve" smooth="yes"/>
      <point x="780" y="716"/>
      <point x="702" y="855"/>
      <point x="654" y="960" type="curve"/>
    </contour>
  </outline>
</glyph>
<glyph name="plus" format="2">
  <advance width="944"/>
  <unicode hex="002B"/>
  <outline>
    <contour>
      <point x="440" y="269" type="curve" smooth="yes"/>
      <point x="461" y="269"/>
      <point x="478" y="288"/>
      <point x="485" y="311" type="curve" smooth="yes"/>
      <point x="676" y="1028" type="line" smooth="yes"/>
      <point x="683" y="1051"/>
      <point x="676" y="1070"/>
      <point x="655" y="1070" type="curve" smooth="yes"/>
      <point x="638" y="1070"/>
      <point x="622" y="1051"/>
      <point x="616" y="1028" type="curve" smooth="yes"/>
      <point x="424" y="313" type="line" smooth="yes"/>
      <point x="419" y="289"/>
      <point x="423" y="269"/>
    </contour>
    <component base="minus" yxScale="0.01875644347017863" xOffset="-42"/>
  </outline>
</glyph>
<glyph name="comma" format="2">
  <advance width="311"/>
  <unicode hex="002C"/>
  <outline>
    <contour>
      <point x="125" y="0" type="curve" smooth="yes"/>
      <point x="142" y="1" type="line" smooth="yes"/>
      <point x="165" y="2"/>
      <point x="179" y="9"/>
      <point x="164" y="-43" type="curve" smooth="yes"/>
      <point x="146" y="-109"/>
      <point x="74" y="-194"/>
      <point x="12" y="-216" type="curve" smooth="yes"/>
      <point x="-11" y="-225"/>
      <point x="-18" y="-230"/>
      <point x="-22" y="-243" type="curve" smooth="yes"/>
      <point x="-26" y="-251"/>
      <point x="-20" y="-258"/>
      <point x="-10" y="-260" type="curve" smooth="yes"/>
      <point x="21" y="-265"/>
      <point x="172" y="-199"/>
      <point x="225" y="-8" type="curve" smooth="yes"/>
      <point x="256" y="104"/>
      <point x="228" y="156"/>
      <point x="179" y="156" type="curve" smooth="yes"/>
      <point x="130" y="156"/>
      <point x="86" y="123"/>
      <point x="72" y="77" type="curve" smooth="yes"/>
      <point x="60" y="34"/>
      <point x="88" y="-1"/>
    </contour>
  </outline>
</glyph>
<glyph name="hyphen" format="2">
  <advance width="709"/>
  <unicode hex="002D"/>
  <outline>
    <contour>
      <point x="612" y="495" type="curve" smooth="yes"/>
      <point x="178" y="495" type="line" smooth="yes"/>
      <point x="161" y="495"/>
      <point x="155" y="492"/>
      <point x="148" y="482" type="curve" smooth="yes"/>
      <point x="124" y="442" type="line" smooth="yes"/>
      <point x="118" y="434"/>
      <point x="120" y="425"/>
      <point x="139" y="425" type="curve" smooth="yes"/>
      <point x="573" y="425" type="line" smooth="yes"/>
      <point x="590" y="425"/>
      <point x="597" y="427"/>
      <point x="603" y="438" type="curve" smooth="yes"/>
      <point x="627" y="478" type="line" smooth="yes"/>
      <point x="633" y="485"/>
      <point x="631" y="495"/>
    </contour>
  </outline>
</glyph>
<glyph name="period" format="2">
  <advance width="285"/>
  <unicode hex="002E"/>
  <outline>
    <contour>
      <point x="106" y="-8" type="curve" smooth="yes"/>
      <point x="146" y="-8"/>
      <point x="189" y="27"/>
      <point x="201" y="68" type="curve" smooth="yes"/>
      <point x="214" y="113"/>
      <point x="190" y="147"/>
      <point x="147" y="147" type="curve" smooth="yes"/>
      <point x="108" y="147"/>
      <point x="64" y="115"/>
      <point x="52" y="70" type="curve" smooth="yes"/>
      <point x="40" y="28"/>
      <point x="65" y="-8"/>
    </contour>
  </outline>
</glyph>
<glyph name="slash" format="2">
  <advance width="660"/>
  <unicode hex="002F"/>
  <outline>
    <contour>
      <point x="399" y="563" type="curve" smooth="yes"/>
      <point x="505" y="779"/>
      <point x="748" y="1269"/>
      <point x="848" y="1476" type="curve" smooth="yes"/>
      <point x="858" y="1497"/>
      <point x="855" y="1531"/>
      <point x="848" y="1533" type="curve" smooth="yes"/>
      <point x="829" y="1537"/>
      <point x="809" y="1523"/>
      <point x="797" y="1497" type="curve" smooth="yes"/>
      <point x="676" y="1248"/>
      <point x="451" y="777"/>
      <point x="356" y="579" type="curve" smooth="yes"/>
      <point x="260" y="380"/>
      <point x="27" y="-86"/>
      <point x="-94" y="-334" type="curve" smooth="yes"/>
      <point x="-107" y="-360"/>
      <point x="-102" y="-381"/>
      <point x="-86" y="-386" type="curve" smooth="yes"/>
      <point x="-65" y="-392"/>
      <point x="-46" y="-379"/>
      <point x="-31" y="-352" type="curve" smooth="yes"/>
      <point x="69" y="-143"/>
      <point x="299" y="351"/>
    </contour>
  </outline>
</glyph>
<glyph name="zero" format="2">
  <advance width="1170"/>
  <unicode hex="0030"/>
  <outline>
    <contour>
      <point x="886" y="1418" type="curve" smooth="yes"/>
      <point x="604" y="1418"/>
      <point x="322" y="1131"/>
      <point x="203" y="676" type="curve" smooth="yes"/>
      <point x="87" y="232"/>
      <point x="182.0" y="-20"/>
      <point x="462" y="-20" type="curve" smooth="yes"/>
      <point x="734" y="-20"/>
      <point x="1026" y="256"/>
      <point x="1154" y="730" type="curve" smooth="yes"/>
      <point x="1270" y="1161"/>
      <point x="1183" y="1418.0"/>
    </contour>
    <contour>
      <point x="1085" y="707" type="curve" smooth="yes"/>
      <point x="974" y="283"/>
      <point x="708" y="28"/>
      <point x="473" y="28" type="curve" smooth="yes"/>
      <point x="242" y="28"/>
      <point x="150" y="251"/>
      <point x="270" y="694" type="curve" smooth="yes"/>
      <point x="383" y="1111"/>
      <point x="635" y="1369"/>
      <point x="874" y="1369" type="curve" smooth="yes"/>
      <point x="1124.0" y="1369.0"/>
      <point x="1209" y="1177"/>
    </contour>
  </outline>
</glyph>
<glyph name="one" format="2">
  <advance width="673"/>
  <unicode hex="0031"/>
  <outline>
    <contour>
      <point x="326" y="1280" type="line" smooth="yes"/>
      <point x="303" y="1280"/>
      <point x="293" y="1288"/>
      <point x="298" y="1311" type="curve" smooth="yes"/>
      <point x="302" y="1327"/>
      <point x="319" y="1339"/>
      <point x="341" y="1339" type="curve" smooth="yes"/>
      <point x="516" y="1339" type="line" smooth="yes"/>
      <point x="546" y="1339"/>
      <point x="562" y="1351"/>
      <point x="589" y="1400" type="curve" smooth="yes"/>
      <point x="602" y="1426"/>
      <point x="619" y="1440"/>
      <point x="636" y="1440" type="curve" smooth="yes"/>
      <point x="655" y="1440"/>
      <point x="664" y="1428"/>
      <point x="656" y="1397" type="curve" smooth="yes"/>
      <point x="321" y="142" type="line" smooth="yes"/>
      <point x="306" y="92"/>
      <point x="317" y="59"/>
      <point x="375" y="56" type="curve" smooth="yes"/>
      <point x="516" y="46" type="line" smooth="yes"/>
      <point x="537" y="44"/>
      <point x="548" y="35"/>
      <point x="543" y="20" type="curve" smooth="yes"/>
      <point x="538" y="7"/>
      <point x="527" y="0"/>
      <point x="509" y="0" type="curve" smooth="yes"/>
      <point x="-27" y="0" type="line" smooth="yes"/>
      <point x="-46" y="0"/>
      <point x="-53" y="7"/>
      <point x="-49" y="21" type="curve" smooth="yes"/>
      <point x="-45" y="35"/>
      <point x="-29" y="45"/>
      <point x="-8" y="46" type="curve" smooth="yes"/>
      <point x="159" y="55" type="line" smooth="yes"/>
      <point x="208" y="58"/>
      <point x="246" y="91"/>
      <point x="260" y="143" type="curve" smooth="yes"/>
      <point x="542" y="1198" type="line" smooth="yes"/>
      <point x="560" y="1263"/>
      <point x="548" y="1280"/>
      <point x="502" y="1280" type="curve" smooth="yes"/>
    </contour>
  </outline>
</glyph>
<glyph name="two" format="2">
  <advance width="927"/>
  <unicode hex="0032"/>
  <outline>
    <contour>
      <point x="70" y="124" type="line"/>
      <point x="408" y="385" type="line" smooth="yes"/>
      <point x="850" y="727"/>
      <point x="959" y="860"/>
      <point x="1006" y="1039" type="curve" smooth="yes"/>
      <point x="1061" y="1239"/>
      <point x="986" y="1417"/>
      <point x="758" y="1417" type="curve" smooth="yes"/>
      <point x="512" y="1417"/>
      <point x="319" y="1237"/>
      <point x="273" y="1065" type="curve" smooth="yes"/>
      <point x="256" y="1001"/>
      <point x="267" y="969"/>
      <point x="298" y="969" type="curve" smooth="yes"/>
      <point x="323" y="969"/>
      <point x="349" y="989"/>
      <point x="362" y="1041" type="curve" smooth="yes"/>
      <point x="378" y="1101" type="line" smooth="yes"/>
      <point x="411" y="1230"/>
      <point x="548" y="1365"/>
      <point x="739" y="1365" type="curve" smooth="yes"/>
      <point x="926" y="1365"/>
      <point x="995" y="1211"/>
      <point x="947" y="1034" type="curve" smooth="yes"/>
      <point x="898" y="857"/>
      <point x="752" y="709"/>
      <point x="363" y="409" type="curve" smooth="yes"/>
      <point x="47" y="166" type="line"/>
    </contour>
    <contour>
      <point x="-25" y="52" type="curve" smooth="yes"/>
      <point x="-38" y="4"/>
      <point x="-22" y="-19"/>
      <point x="3" y="-19" type="curve" smooth="yes"/>
      <point x="38" y="-19"/>
      <point x="63" y="4"/>
      <point x="80" y="51" type="curve" smooth="yes"/>
      <point x="107" y="126"/>
      <point x="137" y="174"/>
      <point x="192" y="174" type="curve" smooth="yes"/>
      <point x="245" y="174"/>
      <point x="282" y="148"/>
      <point x="347" y="88" type="curve" smooth="yes"/>
      <point x="426" y="18"/>
      <point x="484" y="-18"/>
      <point x="573" y="-18" type="curve" smooth="yes"/>
      <point x="684" y="-18"/>
      <point x="765" y="47"/>
      <point x="834" y="208" type="curve" smooth="yes"/>
      <point x="843" y="232"/>
      <point x="842" y="242"/>
      <point x="832" y="245" type="curve" smooth="yes"/>
      <point x="819" y="248"/>
      <point x="807" y="239"/>
      <point x="796" y="218" type="curve" smooth="yes"/>
      <point x="741" y="109"/>
      <point x="685" y="50"/>
      <point x="582" y="50" type="curve" smooth="yes"/>
      <point x="457" y="50"/>
      <point x="367" y="230"/>
      <point x="225" y="230" type="curve" smooth="yes"/>
      <point x="92" y="230"/>
      <point x="-1" y="143"/>
    </contour>
  </outline>
</glyph>
<glyph name="three" format="2">
  <advance width="813"/>
  <unicode hex="0033"/>
  <outline>
    <contour>
      <point x="395" y="735" type="line"/>
      <point x="1006" y="1318" type="line" smooth="yes"/>
      <point x="1031" y="1342"/>
      <point x="1049" y="1358"/>
      <point x="1054" y="1378" type="curve" smooth="yes"/>
      <point x="1057" y="1390"/>
      <point x="1050" y="1400"/>
      <point x="1036" y="1400" type="curve" smooth="yes"/>
      <point x="408" y="1400" type="line" smooth="yes"/>
      <point x="368" y="1400"/>
      <point x="349" y="1381"/>
      <point x="335" y="1344" type="curve" smooth="yes"/>
      <point x="262" y="1156" type="line" smooth="yes"/>
      <point x="249" y="1123"/>
      <point x="255" y="1112"/>
      <point x="268" y="1111" type="curve" smooth="yes"/>
      <point x="280" y="1110"/>
      <point x="291" y="1121"/>
      <point x="300" y="1140" type="curve" smooth="yes"/>
      <point x="363" y="1263" type="line" smooth="yes"/>
      <point x="387" y="1308"/>
      <point x="406" y="1330"/>
      <point x="445" y="1330" type="curve" smooth="yes"/>
      <point x="977" y="1330" type="line"/>
      <point x="980" y="1353" type="line"/>
      <point x="398" y="797" type="line" smooth="yes"/>
      <point x="373" y="774"/>
      <point x="354" y="758"/>
      <point x="348" y="738" type="curve" smooth="yes"/>
      <point x="344" y="722"/>
      <point x="354" y="709"/>
      <point x="375" y="709" type="curve" smooth="yes"/>
      <point x="432" y="709" type="line" smooth="yes"/>
      <point x="706" y="709"/>
      <point x="775" y="587"/>
      <point x="716" y="368" type="curve" smooth="yes"/>
      <point x="659" y="157"/>
      <point x="485" y="40"/>
      <point x="307" y="40" type="curve" smooth="yes"/>
      <point x="134" y="40"/>
      <point x="54" y="110"/>
      <point x="89" y="241" type="curve" smooth="yes"/>
      <point x="107" y="309" type="line" smooth="yes"/>
      <point x="119" y="357"/>
      <point x="112" y="382"/>
      <point x="81" y="382" type="curve" smooth="yes"/>
      <point x="50" y="382"/>
      <point x="23" y="349"/>
      <point x="6" y="286" type="curve" smooth="yes"/>
      <point x="-37" y="128"/>
      <point x="58" y="-19"/>
      <point x="279" y="-19" type="curve" smooth="yes"/>
      <point x="515" y="-19"/>
      <point x="720" y="148"/>
      <point x="785" y="388" type="curve" smooth="yes"/>
      <point x="845" y="613"/>
      <point x="746" y="766"/>
      <point x="462" y="766" type="curve" smooth="yes"/>
      <point x="464" y="766"/>
      <point x="419" y="766"/>
      <point x="417" y="767" type="curve"/>
    </contour>
  </outline>
</glyph>
<glyph name="four" format="2">
  <advance width="890"/>
  <unicode hex="0034"/>
  <outline>
    <contour>
      <point x="676" y="799" type="curve" smooth="yes"/>
      <point x="500" y="143" type="line" smooth="yes"/>
      <point x="486" y="91"/>
      <point x="450" y="61"/>
      <point x="400" y="55" type="curve" smooth="yes"/>
      <point x="320" y="46" type="line" smooth="yes"/>
      <point x="299" y="43"/>
      <point x="285" y="35"/>
      <point x="280" y="21" type="curve" smooth="yes"/>
      <point x="277" y="7"/>
      <point x="285" y="0"/>
      <point x="303" y="0" type="curve" smooth="yes"/>
      <point x="683" y="0" type="line" smooth="yes"/>
      <point x="702" y="0"/>
      <point x="713" y="7"/>
      <point x="717" y="21" type="curve" smooth="yes"/>
      <point x="722" y="35"/>
      <point x="711" y="44"/>
      <point x="691" y="46" type="curve" smooth="yes"/>
      <point x="616" y="55" type="line" smooth="yes"/>
      <point x="568" y="61"/>
      <point x="548" y="91"/>
      <point x="562" y="143" type="curve" smooth="yes"/>
      <point x="754" y="860" type="line" smooth="yes"/>
      <point x="758" y="874"/>
      <point x="753" y="881"/>
      <point x="746" y="881" type="curve" smooth="yes"/>
      <point x="735" y="881"/>
      <point x="728" y="877"/>
      <point x="720" y="870" type="curve" smooth="yes"/>
      <point x="709" y="854" type="line" smooth="yes"/>
      <point x="698" y="843"/>
      <point x="684" y="828"/>
    </contour>
    <contour>
      <point x="721" y="1121" type="curve" smooth="yes"/>
      <point x="26" y="449" type="line" smooth="yes"/>
      <point x="4" y="426"/>
      <point x="-6" y="413"/>
      <point x="-10" y="397" type="curve" smooth="yes"/>
      <point x="-16" y="376"/>
      <point x="-6" y="363"/>
      <point x="20" y="363" type="curve" smooth="yes"/>
      <point x="798" y="362" type="line" smooth="yes"/>
      <point x="819" y="362"/>
      <point x="830" y="372"/>
      <point x="834" y="389" type="curve" smooth="yes"/>
      <point x="838" y="408"/>
      <point x="831" y="415"/>
      <point x="814" y="415" type="curve" smooth="yes"/>
      <point x="35" y="415" type="line"/>
      <point x="33" y="394" type="line"/>
      <point x="752" y="1092" type="line" smooth="yes"/>
      <point x="832" y="1171"/>
      <point x="882" y="1230"/>
      <point x="905" y="1316" type="curve" smooth="yes"/>
      <point x="922" y="1378"/>
      <point x="898" y="1417"/>
      <point x="858" y="1417" type="curve" smooth="yes"/>
      <point x="817" y="1417"/>
      <point x="780" y="1382"/>
      <point x="769" y="1340" type="curve" smooth="yes"/>
      <point x="755" y="1285"/>
      <point x="798" y="1265"/>
      <point x="783" y="1209" type="curve" smooth="yes"/>
      <point x="773" y="1170"/>
      <point x="747" y="1147"/>
    </contour>
  </outline>
</glyph>
<glyph name="five" format="2">
  <advance width="879"/>
  <unicode hex="0035"/>
  <outline>
    <contour>
      <point x="67" y="287" type="curve" smooth="yes"/>
      <point x="23" y="125"/>
      <point x="128" y="-19"/>
      <point x="341" y="-19" type="curve" smooth="yes"/>
      <point x="577" y="-19"/>
      <point x="778" y="159"/>
      <point x="849" y="425" type="curve" smooth="yes"/>
      <point x="914" y="666"/>
      <point x="828" y="842"/>
      <point x="608" y="842" type="curve" smooth="yes"/>
      <point x="483" y="842"/>
      <point x="344" y="776"/>
      <point x="238" y="653" type="curve"/>
      <point x="251" y="653" type="line"/>
      <point x="442" y="1368" type="line"/>
      <point x="439" y="1367" type="line"/>
      <point x="510" y="1272"/>
      <point x="606" y="1221"/>
      <point x="753" y="1221" type="curve" smooth="yes"/>
      <point x="881" y="1221"/>
      <point x="1016" y="1298"/>
      <point x="1083" y="1400" type="curve" smooth="yes"/>
      <point x="1104" y="1433"/>
      <point x="1099" y="1443"/>
      <point x="1092" y="1449" type="curve" smooth="yes"/>
      <point x="1081" y="1457"/>
      <point x="1065" y="1452"/>
      <point x="1040" y="1422" type="curve" smooth="yes"/>
      <point x="967" y="1332"/>
      <point x="873" y="1282"/>
      <point x="765" y="1282" type="curve" smooth="yes"/>
      <point x="625" y="1282"/>
      <point x="577" y="1337"/>
      <point x="499" y="1411" type="curve" smooth="yes"/>
      <point x="484" y="1426"/>
      <point x="475" y="1432"/>
      <point x="458" y="1432" type="curve" smooth="yes"/>
      <point x="426" y="1432"/>
      <point x="406" y="1412"/>
      <point x="398" y="1380" type="curve" smooth="yes"/>
      <point x="191" y="611" type="line" smooth="yes"/>
      <point x="184" y="583"/>
      <point x="185" y="564"/>
      <point x="201" y="564" type="curve" smooth="yes"/>
      <point x="224" y="564"/>
      <point x="242" y="582"/>
      <point x="265" y="609" type="curve" smooth="yes"/>
      <point x="375" y="730"/>
      <point x="485" y="784"/>
      <point x="589" y="784" type="curve" smooth="yes"/>
      <point x="763" y="784"/>
      <point x="849" y="661"/>
      <point x="788" y="433" type="curve" smooth="yes"/>
      <point x="719" y="173"/>
      <point x="547" y="40"/>
      <point x="370" y="40" type="curve" smooth="yes"/>
      <point x="188" y="40"/>
      <point x="117" y="121"/>
      <point x="148" y="241" type="curve" smooth="yes"/>
      <point x="167" y="309" type="line" smooth="yes"/>
      <point x="179" y="357"/>
      <point x="172" y="382"/>
      <point x="140" y="382" type="curve" smooth="yes"/>
      <point x="110" y="382"/>
      <point x="82" y="350"/>
    </contour>
  </outline>
</glyph>
<glyph name="six" format="2">
  <advance width="958"/>
  <unicode hex="0036"/>
  <outline>
    <contour>
      <point x="796" y="1418" type="curve" smooth="yes"/>
      <point x="516" y="1418"/>
      <point x="259" y="1199"/>
      <point x="125" y="654" type="curve" smooth="yes"/>
      <point x="17" y="217"/>
      <point x="120" y="-18"/>
      <point x="396" y="-18" type="curve" smooth="yes"/>
      <point x="627" y="-18"/>
      <point x="827" y="147"/>
      <point x="895" y="420" type="curve" smooth="yes"/>
      <point x="956" y="662"/>
      <point x="861" y="837"/>
      <point x="621" y="837" type="curve" smooth="yes"/>
      <point x="399" y="837"/>
      <point x="166" y="635"/>
      <point x="108" y="402" type="curve"/>
      <point x="142" y="386" type="line"/>
      <point x="190" y="585"/>
      <point x="395" y="773"/>
      <point x="588" y="773" type="curve" smooth="yes"/>
      <point x="784" y="773"/>
      <point x="880" y="648"/>
      <point x="822" y="410" type="curve" smooth="yes"/>
      <point x="765" y="184"/>
      <point x="608" y="39"/>
      <point x="421" y="39" type="curve" smooth="yes"/>
      <point x="198" y="39"/>
      <point x="88" y="224"/>
      <point x="201" y="686" type="curve" smooth="yes"/>
      <point x="326" y="1189"/>
      <point x="572" y="1359"/>
      <point x="771" y="1359" type="curve" smooth="yes"/>
      <point x="917" y="1359"/>
      <point x="965" y="1287"/>
      <point x="938" y="1175" type="curve" smooth="yes"/>
      <point x="924" y="1119" type="line" smooth="yes"/>
      <point x="911" y="1071"/>
      <point x="920" y="1047"/>
      <point x="953" y="1047" type="curve" smooth="yes"/>
      <point x="988" y="1047"/>
      <point x="1016" y="1080"/>
      <point x="1031" y="1141" type="curve" smooth="yes"/>
      <point x="1068" y="1290"/>
      <point x="983" y="1418"/>
    </contour>
  </outline>
</glyph>
<glyph name="seven" format="2">
  <advance width="834"/>
  <unicode hex="0037"/>
  <outline>
    <contour>
      <point x="1062" y="1358" type="line"/>
      <point x="684" y="883" type="line" smooth="yes"/>
      <point x="445" y="580"/>
      <point x="297" y="389"/>
      <point x="239" y="173" type="curve" smooth="yes"/>
      <point x="206" y="46"/>
      <point x="218" y="-18"/>
      <point x="266" y="-18" type="curve" smooth="yes"/>
      <point x="301" y="-18"/>
      <point x="326" y="2"/>
      <point x="338" y="47" type="curve" smooth="yes"/>
      <point x="352" y="100"/>
      <point x="299" y="167"/>
      <point x="323" y="256" type="curve" smooth="yes"/>
      <point x="365" y="410"/>
      <point x="507" y="591"/>
      <point x="722" y="863" type="curve" smooth="yes"/>
      <point x="1071" y="1302" type="line" smooth="yes"/>
      <point x="1090" y="1326"/>
      <point x="1098" y="1342"/>
      <point x="1103" y="1363" type="curve" smooth="yes"/>
      <point x="1111" y="1386"/>
      <point x="1102" y="1400"/>
      <point x="1069" y="1400" type="curve" smooth="yes"/>
      <point x="413" y="1400" type="line" smooth="yes"/>
      <point x="374" y="1400"/>
      <point x="355" y="1381"/>
      <point x="340" y="1344" type="curve" smooth="yes"/>
      <point x="268" y="1159" type="line" smooth="yes"/>
      <point x="254" y="1126"/>
      <point x="261" y="1115"/>
      <point x="273" y="1114" type="curve" smooth="yes"/>
      <point x="285" y="1113"/>
      <point x="296" y="1124"/>
      <point x="305" y="1143" type="curve" smooth="yes"/>
      <point x="369" y="1265" type="line" smooth="yes"/>
      <point x="393" y="1311"/>
      <point x="412" y="1332"/>
      <point x="451" y="1332" type="curve" smooth="yes"/>
      <point x="1061" y="1332" type="line"/>
    </contour>
  </outline>
</glyph>
<glyph name="eight" format="2">
  <advance width="851"/>
  <unicode hex="0038"/>
  <outline>
    <contour>
      <point x="314" y="-19" type="curve" smooth="yes"/>
      <point x="542" y="-19"/>
      <point x="724" y="104"/>
      <point x="781" y="316" type="curve" smooth="yes"/>
      <point x="820" y="463"/>
      <point x="757" y="591"/>
      <point x="516" y="686" type="curve" smooth="yes"/>
      <point x="276" y="780"/>
      <point x="253" y="904"/>
      <point x="290" y="1041" type="curve" smooth="yes"/>
      <point x="338" y="1220"/>
      <point x="508" y="1358"/>
      <point x="691" y="1358" type="curve" smooth="yes"/>
      <point x="875" y="1358"/>
      <point x="981" y="1249"/>
      <point x="925" y="1039" type="curve" smooth="yes"/>
      <point x="882" y="878"/>
      <point x="739" y="741"/>
      <point x="545" y="647" type="curve"/>
      <point x="567" y="612" type="line"/>
      <point x="772" y="697"/>
      <point x="936" y="849"/>
      <point x="990" y="1051" type="curve" smooth="yes"/>
      <point x="1041" y="1239"/>
      <point x="966" y="1417"/>
      <point x="712" y="1417" type="curve" smooth="yes"/>
      <point x="494" y="1417"/>
      <point x="287" y="1260"/>
      <point x="225" y="1027" type="curve" smooth="yes"/>
      <point x="175" y="838"/>
      <point x="243" y="719"/>
      <point x="481" y="619" type="curve" smooth="yes"/>
      <point x="709" y="525"/>
      <point x="755" y="442"/>
      <point x="719" y="307" type="curve" smooth="yes"/>
      <point x="675" y="139"/>
      <point x="528" y="41"/>
      <point x="348" y="41" type="curve" smooth="yes"/>
      <point x="156" y="41"/>
      <point x="51" y="133"/>
      <point x="99" y="310" type="curve" smooth="yes"/>
      <point x="130" y="425"/>
      <point x="242" y="560"/>
      <point x="440" y="636" type="curve"/>
      <point x="423" y="676" type="line"/>
      <point x="232" y="616"/>
      <point x="80" y="457"/>
      <point x="36" y="298" type="curve" smooth="yes"/>
      <point x="-16" y="102"/>
      <point x="85" y="-19"/>
    </contour>
  </outline>
</glyph>
<glyph name="nine" format="2">
  <advance width="922"/>
  <unicode hex="0039"/>
  <outline>
    <contour>
      <point x="299" y="-18" type="curve" smooth="yes"/>
      <point x="576" y="-18"/>
      <point x="808" y="223"/>
      <point x="961" y="747" type="curve" smooth="yes"/>
      <point x="1088" y="1183"/>
      <point x="989" y="1418"/>
      <point x="715" y="1418" type="curve" smooth="yes"/>
      <point x="486" y="1418"/>
      <point x="276" y="1255"/>
      <point x="203" y="982" type="curve" smooth="yes"/>
      <point x="137" y="738"/>
      <point x="230" y="563"/>
      <point x="470" y="563" type="curve" smooth="yes"/>
      <point x="692" y="563"/>
      <point x="927" y="765"/>
      <point x="989" y="998" type="curve"/>
      <point x="957" y="1015" type="line"/>
      <point x="905" y="816"/>
      <point x="694" y="628"/>
      <point x="498" y="628" type="curve" smooth="yes"/>
      <point x="298" y="628"/>
      <point x="204" y="753"/>
      <point x="268" y="990" type="curve" smooth="yes"/>
      <point x="328" y="1216"/>
      <point x="501" y="1361"/>
      <point x="691" y="1361" type="curve" smooth="yes"/>
      <point x="917" y="1361"/>
      <point x="1028" y="1188"/>
      <point x="895" y="725" type="curve" smooth="yes"/>
      <point x="751" y="223"/>
      <point x="524" y="41"/>
      <point x="322" y="41" type="curve" smooth="yes"/>
      <point x="175" y="41"/>
      <point x="99" y="113"/>
      <point x="129" y="225" type="curve" smooth="yes"/>
      <point x="144" y="281" type="line" smooth="yes"/>
      <point x="157" y="329"/>
      <point x="148" y="353"/>
      <point x="119" y="353" type="curve" smooth="yes"/>
      <point x="86" y="353"/>
      <point x="60" y="320"/>
      <point x="43" y="259" type="curve" smooth="yes"/>
      <point x="3" y="110"/>
      <point x="115" y="-18"/>
    </contour>
  </outline>
</glyph>
<glyph name="less" format="2">
  <advance width="852"/>
  <unicode hex="003C"/>
  <outline>
    <contour>
      <point x="203" y="688" type="line"/>
      <point x="745" y="328" type="line" smooth="yes"/>
      <point x="762" y="316"/>
      <point x="770" y="301"/>
      <point x="767" y="288" type="curve" smooth="yes"/>
      <point x="764" y="277"/>
      <point x="754" y="271"/>
      <point x="740" y="271" type="curve" smooth="yes"/>
      <point x="728" y="271"/>
      <point x="718" y="278"/>
      <point x="704" y="287" type="curve" smooth="yes"/>
      <point x="184" y="621" type="line" smooth="yes"/>
      <point x="158" y="637"/>
      <point x="148" y="660"/>
      <point x="154" y="690" type="curve" smooth="yes"/>
      <point x="161" y="718"/>
      <point x="183" y="738"/>
      <point x="220" y="756" type="curve" smooth="yes"/>
      <point x="919" y="1090" type="line" smooth="yes"/>
      <point x="937" y="1099"/>
      <point x="952" y="1103"/>
      <point x="965" y="1103" type="curve" smooth="yes"/>
      <point x="979" y="1103"/>
      <point x="982" y="1095"/>
      <point x="979" y="1082" type="curve" smooth="yes"/>
      <point x="976" y="1070"/>
      <point x="960" y="1054"/>
      <point x="937" y="1042" type="curve" smooth="yes"/>
      <point x="201" y="682" type="line"/>
    </contour>
  </outline>
</glyph>
<glyph name="question" format="2">
  <advance width="651"/>
  <unicode hex="003F"/>
  <outline>
    <contour>
      <point x="301" y="637" type="line" smooth="yes"/>
      <point x="308" y="671"/>
      <point x="327" y="699"/>
      <point x="351" y="709" type="curve" smooth="yes"/>
      <point x="429" y="743" type="line" smooth="yes"/>
      <point x="602" y="823"/>
      <point x="675" y="931"/>
      <point x="705" y="1042" type="curve" smooth="yes"/>
      <point x="747" y="1200"/>
      <point x="671" y="1281"/>
      <point x="545" y="1281" type="curve" smooth="yes"/>
      <point x="426" y="1281"/>
      <point x="337" y="1224"/>
      <point x="306" y="1105" type="curve" smooth="yes"/>
      <point x="295" y="1068" type="line" smooth="yes"/>
      <point x="287" y="1038"/>
      <point x="261" y="1021"/>
      <point x="230" y="1021" type="curve" smooth="yes"/>
      <point x="200" y="1021"/>
      <point x="185" y="1047"/>
      <point x="194" y="1080" type="curve" smooth="yes"/>
      <point x="228" y="1208"/>
      <point x="399" y="1334"/>
      <point x="560" y="1334" type="curve" smooth="yes"/>
      <point x="721" y="1334"/>
      <point x="817" y="1224"/>
      <point x="767" y="1042" type="curve" smooth="yes"/>
      <point x="732" y="911"/>
      <point x="641" y="781"/>
      <point x="475" y="714" type="curve" smooth="yes"/>
      <point x="412" y="689" type="line" smooth="yes"/>
      <point x="387" y="678"/>
      <point x="370" y="658"/>
      <point x="360" y="622" type="curve" smooth="yes"/>
      <point x="303" y="442" type="line" smooth="yes"/>
      <point x="298" y="423"/>
      <point x="286" y="412"/>
      <point x="273" y="412" type="curve" smooth="yes"/>
      <point x="260" y="412"/>
      <point x="253" y="422"/>
      <point x="258" y="442" type="curve" smooth="yes"/>
    </contour>
    <component base="period" yxScale="0.010182069312382691" xOffset="49" yOffset="-7"/>
  </outline>
</glyph>
<glyph name="at" format="2">
  <advance width="1376"/>
  <unicode hex="0040"/>
  <outline>
    <contour>
      <point x="430" y="328" type="curve" smooth="yes"/>
      <point x="432" y="609"/>
      <point x="695" y="895"/>
      <point x="910" y="895" type="curve" smooth="yes"/>
      <point x="962" y="895"/>
      <point x="992" y="878"/>
      <point x="991" y="836" type="curve" smooth="yes"/>
      <point x="990" y="634"/>
      <point x="711" y="179"/>
      <point x="533" y="179" type="curve" smooth="yes"/>
      <point x="464" y="179"/>
      <point x="428" y="213"/>
    </contour>
    <contour>
      <point x="944" y="137" type="curve" smooth="yes"/>
      <point x="1096" y="137"/>
      <point x="1260" y="287"/>
      <point x="1328" y="541" type="curve" smooth="yes"/>
      <point x="1447" y="984"/>
      <point x="1250" y="1246"/>
      <point x="933" y="1246" type="curve" smooth="yes"/>
      <point x="519" y="1246"/>
      <point x="207" y="944"/>
      <point x="97" y="531" type="curve" smooth="yes"/>
      <point x="-24" y="78"/>
      <point x="191" y="-205"/>
      <point x="560" y="-205" type="curve" smooth="yes"/>
      <point x="793" y="-205"/>
      <point x="1033" y="-113"/>
      <point x="1214" y="65" type="curve" smooth="yes"/>
      <point x="1233" y="83"/>
      <point x="1242" y="97"/>
      <point x="1233" y="110" type="curve" smooth="yes"/>
      <point x="1223" y="122"/>
      <point x="1205" y="116"/>
      <point x="1187" y="99" type="curve" smooth="yes"/>
      <point x="1026" y="-55"/>
      <point x="815" y="-153"/>
      <point x="577" y="-153" type="curve" smooth="yes"/>
      <point x="232" y="-153"/>
      <point x="48" y="122"/>
      <point x="158" y="531" type="curve" smooth="yes"/>
      <point x="260" y="917"/>
      <point x="555" y="1192"/>
      <point x="918" y="1192" type="curve" smooth="yes"/>
      <point x="1202" y="1192"/>
      <point x="1372" y="937"/>
      <point x="1265" y="540" type="curve" smooth="yes"/>
      <point x="1199" y="290"/>
      <point x="1063" y="189"/>
      <point x="956" y="189" type="curve" smooth="yes"/>
      <point x="910" y="189"/>
      <point x="886" y="226"/>
      <point x="903" y="294" type="curve" smooth="yes"/>
      <point x="1031" y="802" type="line" smooth="yes"/>
      <point x="1038" y="828"/>
      <point x="1064" y="850"/>
      <point x="1064" y="876" type="curve" smooth="yes"/>
      <point x="1064" y="915"/>
      <point x="1009" y="937"/>
      <point x="932" y="937" type="curve" smooth="yes"/>
      <point x="669" y="937"/>
      <point x="379" y="629"/>
      <point x="375" y="304" type="curve" smooth="yes"/>
      <point x="375" y="181"/>
      <point x="431" y="138"/>
      <point x="512" y="138" type="curve" smooth="yes"/>
      <point x="657" y="138"/>
      <point x="829" y="294"/>
      <point x="953" y="605" type="curve"/>
      <point x="944" y="604" type="line"/>
      <point x="865" y="351"/>
      <point x="857" y="316"/>
      <point x="846" y="276" type="curve" smooth="yes"/>
      <point x="823" y="194"/>
      <point x="867" y="137"/>
    </contour>
  </outline>
</glyph>
<glyph name="A" format="2">
  <advance width="1039"/>
  <unicode hex="0041"/>
  <outline>
    <contour>
      <point x="131" y="156" type="curve" smooth="yes"/>
      <point x="679" y="1041" type="line" smooth="yes"/>
      <point x="758" y="1169"/>
      <point x="822" y="1258"/>
      <point x="849" y="1288" type="curve"/>
      <point x="838" y="1305" type="line"/>
      <point x="829" y="1013"/>
      <point x="813" y="381"/>
      <point x="802" y="135" type="curve" smooth="yes"/>
      <point x="800" y="91"/>
      <point x="776" y="70"/>
      <point x="738" y="62" type="curve" smooth="yes"/>
      <point x="662" y="43" type="line" smooth="yes"/>
      <point x="651" y="40"/>
      <point x="641" y="31"/>
      <point x="641" y="21" type="curve" smooth="yes"/>
      <point x="640" y="7"/>
      <point x="653" y="0"/>
      <point x="663" y="0" type="curve" smooth="yes"/>
      <point x="956" y="0" type="line" smooth="yes"/>
      <point x="977" y="0"/>
      <point x="985" y="9"/>
      <point x="986" y="23" type="curve" smooth="yes"/>
      <point x="986" y="36"/>
      <point x="977" y="45"/>
      <point x="959" y="46" type="curve" smooth="yes"/>
      <point x="900" y="54"/>
      <point x="859" y="73"/>
      <point x="860" y="125" type="curve" smooth="yes"/>
      <point x="862" y="380"/>
      <point x="881" y="998"/>
      <point x="888" y="1282" type="curve" smooth="yes"/>
      <point x="889" y="1330"/>
      <point x="910" y="1357"/>
      <point x="950" y="1360" type="curve" smooth="yes"/>
      <point x="970" y="1360"/>
      <point x="984" y="1374"/>
      <point x="984" y="1389" type="curve" smooth="yes"/>
      <point x="984" y="1403"/>
      <point x="974" y="1409"/>
      <point x="960" y="1409" type="curve" smooth="yes"/>
      <point x="881" y="1409"/>
      <point x="790" y="1301"/>
      <point x="650" y="1076" type="curve" smooth="yes"/>
      <point x="65" y="142" type="line" smooth="yes"/>
      <point x="32" y="90"/>
      <point x="-8" y="68"/>
      <point x="-50" y="61" type="curve" smooth="yes"/>
      <point x="-78" y="57"/>
      <point x="-94" y="48"/>
      <point x="-95" y="29" type="curve" smooth="yes"/>
      <point x="-95" y="9"/>
      <point x="-82" y="0"/>
      <point x="-51" y="0" type="curve" smooth="yes"/>
      <point x="212" y="0" type="line" smooth="yes"/>
      <point x="234" y="0"/>
      <point x="246" y="9"/>
      <point x="246" y="25" type="curve" smooth="yes"/>
      <point x="247" y="40"/>
      <point x="238" y="52"/>
      <point x="216" y="54" type="curve" smooth="yes"/>
      <point x="143" y="65" type="line" smooth="yes"/>
      <point x="103" y="70"/>
      <point x="100" y="106"/>
    </contour>
    <contour>
      <point x="300" y="501" type="line"/>
      <point x="847" y="501" type="line"/>
      <point x="852" y="546" type="line"/>
      <point x="330" y="546" type="line"/>
    </contour>
  </outline>
</glyph>
<glyph name="B" format="2">
  <advance width="1072"/>
  <unicode hex="0042"/>
  <outline>
    <contour>
      <point x="567" y="1288" type="curve" smooth="yes"/>
      <point x="579" y="1326"/>
      <point x="622" y="1347"/>
      <point x="719" y="1347" type="curve" smooth="yes"/>
      <point x="944" y="1347"/>
      <point x="1064" y="1226"/>
      <point x="1022" y="1008" type="curve" smooth="yes"/>
      <point x="978" y="791"/>
      <point x="794" y="672"/>
      <point x="591" y="672" type="curve" smooth="yes"/>
      <point x="371" y="672" type="line"/>
      <point x="349" y="625" type="line"/>
      <point x="636" y="625" type="line" smooth="yes"/>
      <point x="848" y="625"/>
      <point x="951" y="529"/>
      <point x="921" y="349" type="curve" smooth="yes"/>
      <point x="890" y="153"/>
      <point x="712" y="46"/>
      <point x="446" y="46" type="curve" smooth="yes"/>
      <point x="268" y="46"/>
      <point x="234" y="73"/>
      <point x="244" y="121" type="curve" smooth="yes"/>
      <point x="273" y="278"/>
      <point x="475" y="981"/>
    </contour>
    <contour>
      <point x="433" y="1400" type="line" smooth="yes"/>
      <point x="387" y="1400"/>
      <point x="369" y="1385"/>
      <point x="368" y="1369" type="curve" smooth="yes"/>
      <point x="368" y="1358"/>
      <point x="382" y="1353"/>
      <point x="404" y="1350" type="curve" smooth="yes"/>
      <point x="465" y="1342" type="line" smooth="yes"/>
      <point x="487" y="1339"/>
      <point x="508" y="1324"/>
      <point x="502" y="1289" type="curve" smooth="yes"/>
      <point x="490" y="1212"/>
      <point x="347" y="669"/>
      <point x="179" y="125" type="curve" smooth="yes"/>
      <point x="169" y="93"/>
      <point x="134" y="65"/>
      <point x="81" y="53" type="curve" smooth="yes"/>
      <point x="36" y="44" type="line" smooth="yes"/>
      <point x="-9" y="36"/>
      <point x="-29" y="27"/>
      <point x="-29" y="19" type="curve" smooth="yes"/>
      <point x="-29" y="7"/>
      <point x="-19" y="0"/>
      <point x="5" y="0" type="curve" smooth="yes"/>
      <point x="431" y="0" type="line" smooth="yes"/>
      <point x="759" y="0"/>
      <point x="945" y="138"/>
      <point x="978" y="343" type="curve" smooth="yes"/>
      <point x="1008" y="535"/>
      <point x="890" y="664"/>
      <point x="628" y="664" type="curve"/>
      <point x="627" y="644" type="line"/>
      <point x="851" y="644"/>
      <point x="1042" y="774"/>
      <point x="1084" y="1014" type="curve" smooth="yes"/>
      <point x="1124" y="1248"/>
      <point x="988" y="1400"/>
      <point x="696" y="1400" type="curve" smooth="yes"/>
    </contour>
  </outline>
</glyph>
<glyph name="C" format="2">
  <advance width="1064"/>
  <unicode hex="0043"/>
  <outline>
    <contour>
      <point x="1029" y="370" type="curve" smooth="yes"/>
      <point x="1013" y="379"/>
      <point x="999" y="367"/>
      <point x="988" y="344" type="curve" smooth="yes"/>
      <point x="868" y="127"/>
      <point x="713" y="21"/>
      <point x="504" y="21" type="curve" smooth="yes"/>
      <point x="261" y="21"/>
      <point x="114" y="257"/>
      <point x="168" y="614" type="curve" smooth="yes"/>
      <point x="224" y="999"/>
      <point x="495" y="1381"/>
      <point x="846" y="1381" type="curve" smooth="yes"/>
      <point x="1011" y="1381"/>
      <point x="1099" y="1312"/>
      <point x="1136" y="1182" type="curve" smooth="yes"/>
      <point x="1159" y="1100" type="line" smooth="yes"/>
      <point x="1162" y="1091"/>
      <point x="1169" y="1082"/>
      <point x="1180" y="1082" type="curve" smooth="yes"/>
      <point x="1196" y="1082"/>
      <point x="1211" y="1098"/>
      <point x="1207" y="1115" type="curve" smooth="yes"/>
      <point x="1164" y="1390" type="line" smooth="yes"/>
      <point x="1159" y="1415"/>
      <point x="1154" y="1430"/>
      <point x="1137" y="1430" type="curve" smooth="yes"/>
      <point x="1106" y="1430"/>
      <point x="1096" y="1386"/>
      <point x="1073" y="1386" type="curve" smooth="yes"/>
      <point x="1055" y="1386"/>
      <point x="996" y="1430"/>
      <point x="874" y="1430" type="curve" smooth="yes"/>
      <point x="473" y="1430"/>
      <point x="166" y="1029"/>
      <point x="109" y="623" type="curve" smooth="yes"/>
      <point x="53" y="225"/>
      <point x="207" y="-30"/>
      <point x="497" y="-30" type="curve" smooth="yes"/>
      <point x="737" y="-30"/>
      <point x="919" y="103"/>
      <point x="1025" y="311" type="curve" smooth="yes"/>
      <point x="1036" y="334"/>
      <point x="1042" y="362"/>
    </contour>
  </outline>
</glyph>
<glyph name="D" format="2">
  <advance width="1245"/>
  <unicode hex="0044"/>
  <outline>
    <contour>
      <point x="-29" y="20" type="curve" smooth="yes"/>
      <point x="-29" y="8"/>
      <point x="-23" y="0"/>
      <point x="-8" y="0" type="curve" smooth="yes"/>
      <point x="423" y="0" type="line" smooth="yes"/>
      <point x="861" y="0"/>
      <point x="1194" y="239"/>
      <point x="1271" y="701" type="curve" smooth="yes"/>
      <point x="1335" y="1091"/>
      <point x="1087" y="1400"/>
      <point x="777" y="1400" type="curve" smooth="yes"/>
      <point x="387" y="1400" type="line" smooth="yes"/>
      <point x="359" y="1400"/>
      <point x="349" y="1394"/>
      <point x="349" y="1381" type="curve" smooth="yes"/>
      <point x="349" y="1364"/>
      <point x="355" y="1358"/>
      <point x="390" y="1352" type="curve" smooth="yes"/>
      <point x="437" y="1342" type="line" smooth="yes"/>
      <point x="479" y="1333"/>
      <point x="490" y="1307"/>
      <point x="478" y="1252" type="curve" smooth="yes"/>
      <point x="450" y="1134"/>
      <point x="189" y="202"/>
      <point x="166" y="146" type="curve" smooth="yes"/>
      <point x="144" y="87"/>
      <point x="107" y="58"/>
      <point x="74" y="54" type="curve" smooth="yes"/>
      <point x="15" y="47" type="line" smooth="yes"/>
      <point x="-18" y="42"/>
      <point x="-28" y="37"/>
    </contour>
    <contour>
      <point x="435" y="56" type="curve" smooth="yes"/>
      <point x="262" y="56" type="line" smooth="yes"/>
      <point x="226" y="56"/>
      <point x="218" y="70"/>
      <point x="221" y="99" type="curve" smooth="yes"/>
      <point x="230" y="171"/>
      <point x="527" y="1210"/>
      <point x="557" y="1308" type="curve" smooth="yes"/>
      <point x="565" y="1331"/>
      <point x="586" y="1354"/>
      <point x="619" y="1354" type="curve" smooth="yes"/>
      <point x="763" y="1354" type="line" smooth="yes"/>
      <point x="1028" y="1354"/>
      <point x="1274" y="1092"/>
      <point x="1215" y="704" type="curve" smooth="yes"/>
      <point x="1157" y="315"/>
      <point x="853" y="56"/>
    </contour>
  </outline>
</glyph>
<glyph name="E" format="2">
  <advance width="1008"/>
  <unicode hex="0045"/>
  <outline>
    <contour>
      <point x="353" y="708" type="line"/>
      <point x="340" y="663" type="line"/>
      <point x="742" y="663" type="line" smooth="yes"/>
      <point x="793" y="663"/>
      <point x="814" y="647"/>
      <point x="836" y="556" type="curve" smooth="yes"/>
      <point x="842" y="532"/>
      <point x="853" y="523"/>
      <point x="869" y="523" type="curve" smooth="yes"/>
      <point x="880" y="523"/>
      <point x="892" y="536"/>
      <point x="886" y="562" type="curve" smooth="yes"/>
      <point x="833" y="844" type="line" smooth="yes"/>
      <point x="832" y="854"/>
      <point x="826" y="865"/>
      <point x="810" y="865" type="curve" smooth="yes"/>
      <point x="798" y="865"/>
      <point x="787" y="855"/>
      <point x="790" y="836" type="curve" smooth="yes"/>
      <point x="803" y="735"/>
      <point x="781" y="708"/>
      <point x="725" y="708" type="curve" smooth="yes"/>
    </contour>
    <contour>
      <point x="646" y="0" type="line" smooth="yes"/>
      <point x="678" y="0"/>
      <point x="691" y="-30"/>
      <point x="713" y="-30" type="curve" smooth="yes"/>
      <point x="811" y="-30"/>
      <point x="925" y="134"/>
      <point x="928" y="272" type="curve" smooth="yes"/>
      <point x="929" y="285"/>
      <point x="924" y="294"/>
      <point x="915" y="294" type="curve" smooth="yes"/>
      <point x="909" y="294"/>
      <point x="899" y="287"/>
      <point x="896" y="278" type="curve" smooth="yes"/>
      <point x="840" y="106"/>
      <point x="750" y="45"/>
      <point x="622" y="45" type="curve" smooth="yes"/>
      <point x="270" y="45" type="line" smooth="yes"/>
      <point x="229" y="45"/>
      <point x="206" y="78"/>
      <point x="222" y="134" type="curve" smooth="yes"/>
      <point x="243" y="208"/>
      <point x="478" y="1073"/>
      <point x="562" y="1360" type="curve"/>
      <point x="925" y="1360" type="line" smooth="yes"/>
      <point x="984" y="1360"/>
      <point x="1032" y="1330"/>
      <point x="1085" y="1193" type="curve" smooth="yes"/>
      <point x="1094" y="1168"/>
      <point x="1103" y="1152"/>
      <point x="1120" y="1152" type="curve" smooth="yes"/>
      <point x="1135" y="1152"/>
      <point x="1147" y="1167"/>
      <point x="1141" y="1197" type="curve" smooth="yes"/>
      <point x="1094" y="1407" type="line" smooth="yes"/>
      <point x="1090" y="1433"/>
      <point x="1085" y="1442"/>
      <point x="1068" y="1442" type="curve" smooth="yes"/>
      <point x="1042" y="1442"/>
      <point x="1013" y="1400"/>
      <point x="975" y="1400" type="curve" smooth="yes"/>
      <point x="402" y="1400" type="line" smooth="yes"/>
      <point x="384" y="1400"/>
      <point x="372" y="1394"/>
      <point x="372" y="1378" type="curve" smooth="yes"/>
      <point x="372" y="1367"/>
      <point x="382" y="1356"/>
      <point x="402" y="1352" type="curve" smooth="yes"/>
      <point x="459" y="1342" type="line" smooth="yes"/>
      <point x="488" y="1338"/>
      <point x="495" y="1296"/>
      <point x="484" y="1253" type="curve" smooth="yes"/>
      <point x="445" y="1108"/>
      <point x="190" y="213"/>
      <point x="165" y="137" type="curve" smooth="yes"/>
      <point x="150" y="87"/>
      <point x="120" y="70"/>
      <point x="75" y="62" type="curve" smooth="yes"/>
      <point x="3" y="48" type="line" smooth="yes"/>
      <point x="-16" y="44"/>
      <point x="-29" y="38"/>
      <point x="-29" y="23" type="curve" smooth="yes"/>
      <point x="-30" y="11"/>
      <point x="-22" y="0"/>
      <point x="-5" y="0" type="curve" smooth="yes"/>
    </contour>
  </outline>
</glyph>
<glyph name="F" format="2">
  <advance width="928"/>
  <unicode hex="0046"/>
  <outline>
    <contour>
      <point x="354" y="1382" type="curve" smooth="yes"/>
      <point x="350" y="1361"/>
      <point x="366" y="1356"/>
      <point x="398" y="1350" type="curve" smooth="yes"/>
      <point x="433" y="1342" type="line" smooth="yes"/>
      <point x="465" y="1336"/>
      <point x="480" y="1313"/>
      <point x="472" y="1276" type="curve" smooth="yes"/>
      <point x="404" y="991"/>
      <point x="269" y="503"/>
      <point x="165" y="143" type="curve" smooth="yes"/>
      <point x="151" y="95"/>
      <point x="123" y="71"/>
      <point x="78" y="64" type="curve" smooth="yes"/>
      <point x="44" y="58" type="line" smooth="yes"/>
      <point x="-8" y="49"/>
      <point x="-23" y="44"/>
      <point x="-25" y="25" type="curve" smooth="yes"/>
      <point x="-28" y="7"/>
      <point x="-17" y="0"/>
      <point x="3" y="0" type="curve" smooth="yes"/>
      <point x="306" y="0" type="line" smooth="yes"/>
      <point x="357" y="0"/>
      <point x="371" y="13"/>
      <point x="371" y="29" type="curve" smooth="yes"/>
      <point x="372" y="44"/>
      <point x="353" y="52"/>
      <point x="306" y="58" type="curve" smooth="yes"/>
      <point x="269" y="64" type="line" smooth="yes"/>
      <point x="222" y="72"/>
      <point x="212" y="94"/>
      <point x="221" y="132" type="curve" smooth="yes"/>
      <point x="288" y="397"/>
      <point x="444" y="973"/>
      <point x="553" y="1360" type="curve"/>
      <point x="905" y="1360" type="line" smooth="yes"/>
      <point x="984" y="1360"/>
      <point x="1027" y="1318"/>
      <point x="1048" y="1265" type="curve" smooth="yes"/>
      <point x="1064" y="1223" type="line" smooth="yes"/>
      <point x="1081" y="1178"/>
      <point x="1089" y="1155"/>
      <point x="1114" y="1154" type="curve" smooth="yes"/>
      <point x="1130" y="1154"/>
      <point x="1139" y="1169"/>
      <point x="1132" y="1199" type="curve" smooth="yes"/>
      <point x="1082" y="1418" type="line" smooth="yes"/>
      <point x="1077" y="1435"/>
      <point x="1071" y="1442"/>
      <point x="1058" y="1442" type="curve" smooth="yes"/>
      <point x="1026" y="1442"/>
      <point x="1005" y="1400"/>
      <point x="962" y="1400" type="curve" smooth="yes"/>
      <point x="397" y="1400" type="line" smooth="yes"/>
      <point x="376" y="1400"/>
      <point x="359" y="1398"/>
    </contour>
    <contour>
      <point x="340" y="666" type="line"/>
      <point x="325" y="621" type="line"/>
      <point x="725" y="621" type="line" smooth="yes"/>
      <point x="786" y="621"/>
      <point x="800" y="599"/>
      <point x="818" y="528" type="curve" smooth="yes"/>
      <point x="829" y="490"/>
      <point x="839" y="479"/>
      <point x="855" y="479" type="curve" smooth="yes"/>
      <point x="866" y="479"/>
      <point x="879" y="492"/>
      <point x="874" y="515" type="curve" smooth="yes"/>
      <point x="822" y="793" type="line" smooth="yes"/>
      <point x="820" y="810"/>
      <point x="812" y="823"/>
      <point x="796" y="823" type="curve" smooth="yes"/>
      <point x="780" y="823"/>
      <point x="776" y="807"/>
      <point x="780" y="782" type="curve" smooth="yes"/>
      <point x="793" y="688"/>
      <point x="763" y="666"/>
      <point x="710" y="666" type="curve" smooth="yes"/>
    </contour>
  </outline>
</glyph>
<glyph name="G" format="2">
  <advance width="1118"/>
  <unicode hex="0047"/>
  <outline>
    <contour>
      <point x="867" y="1428" type="curve" smooth="yes"/>
      <point x="519" y="1428"/>
      <point x="204" y="1095"/>
      <point x="112" y="671" type="curve" smooth="yes"/>
      <point x="21" y="240"/>
      <point x="188" y="-34"/>
      <point x="489" y="-34" type="curve" smooth="yes"/>
      <point x="693" y="-34"/>
      <point x="782" y="40"/>
      <point x="812" y="40" type="curve" smooth="yes"/>
      <point x="836" y="40"/>
      <point x="802" y="-34"/>
      <point x="833" y="-34" type="curve" smooth="yes"/>
      <point x="854" y="-34"/>
      <point x="868" y="-25"/>
      <point x="877" y="8" type="curve" smooth="yes"/>
      <point x="1020" y="479" type="line" smooth="yes"/>
      <point x="1027" y="502"/>
      <point x="1047" y="522"/>
      <point x="1086" y="528" type="curve" smooth="yes"/>
      <point x="1122" y="534" type="line" smooth="yes"/>
      <point x="1153" y="538"/>
      <point x="1165" y="550"/>
      <point x="1167" y="562" type="curve" smooth="yes"/>
      <point x="1170" y="583"/>
      <point x="1163" y="588"/>
      <point x="1142" y="588" type="curve" smooth="yes"/>
      <point x="852" y="588" type="line" smooth="yes"/>
      <point x="831" y="588"/>
      <point x="818" y="583"/>
      <point x="817" y="565" type="curve" smooth="yes"/>
      <point x="817" y="548"/>
      <point x="825" y="535"/>
      <point x="847" y="533" type="curve" smooth="yes"/>
      <point x="908" y="528" type="line" smooth="yes"/>
      <point x="955" y="523"/>
      <point x="968" y="494"/>
      <point x="950" y="433" type="curve" smooth="yes"/>
      <point x="888" y="217" type="line" smooth="yes"/>
      <point x="847" y="81"/>
      <point x="713" y="17"/>
      <point x="516" y="17" type="curve" smooth="yes"/>
      <point x="254" y="17"/>
      <point x="83" y="249"/>
      <point x="173" y="663" type="curve" smooth="yes"/>
      <point x="264" y="1085"/>
      <point x="542" y="1380"/>
      <point x="865" y="1380" type="curve" smooth="yes"/>
      <point x="1002" y="1380"/>
      <point x="1105" y="1332"/>
      <point x="1164" y="1166" type="curve" smooth="yes"/>
      <point x="1185" y="1109" type="line" smooth="yes"/>
      <point x="1187" y="1101"/>
      <point x="1198" y="1083"/>
      <point x="1210" y="1083" type="curve" smooth="yes"/>
      <point x="1223" y="1083"/>
      <point x="1238" y="1092"/>
      <point x="1235" y="1114" type="curve" smooth="yes"/>
      <point x="1196" y="1379" type="line" smooth="yes"/>
      <point x="1191" y="1413"/>
      <point x="1180" y="1426"/>
      <point x="1160" y="1426" type="curve" smooth="yes"/>
      <point x="1139" y="1426"/>
      <point x="1125" y="1385"/>
      <point x="1095" y="1385" type="curve" smooth="yes"/>
      <point x="1072" y="1385"/>
      <point x="972" y="1428"/>
    </contour>
  </outline>
</glyph>
<glyph name="H" format="2">
  <advance width="1307"/>
  <unicode hex="0048"/>
  <outline>
    <contour>
      <point x="228" y="155" type="curve" smooth="yes"/>
      <point x="243" y="232"/>
      <point x="478" y="1105"/>
      <point x="530" y="1269" type="curve" smooth="yes"/>
      <point x="541" y="1310"/>
      <point x="568" y="1333"/>
      <point x="620" y="1343" type="curve" smooth="yes"/>
      <point x="679" y="1354" type="line" smooth="yes"/>
      <point x="714" y="1362"/>
      <point x="725" y="1369"/>
      <point x="725" y="1385" type="curve" smooth="yes"/>
      <point x="725" y="1398"/>
      <point x="718" y="1400"/>
      <point x="697" y="1400" type="curve" smooth="yes"/>
      <point x="393" y="1400" type="line" smooth="yes"/>
      <point x="355" y="1400"/>
      <point x="336" y="1398"/>
      <point x="335" y="1384" type="curve" smooth="yes"/>
      <point x="335" y="1365"/>
      <point x="344" y="1357"/>
      <point x="373" y="1352" type="curve" smooth="yes"/>
      <point x="423" y="1342" type="line" smooth="yes"/>
      <point x="470" y="1333"/>
      <point x="475" y="1304"/>
      <point x="463" y="1245" type="curve" smooth="yes"/>
      <point x="435" y="1106"/>
      <point x="196" y="237"/>
      <point x="168" y="154" type="curve" smooth="yes"/>
      <point x="150" y="100"/>
      <point x="117" y="61"/>
      <point x="63" y="53" type="curve" smooth="yes"/>
      <point x="8" y="46" type="line" smooth="yes"/>
      <point x="-21" y="42"/>
      <point x="-32" y="31"/>
      <point x="-30" y="19" type="curve" smooth="yes"/>
      <point x="-30" y="5"/>
      <point x="-24" y="0"/>
      <point x="0" y="0" type="curve" smooth="yes"/>
      <point x="311" y="0" type="line" smooth="yes"/>
      <point x="329" y="0"/>
      <point x="349" y="4"/>
      <point x="349" y="16" type="curve" smooth="yes"/>
      <point x="350" y="33"/>
      <point x="342" y="43"/>
      <point x="314" y="48" type="curve" smooth="yes"/>
      <point x="271" y="56" type="line" smooth="yes"/>
      <point x="222" y="63"/>
      <point x="216" y="92"/>
    </contour>
    <contour>
      <point x="340" y="670" type="line"/>
      <point x="326" y="620" type="line"/>
      <point x="1108" y="620" type="line"/>
      <point x="1124" y="670" type="line"/>
    </contour>
    <contour>
      <point x="1013" y="155" type="curve" smooth="yes"/>
      <point x="1028" y="232"/>
      <point x="1263" y="1105"/>
      <point x="1315" y="1269" type="curve" smooth="yes"/>
      <point x="1326" y="1310"/>
      <point x="1354" y="1333"/>
      <point x="1405" y="1343" type="curve" smooth="yes"/>
      <point x="1464" y="1354" type="line" smooth="yes"/>
      <point x="1499" y="1362"/>
      <point x="1510" y="1369"/>
      <point x="1510" y="1385" type="curve" smooth="yes"/>
      <point x="1511" y="1398"/>
      <point x="1504" y="1400"/>
      <point x="1482" y="1400" type="curve" smooth="yes"/>
      <point x="1178" y="1400" type="line" smooth="yes"/>
      <point x="1140" y="1400"/>
      <point x="1121" y="1398"/>
      <point x="1120" y="1384" type="curve" smooth="yes"/>
      <point x="1120" y="1365"/>
      <point x="1129" y="1357"/>
      <point x="1158" y="1352" type="curve" smooth="yes"/>
      <point x="1208" y="1342" type="line" smooth="yes"/>
      <point x="1254" y="1333"/>
      <point x="1260" y="1304"/>
      <point x="1248" y="1245" type="curve" smooth="yes"/>
      <point x="1220" y="1106"/>
      <point x="981" y="237"/>
      <point x="953" y="154" type="curve" smooth="yes"/>
      <point x="935" y="100"/>
      <point x="902" y="61"/>
      <point x="848" y="53" type="curve" smooth="yes"/>
      <point x="793" y="46" type="line" smooth="yes"/>
      <point x="763" y="42"/>
      <point x="753" y="31"/>
      <point x="755" y="19" type="curve" smooth="yes"/>
      <point x="754" y="5"/>
      <point x="762" y="0"/>
      <point x="785" y="0" type="curve" smooth="yes"/>
      <point x="1096" y="0" type="line" smooth="yes"/>
      <point x="1115" y="0"/>
      <point x="1135" y="4"/>
      <point x="1134" y="16" type="curve" smooth="yes"/>
      <point x="1135" y="33"/>
      <point x="1126" y="43"/>
      <point x="1099" y="48" type="curve" smooth="yes"/>
      <point x="1056" y="56" type="line" smooth="yes"/>
      <point x="1007" y="63"/>
      <point x="1001" y="92"/>
    </contour>
  </outline>
</glyph>
<glyph name="I" format="2">
  <advance width="503"/>
  <unicode hex="0049"/>
  <outline>
    <contour>
      <point x="228" y="155" type="curve" smooth="yes"/>
      <point x="242" y="232"/>
      <point x="478" y="1106"/>
      <point x="529" y="1269" type="curve" smooth="yes"/>
      <point x="541" y="1310"/>
      <point x="568" y="1333"/>
      <point x="619" y="1343" type="curve" smooth="yes"/>
      <point x="678" y="1354" type="line" smooth="yes"/>
      <point x="714" y="1362"/>
      <point x="725" y="1369"/>
      <point x="724" y="1385" type="curve" smooth="yes"/>
      <point x="725" y="1398"/>
      <point x="718" y="1400"/>
      <point x="697" y="1400" type="curve" smooth="yes"/>
      <point x="393" y="1400" type="line" smooth="yes"/>
      <point x="355" y="1400"/>
      <point x="335" y="1398"/>
      <point x="335" y="1384" type="curve" smooth="yes"/>
      <point x="335" y="1365"/>
      <point x="343" y="1357"/>
      <point x="372" y="1352" type="curve" smooth="yes"/>
      <point x="422" y="1342" type="line" smooth="yes"/>
      <point x="470" y="1333"/>
      <point x="474" y="1304"/>
      <point x="462" y="1245" type="curve" smooth="yes"/>
      <point x="434" y="1105"/>
      <point x="195" y="237"/>
      <point x="168" y="154" type="curve" smooth="yes"/>
      <point x="149" y="100"/>
      <point x="116" y="61"/>
      <point x="62" y="53" type="curve" smooth="yes"/>
      <point x="8" y="46" type="line" smooth="yes"/>
      <point x="-22" y="42"/>
      <point x="-33" y="31"/>
      <point x="-30" y="19" type="curve" smooth="yes"/>
      <point x="-31" y="5"/>
      <point x="-24" y="0"/>
      <point x="-1" y="0" type="curve" smooth="yes"/>
      <point x="311" y="0" type="line" smooth="yes"/>
      <point x="329" y="0"/>
      <point x="349" y="4"/>
      <point x="349" y="16" type="curve" smooth="yes"/>
      <point x="349" y="33"/>
      <point x="341" y="43"/>
      <point x="313" y="48" type="curve" smooth="yes"/>
      <point x="270" y="56" type="line" smooth="yes"/>
      <point x="222" y="63"/>
      <point x="215" y="92"/>
    </contour>
  </outline>
</glyph>
<glyph name="J" format="2">
  <advance width="501"/>
  <unicode hex="004A"/>
  <outline>
    <contour>
      <point x="524" y="1252" type="curve" smooth="yes"/>
      <point x="541" y="1306"/>
      <point x="566" y="1327"/>
      <point x="619" y="1341" type="curve" smooth="yes"/>
      <point x="672" y="1356" type="line" smooth="yes"/>
      <point x="694" y="1362"/>
      <point x="707" y="1369"/>
      <point x="708" y="1385" type="curve" smooth="yes"/>
      <point x="708" y="1396"/>
      <point x="700" y="1400"/>
      <point x="679" y="1400" type="curve" smooth="yes"/>
      <point x="364" y="1400" type="line" smooth="yes"/>
      <point x="330" y="1400"/>
      <point x="319" y="1395"/>
      <point x="318" y="1381" type="curve" smooth="yes"/>
      <point x="317" y="1365"/>
      <point x="327" y="1355"/>
      <point x="353" y="1352" type="curve" smooth="yes"/>
      <point x="417" y="1343" type="line" smooth="yes"/>
      <point x="468" y="1337"/>
      <point x="474" y="1317"/>
      <point x="466" y="1258" type="curve" smooth="yes"/>
      <point x="450" y="1165"/>
      <point x="157" y="148"/>
      <point x="153" y="138" type="curve" smooth="yes"/>
      <point x="124" y="41"/>
      <point x="106" y="-20"/>
      <point x="104" y="-74" type="curve" smooth="yes"/>
      <point x="100" y="-199"/>
      <point x="52" y="-239"/>
      <point x="5" y="-239" type="curve" smooth="yes"/>
      <point x="-32" y="-239"/>
      <point x="-61" y="-201"/>
      <point x="-103" y="-201" type="curve" smooth="yes"/>
      <point x="-142" y="-201"/>
      <point x="-163" y="-225"/>
      <point x="-163" y="-254" type="curve" smooth="yes"/>
      <point x="-166" y="-294"/>
      <point x="-135" y="-325"/>
      <point x="-64" y="-325" type="curve" smooth="yes"/>
      <point x="38" y="-325"/>
      <point x="114" y="-262"/>
      <point x="152" y="-107" type="curve" smooth="yes"/>
      <point x="223" y="181"/>
      <point x="502" y="1188"/>
    </contour>
  </outline>
</glyph>
<glyph name="K" format="2">
  <advance width="1109"/>
  <unicode hex="004B"/>
  <outline>
    <contour>
      <point x="228" y="155" type="curve" smooth="yes"/>
      <point x="244" y="232"/>
      <point x="479" y="1106"/>
      <point x="529" y="1268" type="curve" smooth="yes"/>
      <point x="541" y="1310"/>
      <point x="568" y="1332"/>
      <point x="620" y="1342" type="curve" smooth="yes"/>
      <point x="679" y="1354" type="line" smooth="yes"/>
      <point x="714" y="1361"/>
      <point x="725" y="1369"/>
      <point x="725" y="1385" type="curve" smooth="yes"/>
      <point x="725" y="1397"/>
      <point x="719" y="1400"/>
      <point x="697" y="1400" type="curve" smooth="yes"/>
      <point x="392" y="1400" type="line" smooth="yes"/>
      <point x="355" y="1400"/>
      <point x="334" y="1398"/>
      <point x="334" y="1384" type="curve" smooth="yes"/>
      <point x="334" y="1365"/>
      <point x="343" y="1357"/>
      <point x="372" y="1352" type="curve" smooth="yes"/>
      <point x="422" y="1342" type="line" smooth="yes"/>
      <point x="469" y="1332"/>
      <point x="474" y="1304"/>
      <point x="462" y="1245" type="curve" smooth="yes"/>
      <point x="433" y="1104"/>
      <point x="196" y="237"/>
      <point x="167" y="154" type="curve" smooth="yes"/>
      <point x="148" y="100"/>
      <point x="116" y="61"/>
      <point x="62" y="53" type="curve" smooth="yes"/>
      <point x="7" y="46" type="line" smooth="yes"/>
      <point x="-22" y="42"/>
      <point x="-33" y="31"/>
      <point x="-31" y="19" type="curve" smooth="yes"/>
      <point x="-31" y="5"/>
      <point x="-25" y="0"/>
      <point x="-1" y="0" type="curve" smooth="yes"/>
      <point x="311" y="0" type="line" smooth="yes"/>
      <point x="329" y="0"/>
      <point x="349" y="4"/>
      <point x="349" y="16" type="curve" smooth="yes"/>
      <point x="350" y="33"/>
      <point x="341" y="42"/>
      <point x="314" y="48" type="curve" smooth="yes"/>
      <point x="270" y="55" type="line" smooth="yes"/>
      <point x="222" y="63"/>
      <point x="216" y="92"/>
    </contour>
    <contour>
      <point x="601" y="817" type="line"/>
      <point x="839" y="95" type="line" smooth="yes"/>
      <point x="864" y="15"/>
      <point x="905" y="-18"/>
      <point x="954" y="-18" type="curve" smooth="yes"/>
      <point x="1003" y="-18"/>
      <point x="1033" y="6"/>
      <point x="1052" y="41" type="curve" smooth="yes"/>
      <point x="1060" y="57"/>
      <point x="1057" y="78"/>
      <point x="1047" y="84" type="curve" smooth="yes"/>
      <point x="1035" y="91"/>
      <point x="1021" y="85"/>
      <point x="1013" y="69" type="curve" smooth="yes"/>
      <point x="1002" y="49"/>
      <point x="988" y="40"/>
      <point x="968" y="40" type="curve" smooth="yes"/>
      <point x="938" y="40"/>
      <point x="918" y="55"/>
      <point x="904" y="96" type="curve" smooth="yes"/>
      <point x="652" y="842" type="line"/>
    </contour>
    <contour>
      <point x="275" y="442" type="line"/>
      <point x="1078" y="1243" type="line" smooth="yes"/>
      <point x="1132" y="1299"/>
      <point x="1176" y="1327"/>
      <point x="1207" y="1327" type="curve" smooth="yes"/>
      <point x="1241" y="1327"/>
      <point x="1259" y="1301"/>
      <point x="1303" y="1301" type="curve" smooth="yes"/>
      <point x="1335" y="1301"/>
      <point x="1364" y="1327"/>
      <point x="1365" y="1357" type="curve" smooth="yes"/>
      <point x="1365" y="1387"/>
      <point x="1335" y="1415"/>
      <point x="1291" y="1415" type="curve" smooth="yes"/>
      <point x="1209" y="1415"/>
      <point x="1134" y="1369"/>
      <point x="1031" y="1265" type="curve" smooth="yes"/>
      <point x="274" y="506" type="line"/>
    </contour>
  </outline>
</glyph>
<glyph name="L" format="2">
  <advance width="826"/>
  <unicode hex="004C"/>
  <outline>
    <contour>
      <point x="525" y="0" type="line" smooth="yes"/>
      <point x="562" y="0"/>
      <point x="582" y="-26"/>
      <point x="609" y="-26" type="curve" smooth="yes"/>
      <point x="696" y="-26"/>
      <point x="824" y="135"/>
      <point x="827" y="295" type="curve" smooth="yes"/>
      <point x="827" y="308"/>
      <point x="821" y="315"/>
      <point x="810" y="315" type="curve" smooth="yes"/>
      <point x="792" y="315"/>
      <point x="785" y="298"/>
      <point x="782" y="283" type="curve" smooth="yes"/>
      <point x="739" y="104"/>
      <point x="660" y="49"/>
      <point x="531" y="49" type="curve" smooth="yes"/>
      <point x="263" y="49" type="line" smooth="yes"/>
      <point x="228" y="49"/>
      <point x="207" y="68"/>
      <point x="219" y="120" type="curve" smooth="yes"/>
      <point x="252" y="276"/>
      <point x="491" y="1125"/>
      <point x="528" y="1248" type="curve" smooth="yes"/>
      <point x="544" y="1303"/>
      <point x="567" y="1336"/>
      <point x="611" y="1341" type="curve" smooth="yes"/>
      <point x="684" y="1351" type="line" smooth="yes"/>
      <point x="708" y="1354"/>
      <point x="726" y="1363"/>
      <point x="726" y="1379" type="curve" smooth="yes"/>
      <point x="727" y="1393"/>
      <point x="714" y="1400"/>
      <point x="696" y="1400" type="curve" smooth="yes"/>
      <point x="371" y="1400" type="line" smooth="yes"/>
      <point x="350" y="1400"/>
      <point x="336" y="1395"/>
      <point x="335" y="1384" type="curve" smooth="yes"/>
      <point x="335" y="1364"/>
      <point x="347" y="1359"/>
      <point x="373" y="1353" type="curve" smooth="yes"/>
      <point x="439" y="1337" type="line" smooth="yes"/>
      <point x="465" y="1331"/>
      <point x="476" y="1305"/>
      <point x="469" y="1274" type="curve" smooth="yes"/>
      <point x="435" y="1122"/>
      <point x="234" y="377"/>
      <point x="177" y="174" type="curve" smooth="yes"/>
      <point x="156" y="105"/>
      <point x="126" y="67"/>
      <point x="72" y="57" type="curve" smooth="yes"/>
      <point x="22" y="49" type="line" smooth="yes"/>
      <point x="-5" y="44"/>
      <point x="-22" y="39"/>
      <point x="-24" y="23" type="curve" smooth="yes"/>
      <point x="-29" y="9"/>
      <point x="-16" y="0"/>
      <point x="6" y="0" type="curve" smooth="yes"/>
    </contour>
  </outline>
</glyph>
<glyph name="M" format="2">
  <advance width="1351"/>
  <unicode hex="004D"/>
  <outline>
    <contour>
      <point x="690" y="284" type="line"/>
      <point x="631" y="618"/>
      <point x="594" y="958"/>
      <point x="544" y="1310" type="curve" smooth="yes"/>
      <point x="539" y="1369"/>
      <point x="518" y="1400"/>
      <point x="489" y="1400" type="curve" smooth="yes"/>
      <point x="387" y="1400" type="line" smooth="yes"/>
      <point x="369" y="1400"/>
      <point x="358" y="1395"/>
      <point x="353" y="1384" type="curve" smooth="yes"/>
      <point x="349" y="1365"/>
      <point x="359" y="1356"/>
      <point x="375" y="1352" type="curve" smooth="yes"/>
      <point x="448" y="1332" type="line" smooth="yes"/>
      <point x="485" y="1322"/>
      <point x="495" y="1269"/>
      <point x="478" y="1214" type="curve" smooth="yes"/>
      <point x="146" y="156" type="line" smooth="yes"/>
      <point x="135" y="119"/>
      <point x="112" y="88"/>
      <point x="58" y="76" type="curve" smooth="yes"/>
      <point x="-3" y="62" type="line" smooth="yes"/>
      <point x="-37" y="55"/>
      <point x="-47" y="50"/>
      <point x="-52" y="29" type="curve" smooth="yes"/>
      <point x="-56" y="13"/>
      <point x="-44" y="0"/>
      <point x="-20" y="0" type="curve" smooth="yes"/>
      <point x="272" y="0" type="line" smooth="yes"/>
      <point x="298" y="0"/>
      <point x="316" y="6"/>
      <point x="322" y="24" type="curve" smooth="yes"/>
      <point x="326" y="37"/>
      <point x="316" y="47"/>
      <point x="300" y="52" type="curve" smooth="yes"/>
      <point x="221" y="76" type="line" smooth="yes"/>
      <point x="188" y="86"/>
      <point x="183" y="114"/>
      <point x="196" y="156" type="curve" smooth="yes"/>
      <point x="547" y="1266" type="line"/>
      <point x="492" y="1256" type="line"/>
      <point x="545" y="967"/>
      <point x="580" y="629"/>
      <point x="639" y="230" type="curve" smooth="yes"/>
      <point x="642" y="218"/>
      <point x="646" y="199"/>
      <point x="661" y="199" type="curve" smooth="yes"/>
      <point x="676" y="199"/>
      <point x="689" y="213"/>
      <point x="713" y="254" type="curve" smooth="yes"/>
      <point x="1340" y="1256" type="line"/>
      <point x="1310" y="1275" type="line"/>
      <point x="1268" y="1016"/>
      <point x="1121" y="299"/>
      <point x="1087" y="140" type="curve" smooth="yes"/>
      <point x="1079" y="95"/>
      <point x="1044" y="73"/>
      <point x="1005" y="64" type="curve" smooth="yes"/>
      <point x="939" y="48" type="line" smooth="yes"/>
      <point x="923" y="44"/>
      <point x="909" y="44"/>
      <point x="905" y="27" type="curve" smooth="yes"/>
      <point x="903" y="13"/>
      <point x="908" y="0"/>
      <point x="931" y="0" type="curve" smooth="yes"/>
      <point x="1233" y="0" type="line" smooth="yes"/>
      <point x="1253" y="0"/>
      <point x="1263" y="2"/>
      <point x="1268" y="18" type="curve" smooth="yes"/>
      <point x="1272" y="37"/>
      <point x="1261" y="43"/>
      <point x="1243" y="48" type="curve" smooth="yes"/>
      <point x="1184" y="66" type="line" smooth="yes"/>
      <point x="1146" y="78"/>
      <point x="1135" y="97"/>
      <point x="1143" y="143" type="curve" smooth="yes"/>
      <point x="1171" y="304"/>
      <point x="1314" y="1007"/>
      <point x="1360" y="1259" type="curve" smooth="yes"/>
      <point x="1368" y="1307"/>
      <point x="1397" y="1338"/>
      <point x="1435" y="1343" type="curve" smooth="yes"/>
      <point x="1478" y="1348" type="line" smooth="yes"/>
      <point x="1500" y="1350"/>
      <point x="1516" y="1352"/>
      <point x="1521" y="1379" type="curve" smooth="yes"/>
      <point x="1523" y="1391"/>
      <point x="1518" y="1400"/>
      <point x="1496" y="1400" type="curve" smooth="yes"/>
      <point x="1418" y="1400" type="line" smooth="yes"/>
      <point x="1394" y="1400"/>
      <point x="1363" y="1381"/>
      <point x="1341" y="1343" type="curve" smooth="yes"/>
      <point x="692" y="290" type="line"/>
    </contour>
  </outline>
</glyph>
<glyph name="N" format="2">
  <advance width="1197"/>
  <unicode hex="004E"/>
  <outline>
    <contour>
      <point x="233" y="171" type="line" smooth="yes"/>
      <point x="216" y="114"/>
      <point x="242" y="73"/>
      <point x="302" y="60" type="curve" smooth="yes"/>
      <point x="339" y="52" type="line" smooth="yes"/>
      <point x="359" y="49"/>
      <point x="368" y="36"/>
      <point x="367" y="21" type="curve" smooth="yes"/>
      <point x="367" y="5"/>
      <point x="355" y="0"/>
      <point x="337" y="0" type="curve" smooth="yes"/>
      <point x="-2" y="0" type="line" smooth="yes"/>
      <point x="-21" y="0"/>
      <point x="-32" y="9"/>
      <point x="-33" y="25" type="curve" smooth="yes"/>
      <point x="-32" y="36"/>
      <point x="-20" y="49"/>
      <point x="4" y="52" type="curve" smooth="yes"/>
      <point x="48" y="59" type="line" smooth="yes"/>
      <point x="111" y="71"/>
      <point x="162" y="112"/>
      <point x="177" y="168" type="curve" smooth="yes"/>
      <point x="443" y="1087" type="line" smooth="yes"/>
      <point x="456" y="1129"/>
      <point x="451" y="1181"/>
      <point x="435" y="1215" type="curve" smooth="yes"/>
      <point x="368" y="1346" type="line" smooth="yes"/>
      <point x="354" y="1374"/>
      <point x="364" y="1400"/>
      <point x="385" y="1400" type="curve" smooth="yes"/>
      <point x="412" y="1400" type="line" smooth="yes"/>
      <point x="434" y="1400"/>
      <point x="439" y="1380"/>
      <point x="457" y="1336" type="curve" smooth="yes"/>
      <point x="511" y="1205"/>
      <point x="847" y="376"/>
      <point x="934" y="171" type="curve"/>
      <point x="896" y="160" type="line"/>
      <point x="1150" y="1123" type="line" smooth="yes"/>
      <point x="1202" y="1319"/>
      <point x="1291" y="1418"/>
      <point x="1376" y="1418" type="curve" smooth="yes"/>
      <point x="1403" y="1418"/>
      <point x="1415" y="1400"/>
      <point x="1414" y="1380" type="curve" smooth="yes"/>
      <point x="1413" y="1347"/>
      <point x="1392" y="1332"/>
      <point x="1352" y="1320" type="curve" smooth="yes"/>
      <point x="1281" y="1297"/>
      <point x="1226" y="1227"/>
      <point x="1194" y="1110" type="curve" smooth="yes"/>
      <point x="965" y="228" type="line" smooth="yes"/>
      <point x="957" y="199"/>
      <point x="955" y="180"/>
      <point x="961" y="152" type="curve" smooth="yes"/>
      <point x="990" y="59" type="line" smooth="yes"/>
      <point x="1002" y="17"/>
      <point x="987" y="0"/>
      <point x="955" y="0" type="curve" smooth="yes"/>
      <point x="927" y="0" type="line" smooth="yes"/>
      <point x="899" y="0"/>
      <point x="882" y="29"/>
      <point x="883" y="69" type="curve" smooth="yes"/>
      <point x="885" y="105"/>
      <point x="882" y="125"/>
      <point x="865" y="170" type="curve" smooth="yes"/>
      <point x="802" y="336"/>
      <point x="578" y="899"/>
      <point x="481" y="1132" type="curve"/>
      <point x="516" y="1148" type="line"/>
    </contour>
  </outline>
</glyph>
<glyph name="O" format="2">
  <advance width="1328"/>
  <unicode hex="004F"/>
  <outline>
    <contour>
      <point x="941" y="1426" type="curve" smooth="yes"/>
      <point x="637" y="1456"/>
      <point x="291" y="1188"/>
      <point x="168" y="796" type="curve" smooth="yes"/>
      <point x="26" y="342"/>
      <point x="207" y="1"/>
      <point x="507" y="-28" type="curve" smooth="yes"/>
      <point x="870" y="-63"/>
      <point x="1192" y="197"/>
      <point x="1311" y="652" type="curve" smooth="yes"/>
      <point x="1423" y="1084"/>
      <point x="1234" y="1397"/>
    </contour>
    <contour>
      <point x="539" y="25" type="curve" smooth="yes"/>
      <point x="268" y="50"/>
      <point x="95" y="301"/>
      <point x="223" y="781" type="curve" smooth="yes"/>
      <point x="320" y="1148"/>
      <point x="637" y="1399"/>
      <point x="915" y="1372" type="curve" smooth="yes"/>
      <point x="1175" y="1346"/>
      <point x="1372" y="1080"/>
      <point x="1255" y="666" type="curve" smooth="yes"/>
      <point x="1127" y="211"/>
      <point x="828" y="0"/>
    </contour>
  </outline>
</glyph>
<glyph name="P" format="2">
  <advance width="1031"/>
  <unicode hex="0050"/>
  <outline>
    <contour>
      <point x="1119" y="876" type="curve" smooth="yes"/>
      <point x="1171" y="1140"/>
      <point x="1006" y="1400"/>
      <point x="693" y="1400" type="curve" smooth="yes"/>
      <point x="380" y="1400" type="line" smooth="yes"/>
      <point x="355" y="1400"/>
      <point x="341" y="1396"/>
      <point x="341" y="1380" type="curve" smooth="yes"/>
      <point x="341" y="1363"/>
      <point x="352" y="1355"/>
      <point x="372" y="1352" type="curve" smooth="yes"/>
      <point x="431" y="1340" type="line" smooth="yes"/>
      <point x="462" y="1334"/>
      <point x="475" y="1303"/>
      <point x="468" y="1267" type="curve" smooth="yes"/>
      <point x="428" y="1081"/>
      <point x="221" y="321"/>
      <point x="167" y="150" type="curve" smooth="yes"/>
      <point x="146" y="83"/>
      <point x="116" y="57"/>
      <point x="57" y="51" type="curve" smooth="yes"/>
      <point x="19" y="48" type="line" smooth="yes"/>
      <point x="-13" y="45"/>
      <point x="-28" y="36"/>
      <point x="-27" y="20" type="curve" smooth="yes"/>
      <point x="-28" y="5"/>
      <point x="-17" y="0"/>
      <point x="-2" y="0" type="curve" smooth="yes"/>
      <point x="322" y="0" type="line" smooth="yes"/>
      <point x="339" y="0"/>
      <point x="352" y="11"/>
      <point x="352" y="22" type="curve" smooth="yes"/>
      <point x="352" y="33"/>
      <point x="342" y="43"/>
      <point x="316" y="48" type="curve" smooth="yes"/>
      <point x="266" y="58" type="line" smooth="yes"/>
      <point x="234" y="64"/>
      <point x="218" y="94"/>
      <point x="232" y="160" type="curve" smooth="yes"/>
      <point x="265" y="308"/>
      <point x="512" y="1203"/>
      <point x="525" y="1253" type="curve" smooth="yes"/>
      <point x="548" y="1329"/>
      <point x="589" y="1357"/>
      <point x="675" y="1357" type="curve" smooth="yes"/>
      <point x="958" y="1357"/>
      <point x="1098" y="1155"/>
      <point x="1056" y="887" type="curve" smooth="yes"/>
      <point x="1016" y="635"/>
      <point x="855" y="518"/>
      <point x="618" y="518" type="curve" smooth="yes"/>
      <point x="516" y="518"/>
      <point x="406" y="555"/>
      <point x="340" y="605" type="curve"/>
      <point x="311" y="559" type="line"/>
      <point x="388" y="512"/>
      <point x="472" y="469"/>
      <point x="631" y="469" type="curve" smooth="yes"/>
      <point x="886" y="469"/>
      <point x="1070" y="626"/>
    </contour>
  </outline>
</glyph>
<glyph name="Q" format="2">
  <advance width="1279"/>
  <unicode hex="0051"/>
  <outline>
    <contour>
      <point x="597" y="370" type="curve" smooth="yes"/>
      <point x="479" y="-53"/>
      <point x="592" y="-308"/>
      <point x="819" y="-333" type="curve" smooth="yes"/>
      <point x="913" y="-344"/>
      <point x="952" y="-332"/>
      <point x="969" y="-300" type="curve" smooth="yes"/>
      <point x="1007" y="-233" type="line" smooth="yes"/>
      <point x="1015" y="-218"/>
      <point x="1006" y="-209"/>
      <point x="998" y="-208" type="curve" smooth="yes"/>
      <point x="982" y="-207"/>
      <point x="950" y="-269"/>
      <point x="807" y="-242" type="curve" smooth="yes"/>
      <point x="628" y="-208"/>
      <point x="541" y="-30"/>
      <point x="644" y="362" type="curve" smooth="yes"/>
      <point x="650" y="390"/>
      <point x="651" y="411"/>
      <point x="633" y="414" type="curve" smooth="yes"/>
      <point x="611" y="418"/>
      <point x="603" y="390"/>
    </contour>
    <contour>
      <point x="934" y="1430" type="curve" smooth="yes"/>
      <point x="595" y="1430"/>
      <point x="299" y="1148"/>
      <point x="180" y="768" type="curve" smooth="yes"/>
      <point x="28" y="283"/>
      <point x="214" y="-30"/>
      <point x="524" y="-30" type="curve" smooth="yes"/>
      <point x="844" y="-30"/>
      <point x="1151" y="206"/>
      <point x="1278" y="675" type="curve" smooth="yes"/>
      <point x="1392" y="1099"/>
      <point x="1224" y="1430"/>
    </contour>
    <contour>
      <point x="550" y="26" type="curve" smooth="yes"/>
      <point x="251" y="26"/>
      <point x="96" y="259"/>
      <point x="235" y="753" type="curve" smooth="yes"/>
      <point x="339" y="1131"/>
      <point x="620" y="1373"/>
      <point x="907" y="1374" type="curve" smooth="yes"/>
      <point x="1176" y="1374"/>
      <point x="1341" y="1094"/>
      <point x="1222" y="689" type="curve" smooth="yes"/>
      <point x="1083" y="214"/>
      <point x="799" y="27"/>
    </contour>
  </outline>
</glyph>
<glyph name="R" format="2">
  <advance width="1080"/>
  <unicode hex="0052"/>
  <outline>
    <contour>
      <point x="324" y="612" type="line"/>
      <point x="392" y="566"/>
      <point x="490" y="533"/>
      <point x="599" y="536" type="curve" smooth="yes"/>
      <point x="857" y="542"/>
      <point x="1043" y="680"/>
      <point x="1090" y="910" type="curve" smooth="yes"/>
      <point x="1149" y="1205"/>
      <point x="977" y="1400"/>
      <point x="726" y="1400" type="curve" smooth="yes"/>
      <point x="371" y="1400" type="line" smooth="yes"/>
      <point x="350" y="1400"/>
      <point x="338" y="1394"/>
      <point x="337" y="1380" type="curve" smooth="yes"/>
      <point x="337" y="1367"/>
      <point x="341" y="1357"/>
      <point x="370" y="1352" type="curve" smooth="yes"/>
      <point x="423" y="1342" type="line" smooth="yes"/>
      <point x="464" y="1335"/>
      <point x="473" y="1311"/>
      <point x="465" y="1264" type="curve" smooth="yes"/>
      <point x="443" y="1142"/>
      <point x="203" y="262"/>
      <point x="166" y="150" type="curve" smooth="yes"/>
      <point x="144" y="83"/>
      <point x="106" y="57"/>
      <point x="54" y="51" type="curve" smooth="yes"/>
      <point x="14" y="48" type="line" smooth="yes"/>
      <point x="-20" y="44"/>
      <point x="-30" y="35"/>
      <point x="-30" y="19" type="curve" smooth="yes"/>
      <point x="-31" y="7"/>
      <point x="-24" y="0"/>
      <point x="-9" y="0" type="curve" smooth="yes"/>
      <point x="314" y="0" type="line" smooth="yes"/>
      <point x="334" y="0"/>
      <point x="350" y="7"/>
      <point x="350" y="20" type="curve" smooth="yes"/>
      <point x="351" y="35"/>
      <point x="341" y="43"/>
      <point x="315" y="48" type="curve" smooth="yes"/>
      <point x="262" y="57" type="line" smooth="yes"/>
      <point x="233" y="63"/>
      <point x="215" y="94"/>
      <point x="227" y="145" type="curve" smooth="yes"/>
      <point x="251" y="253"/>
      <point x="493" y="1131"/>
      <point x="524" y="1254" type="curve" smooth="yes"/>
      <point x="544" y="1326"/>
      <point x="576" y="1356"/>
      <point x="701" y="1356" type="curve" smooth="yes"/>
      <point x="937" y="1356"/>
      <point x="1094" y="1190"/>
      <point x="1030" y="911" type="curve" smooth="yes"/>
      <point x="982" y="703"/>
      <point x="824" y="587"/>
      <point x="582" y="587" type="curve" smooth="yes"/>
      <point x="481" y="587"/>
      <point x="397" y="626"/>
      <point x="349" y="658" type="curve"/>
    </contour>
    <contour>
      <point x="629" y="560" type="line"/>
      <point x="734" y="158" type="line" smooth="yes"/>
      <point x="770" y="15"/>
      <point x="822" y="-18"/>
      <point x="875" y="-18" type="curve" smooth="yes"/>
      <point x="929" y="-18"/>
      <point x="962" y="6"/>
      <point x="983" y="44" type="curve" smooth="yes"/>
      <point x="991" y="60"/>
      <point x="987" y="81"/>
      <point x="977" y="87" type="curve" smooth="yes"/>
      <point x="966" y="94"/>
      <point x="952" y="88"/>
      <point x="944" y="72" type="curve" smooth="yes"/>
      <point x="931" y="48"/>
      <point x="912" y="40"/>
      <point x="887" y="40" type="curve" smooth="yes"/>
      <point x="854" y="40"/>
      <point x="826" y="55"/>
      <point x="796" y="161" type="curve" smooth="yes"/>
      <point x="684" y="565" type="line"/>
    </contour>
  </outline>
</glyph>
<glyph name="S" format="2">
  <advance width="897"/>
  <unicode hex="0053"/>
  <outline>
    <contour>
      <point x="392" y="-20" type="curve" smooth="yes"/>
      <point x="598" y="-20"/>
      <point x="752" y="110"/>
      <point x="778" y="306" type="curve" smooth="yes"/>
      <point x="800" y="468"/>
      <point x="751" y="574"/>
      <point x="567" y="713" type="curve" smooth="yes"/>
      <point x="398" y="840"/>
      <point x="336" y="942"/>
      <point x="364" y="1108" type="curve" smooth="yes"/>
      <point x="388" y="1249"/>
      <point x="519" y="1369"/>
      <point x="727" y="1369" type="curve" smooth="yes"/>
      <point x="857" y="1369"/>
      <point x="940" y="1310"/>
      <point x="964" y="1198" type="curve" smooth="yes"/>
      <point x="972" y="1159" type="line" smooth="yes"/>
      <point x="975" y="1141"/>
      <point x="989" y="1119"/>
      <point x="1016" y="1119" type="curve" smooth="yes"/>
      <point x="1034" y="1119"/>
      <point x="1053" y="1143"/>
      <point x="1053" y="1170" type="curve" smooth="yes"/>
      <point x="1055" y="1296"/>
      <point x="945" y="1419"/>
      <point x="738" y="1419" type="curve" smooth="yes"/>
      <point x="483" y="1419"/>
      <point x="333" y="1252"/>
      <point x="306" y="1079" type="curve" smooth="yes"/>
      <point x="278" y="897"/>
      <point x="357" y="786"/>
      <point x="534" y="656" type="curve" smooth="yes"/>
      <point x="705" y="531"/>
      <point x="744" y="434"/>
      <point x="716" y="290" type="curve" smooth="yes"/>
      <point x="683" y="119"/>
      <point x="559" y="30"/>
      <point x="383" y="30" type="curve" smooth="yes"/>
      <point x="212" y="30"/>
      <point x="94" y="134"/>
      <point x="106" y="307" type="curve" smooth="yes"/>
      <point x="111" y="352" type="line" smooth="yes"/>
      <point x="114" y="376"/>
      <point x="103" y="393"/>
      <point x="90" y="393" type="curve" smooth="yes"/>
      <point x="77" y="393"/>
      <point x="65" y="380"/>
      <point x="61" y="355" type="curve" smooth="yes"/>
      <point x="13" y="23" type="line" smooth="yes"/>
      <point x="9" y="-2"/>
      <point x="18" y="-15"/>
      <point x="37" y="-15" type="curve" smooth="yes"/>
      <point x="56" y="-15"/>
      <point x="77" y="87"/>
      <point x="92" y="87" type="curve" smooth="yes"/>
      <point x="114" y="87"/>
      <point x="155" y="-20"/>
    </contour>
  </outline>
</glyph>
<glyph name="T" format="2">
  <advance width="853"/>
  <unicode hex="0054"/>
  <outline>
    <contour>
      <point x="457" y="1415" type="curve" smooth="yes"/>
      <point x="282" y="1415"/>
      <point x="197" y="1330"/>
      <point x="195" y="1202" type="curve" smooth="yes"/>
      <point x="195" y="1157"/>
      <point x="214" y="1131"/>
      <point x="244" y="1131" type="curve" smooth="yes"/>
      <point x="273" y="1131"/>
      <point x="292" y="1156"/>
      <point x="293" y="1178" type="curve" smooth="yes"/>
      <point x="294" y="1214"/>
      <point x="265" y="1242"/>
      <point x="266" y="1266" type="curve" smooth="yes"/>
      <point x="266" y="1327"/>
      <point x="310" y="1367"/>
      <point x="460" y="1367" type="curve" smooth="yes"/>
      <point x="614" y="1367"/>
      <point x="891" y="1288"/>
      <point x="1014" y="1288" type="curve" smooth="yes"/>
      <point x="1118" y="1288"/>
      <point x="1184" y="1346"/>
      <point x="1185" y="1421" type="curve" smooth="yes"/>
      <point x="1186" y="1463"/>
      <point x="1170" y="1482"/>
      <point x="1146" y="1482" type="curve" smooth="yes"/>
      <point x="1120" y="1482"/>
      <point x="1105" y="1464"/>
      <point x="1098" y="1439" type="curve" smooth="yes"/>
      <point x="1095" y="1429"/>
      <point x="1093" y="1412"/>
      <point x="1083" y="1388" type="curve" smooth="yes"/>
      <point x="1071" y="1362"/>
      <point x="1044" y="1345"/>
      <point x="988" y="1345" type="curve" smooth="yes"/>
      <point x="897" y="1345"/>
      <point x="599" y="1415"/>
    </contour>
    <contour>
      <point x="384" y="104" type="curve" smooth="yes"/>
      <point x="416" y="237"/>
      <point x="675" y="1191"/>
      <point x="727" y="1369" type="curve"/>
      <point x="677" y="1381" type="line"/>
      <point x="625" y="1198"/>
      <point x="374" y="265"/>
      <point x="331" y="123" type="curve" smooth="yes"/>
      <point x="320" y="80"/>
      <point x="298" y="70"/>
      <point x="253" y="62" type="curve" smooth="yes"/>
      <point x="183" y="50" type="line" smooth="yes"/>
      <point x="153" y="45"/>
      <point x="137" y="40"/>
      <point x="134" y="23" type="curve" smooth="yes"/>
      <point x="132" y="11"/>
      <point x="142" y="0"/>
      <point x="163" y="0" type="curve" smooth="yes"/>
      <point x="483" y="0" type="line" smooth="yes"/>
      <point x="509" y="0"/>
      <point x="524" y="5"/>
      <point x="529" y="18" type="curve" smooth="yes"/>
      <point x="536" y="36"/>
      <point x="523" y="43"/>
      <point x="505" y="46" type="curve" smooth="yes"/>
      <point x="428" y="60" type="line" smooth="yes"/>
      <point x="393" y="65"/>
      <point x="379" y="77"/>
    </contour>
  </outline>
</glyph>
<glyph name="U" format="2">
  <advance width="1198"/>
  <unicode hex="0055"/>
  <outline>
    <contour>
      <point x="933" y="391" type="line" smooth="yes"/>
      <point x="860" y="142"/>
      <point x="722" y="25"/>
      <point x="529" y="25" type="curve" smooth="yes"/>
      <point x="352" y="25"/>
      <point x="249" y="124"/>
      <point x="255" y="315" type="curve" smooth="yes"/>
      <point x="256" y="391"/>
      <point x="275" y="487"/>
      <point x="305" y="584" type="curve" smooth="yes"/>
      <point x="513" y="1284" type="line" smooth="yes"/>
      <point x="523" y="1318"/>
      <point x="548" y="1331"/>
      <point x="583" y="1338" type="curve" smooth="yes"/>
      <point x="648" y="1352" type="line" smooth="yes"/>
      <point x="690" y="1362"/>
      <point x="703" y="1368"/>
      <point x="703" y="1383" type="curve" smooth="yes"/>
      <point x="703" y="1393"/>
      <point x="695" y="1400"/>
      <point x="674" y="1400" type="curve" smooth="yes"/>
      <point x="382" y="1400" type="line" smooth="yes"/>
      <point x="348" y="1400"/>
      <point x="332" y="1391"/>
      <point x="331" y="1379" type="curve" smooth="yes"/>
      <point x="331" y="1362"/>
      <point x="340" y="1352"/>
      <point x="371" y="1348" type="curve" smooth="yes"/>
      <point x="422" y="1338" type="line" smooth="yes"/>
      <point x="462" y="1330"/>
      <point x="468" y="1306"/>
      <point x="459" y="1276" type="curve" smooth="yes"/>
      <point x="251" y="584" type="line" smooth="yes"/>
      <point x="220" y="485"/>
      <point x="198" y="385"/>
      <point x="197" y="309" type="curve" smooth="yes"/>
      <point x="191" y="114"/>
      <point x="287" y="-30"/>
      <point x="502" y="-30" type="curve" smooth="yes"/>
      <point x="751" y="-30"/>
      <point x="899" y="115"/>
      <point x="978" y="377" type="curve" smooth="yes"/>
      <point x="1246" y="1269" type="line" smooth="yes"/>
      <point x="1260" y="1315"/>
      <point x="1290" y="1323"/>
      <point x="1331" y="1332" type="curve" smooth="yes"/>
      <point x="1397" y="1349" type="line" smooth="yes"/>
      <point x="1438" y="1358"/>
      <point x="1441" y="1365"/>
      <point x="1440" y="1381" type="curve" smooth="yes"/>
      <point x="1441" y="1391"/>
      <point x="1429" y="1400"/>
      <point x="1410" y="1400" type="curve" smooth="yes"/>
      <point x="1112" y="1400" type="line" smooth="yes"/>
      <point x="1086" y="1400"/>
      <point x="1072" y="1391"/>
      <point x="1072" y="1375" type="curve" smooth="yes"/>
      <point x="1071" y="1360"/>
      <point x="1088" y="1355"/>
      <point x="1114" y="1346" type="curve" smooth="yes"/>
      <point x="1158" y="1332" type="line" smooth="yes"/>
      <point x="1198" y="1319"/>
      <point x="1205" y="1303"/>
      <point x="1194" y="1266" type="curve" smooth="yes"/>
    </contour>
  </outline>
</glyph>
<glyph name="V" format="2">
  <advance width="964"/>
  <unicode hex="0056"/>
  <outline>
    <contour>
      <point x="932" y="1379" type="curve" smooth="yes"/>
      <point x="932" y="1364"/>
      <point x="946" y="1353"/>
      <point x="967" y="1348" type="curve" smooth="yes"/>
      <point x="1031" y="1334" type="line" smooth="yes"/>
      <point x="1067" y="1326"/>
      <point x="1080" y="1273"/>
      <point x="1050" y="1228" type="curve" smooth="yes"/>
      <point x="347" y="111" type="line"/>
      <point x="369" y="116" type="line"/>
      <point x="369" y="291"/>
      <point x="371" y="1107"/>
      <point x="374" y="1264" type="curve" smooth="yes"/>
      <point x="375" y="1305"/>
      <point x="388" y="1333"/>
      <point x="427" y="1338" type="curve" smooth="yes"/>
      <point x="517" y="1352" type="line" smooth="yes"/>
      <point x="536" y="1354"/>
      <point x="547" y="1367"/>
      <point x="546" y="1379" type="curve" smooth="yes"/>
      <point x="546" y="1391"/>
      <point x="539" y="1400"/>
      <point x="526" y="1400" type="curve" smooth="yes"/>
      <point x="222" y="1400" type="line" smooth="yes"/>
      <point x="209" y="1400"/>
      <point x="198" y="1392"/>
      <point x="197" y="1379" type="curve" smooth="yes"/>
      <point x="198" y="1367"/>
      <point x="202" y="1356"/>
      <point x="224" y="1352" type="curve" smooth="yes"/>
      <point x="270" y="1344" type="line" smooth="yes"/>
      <point x="302" y="1339"/>
      <point x="315" y="1307"/>
      <point x="315" y="1259" type="curve" smooth="yes"/>
      <point x="320" y="1110"/>
      <point x="318" y="287"/>
      <point x="314" y="186" type="curve" smooth="yes"/>
      <point x="313" y="144"/>
      <point x="316" y="129"/>
      <point x="300" y="89" type="curve" smooth="yes"/>
      <point x="284" y="46" type="line" smooth="yes"/>
      <point x="274" y="24"/>
      <point x="283" y="0"/>
      <point x="306" y="0" type="curve" smooth="yes"/>
      <point x="326" y="0" type="line" smooth="yes"/>
      <point x="350" y="0"/>
      <point x="367" y="15"/>
      <point x="376" y="45" type="curve" smooth="yes"/>
      <point x="385" y="78" type="line" smooth="yes"/>
      <point x="396" y="110"/>
      <point x="415" y="135"/>
      <point x="431" y="160" type="curve" smooth="yes"/>
      <point x="1112" y="1245" type="line" smooth="yes"/>
      <point x="1148" y="1303"/>
      <point x="1180" y="1338"/>
      <point x="1242" y="1350" type="curve" smooth="yes"/>
      <point x="1280" y="1355" type="line" smooth="yes"/>
      <point x="1303" y="1358"/>
      <point x="1315" y="1374"/>
      <point x="1314" y="1385" type="curve" smooth="yes"/>
      <point x="1315" y="1395"/>
      <point x="1305" y="1400"/>
      <point x="1283" y="1400" type="curve" smooth="yes"/>
      <point x="966" y="1400" type="line" smooth="yes"/>
      <point x="949" y="1400"/>
      <point x="932" y="1391"/>
    </contour>
  </outline>
</glyph>
<glyph name="W" format="2">
  <advance width="1590"/>
  <unicode hex="0057"/>
  <outline>
    <contour>
      <point x="962" y="1070" type="line"/>
      <point x="352" y="108" type="line"/>
      <point x="374" y="114" type="line"/>
      <point x="374" y="300"/>
      <point x="372" y="1083"/>
      <point x="377" y="1256" type="curve" smooth="yes"/>
      <point x="379" y="1318"/>
      <point x="398" y="1333"/>
      <point x="441" y="1339" type="curve" smooth="yes"/>
      <point x="505" y="1349" type="line" smooth="yes"/>
      <point x="536" y="1353"/>
      <point x="549" y="1364"/>
      <point x="550" y="1380" type="curve" smooth="yes"/>
      <point x="551" y="1396"/>
      <point x="542" y="1400"/>
      <point x="527" y="1400" type="curve" smooth="yes"/>
      <point x="226" y="1400" type="line" smooth="yes"/>
      <point x="212" y="1400"/>
      <point x="201" y="1393"/>
      <point x="201" y="1376" type="curve" smooth="yes"/>
      <point x="201" y="1364"/>
      <point x="213" y="1353"/>
      <point x="245" y="1349" type="curve" smooth="yes"/>
      <point x="266" y="1346" type="line" smooth="yes"/>
      <point x="302" y="1342"/>
      <point x="316" y="1316"/>
      <point x="316" y="1264" type="curve" smooth="yes"/>
      <point x="317" y="1116"/>
      <point x="323" y="285"/>
      <point x="317" y="178" type="curve" smooth="yes"/>
      <point x="316" y="137"/>
      <point x="316" y="118"/>
      <point x="304" y="87" type="curve" smooth="yes"/>
      <point x="291" y="57" type="line" smooth="yes"/>
      <point x="277" y="22"/>
      <point x="286" y="0"/>
      <point x="313" y="0" type="curve" smooth="yes"/>
      <point x="334" y="0" type="line" smooth="yes"/>
      <point x="356" y="0"/>
      <point x="375" y="17"/>
      <point x="384" y="48" type="curve" smooth="yes"/>
      <point x="392" y="77" type="line" smooth="yes"/>
      <point x="400" y="105"/>
      <point x="415" y="124"/>
      <point x="444" y="168" type="curve" smooth="yes"/>
      <point x="953" y="980" type="line"/>
    </contour>
    <contour>
      <point x="1529" y="1380" type="curve" smooth="yes"/>
      <point x="1529" y="1364"/>
      <point x="1538" y="1354"/>
      <point x="1566" y="1349" type="curve" smooth="yes"/>
      <point x="1629" y="1334" type="line" smooth="yes"/>
      <point x="1663" y="1326"/>
      <point x="1681" y="1290"/>
      <point x="1650" y="1236" type="curve" smooth="yes"/>
      <point x="1011" y="103" type="line"/>
      <point x="1032" y="119" type="line"/>
      <point x="1030" y="316"/>
      <point x="1002" y="1087"/>
      <point x="999" y="1253" type="curve" smooth="yes"/>
      <point x="997" y="1312"/>
      <point x="1010" y="1332"/>
      <point x="1057" y="1339" type="curve" smooth="yes"/>
      <point x="1141" y="1353" type="line" smooth="yes"/>
      <point x="1152" y="1354"/>
      <point x="1169" y="1363"/>
      <point x="1169" y="1382" type="curve" smooth="yes"/>
      <point x="1170" y="1396"/>
      <point x="1164" y="1400"/>
      <point x="1145" y="1400" type="curve" smooth="yes"/>
      <point x="853" y="1400" type="line" smooth="yes"/>
      <point x="832" y="1400"/>
      <point x="821" y="1390"/>
      <point x="820" y="1379" type="curve" smooth="yes"/>
      <point x="820" y="1364"/>
      <point x="831" y="1353"/>
      <point x="847" y="1352" type="curve" smooth="yes"/>
      <point x="879" y="1347" type="line" smooth="yes"/>
      <point x="919" y="1342"/>
      <point x="934" y="1313"/>
      <point x="938" y="1246" type="curve" smooth="yes"/>
      <point x="949" y="1072"/>
      <point x="975" y="328"/>
      <point x="973" y="186" type="curve" smooth="yes"/>
      <point x="973" y="154"/>
      <point x="976" y="135"/>
      <point x="962" y="100" type="curve" smooth="yes"/>
      <point x="946" y="56" type="line" smooth="yes"/>
      <point x="932" y="19"/>
      <point x="943" y="0"/>
      <point x="967" y="0" type="curve" smooth="yes"/>
      <point x="992" y="0" type="line" smooth="yes"/>
      <point x="1011" y="0"/>
      <point x="1027" y="14"/>
      <point x="1036" y="42" type="curve" smooth="yes"/>
      <point x="1049" y="82" type="line" smooth="yes"/>
      <point x="1058" y="108"/>
      <point x="1077" y="130"/>
      <point x="1091" y="155" type="curve" smooth="yes"/>
      <point x="1691" y="1217" type="line" smooth="yes"/>
      <point x="1741" y="1306"/>
      <point x="1774" y="1336"/>
      <point x="1812" y="1346" type="curve" smooth="yes"/>
      <point x="1842" y="1353" type="line" smooth="yes"/>
      <point x="1869" y="1361"/>
      <point x="1882" y="1371"/>
      <point x="1883" y="1383" type="curve" smooth="yes"/>
      <point x="1882" y="1395"/>
      <point x="1876" y="1400"/>
      <point x="1856" y="1400" type="curve" smooth="yes"/>
      <point x="1558" y="1400" type="line" smooth="yes"/>
      <point x="1542" y="1400"/>
      <point x="1529" y="1391"/>
    </contour>
  </outline>
</glyph>
<glyph name="X" format="2">
  <advance width="1021"/>
  <unicode hex="0058"/>
  <outline>
    <contour>
      <point x="573" y="714" type="line"/>
      <point x="196" y="218" type="line" smooth="yes"/>
      <point x="97" y="88"/>
      <point x="46" y="57"/>
      <point x="-47" y="37" type="curve" smooth="yes"/>
      <point x="-68" y="33"/>
      <point x="-74" y="27"/>
      <point x="-74" y="18" type="curve" smooth="yes"/>
      <point x="-74" y="8"/>
      <point x="-65" y="0"/>
      <point x="-51" y="0" type="curve" smooth="yes"/>
      <point x="237" y="0" type="line" smooth="yes"/>
      <point x="257" y="0"/>
      <point x="271" y="10"/>
      <point x="272" y="25" type="curve" smooth="yes"/>
      <point x="272" y="36"/>
      <point x="265" y="41"/>
      <point x="243" y="45" type="curve" smooth="yes"/>
      <point x="207" y="53" type="line" smooth="yes"/>
      <point x="172" y="62"/>
      <point x="170" y="109"/>
      <point x="215" y="171" type="curve" smooth="yes"/>
      <point x="584" y="660" type="line"/>
    </contour>
    <contour>
      <point x="459" y="1265" type="curve" smooth="yes"/>
      <point x="448" y="1304"/>
      <point x="462" y="1338"/>
      <point x="489" y="1343" type="curve" smooth="yes"/>
      <point x="548" y="1355" type="line" smooth="yes"/>
      <point x="571" y="1359"/>
      <point x="586" y="1367"/>
      <point x="586" y="1380" type="curve" smooth="yes"/>
      <point x="587" y="1393"/>
      <point x="577" y="1400"/>
      <point x="553" y="1400" type="curve" smooth="yes"/>
      <point x="319" y="1400" type="line" smooth="yes"/>
      <point x="300" y="1400"/>
      <point x="285" y="1393"/>
      <point x="283" y="1380" type="curve" smooth="yes"/>
      <point x="283" y="1366"/>
      <point x="291" y="1356"/>
      <point x="318" y="1353" type="curve" smooth="yes"/>
      <point x="361" y="1348"/>
      <point x="379" y="1324"/>
      <point x="398" y="1263" type="curve" smooth="yes"/>
      <point x="446" y="1115"/>
      <point x="690" y="285"/>
      <point x="739" y="123" type="curve" smooth="yes"/>
      <point x="752" y="80"/>
      <point x="733" y="55"/>
      <point x="703" y="51" type="curve" smooth="yes"/>
      <point x="661" y="44" type="line" smooth="yes"/>
      <point x="636" y="40"/>
      <point x="624" y="30"/>
      <point x="623" y="17" type="curve" smooth="yes"/>
      <point x="623" y="7"/>
      <point x="631" y="0"/>
      <point x="655" y="0" type="curve" smooth="yes"/>
      <point x="886" y="0" type="line" smooth="yes"/>
      <point x="908" y="0"/>
      <point x="925" y="11"/>
      <point x="927" y="23" type="curve" smooth="yes"/>
      <point x="927" y="34"/>
      <point x="920" y="40"/>
      <point x="894" y="44" type="curve" smooth="yes"/>
      <point x="842" y="53"/>
      <point x="808" y="75"/>
      <point x="793" y="121" type="curve" smooth="yes"/>
      <point x="732" y="313"/>
      <point x="491" y="1143"/>
    </contour>
    <contour>
      <point x="611" y="674" type="line"/>
      <point x="958" y="1157" type="line" smooth="yes"/>
      <point x="1025" y="1251"/>
      <point x="1064" y="1297"/>
      <point x="1116" y="1318" type="curve" smooth="yes"/>
      <point x="1162" y="1337"/>
      <point x="1189" y="1336"/>
      <point x="1221" y="1336" type="curve" smooth="yes"/>
      <point x="1259" y="1336"/>
      <point x="1283" y="1350"/>
      <point x="1284" y="1376" type="curve" smooth="yes"/>
      <point x="1284" y="1400"/>
      <point x="1263" y="1423"/>
      <point x="1224" y="1423" type="curve" smooth="yes"/>
      <point x="1132" y="1423"/>
      <point x="1053" y="1369"/>
      <point x="915" y="1175" type="curve" smooth="yes"/>
      <point x="598" y="723" type="line"/>
    </contour>
  </outline>
</glyph>
<glyph name="Y" format="2">
  <advance width="919"/>
  <unicode hex="0059"/>
  <outline>
    <contour>
      <point x="495" y="505" type="line"/>
      <point x="512" y="497" type="line"/>
      <point x="483" y="683"/>
      <point x="419" y="1126"/>
      <point x="394" y="1271" type="curve" smooth="yes"/>
      <point x="380" y="1366"/>
      <point x="342" y="1400"/>
      <point x="263" y="1400" type="curve" smooth="yes"/>
      <point x="219" y="1400" type="line" smooth="yes"/>
      <point x="201" y="1400"/>
      <point x="185" y="1389"/>
      <point x="186" y="1378" type="curve" smooth="yes"/>
      <point x="186" y="1363"/>
      <point x="202" y="1349"/>
      <point x="235" y="1347" type="curve" smooth="yes"/>
      <point x="297" y="1341"/>
      <point x="335" y="1309"/>
      <point x="344" y="1248" type="curve" smooth="yes"/>
      <point x="362" y="1111"/>
      <point x="431" y="685"/>
      <point x="455" y="526" type="curve" smooth="yes"/>
      <point x="459" y="489"/>
      <point x="455" y="456"/>
      <point x="444" y="417" type="curve" smooth="yes"/>
      <point x="367" y="165" type="line" smooth="yes"/>
      <point x="348" y="98"/>
      <point x="312" y="61"/>
      <point x="262" y="54" type="curve" smooth="yes"/>
      <point x="207" y="47" type="line" smooth="yes"/>
      <point x="181" y="43"/>
      <point x="166" y="34"/>
      <point x="165" y="20" type="curve" smooth="yes"/>
      <point x="165" y="7"/>
      <point x="174" y="0"/>
      <point x="190" y="0" type="curve" smooth="yes"/>
      <point x="506" y="0" type="line" smooth="yes"/>
      <point x="535" y="0"/>
      <point x="545" y="7"/>
      <point x="545" y="19" type="curve" smooth="yes"/>
      <point x="546" y="35"/>
      <point x="538" y="43"/>
      <point x="513" y="47" type="curve" smooth="yes"/>
      <point x="457" y="58" type="line" smooth="yes"/>
      <point x="418" y="66"/>
      <point x="413" y="105"/>
      <point x="427" y="158" type="curve" smooth="yes"/>
      <point x="505" y="428" type="line" smooth="yes"/>
      <point x="515" y="459"/>
      <point x="529" y="480"/>
      <point x="555" y="522" type="curve" smooth="yes"/>
      <point x="924" y="1117" type="line" smooth="yes"/>
      <point x="1016" y="1267"/>
      <point x="1098" y="1314"/>
      <point x="1148" y="1321" type="curve" smooth="yes"/>
      <point x="1219" y="1331"/>
      <point x="1244" y="1352"/>
      <point x="1244" y="1387" type="curve" smooth="yes"/>
      <point x="1244" y="1403"/>
      <point x="1228" y="1423"/>
      <point x="1183" y="1423" type="curve" smooth="yes"/>
      <point x="1098" y="1423"/>
      <point x="1021" y="1363"/>
      <point x="894" y="1155" type="curve" smooth="yes"/>
    </contour>
  </outline>
</glyph>
<glyph name="Z" format="2">
  <advance width="932"/>
  <unicode hex="005A"/>
  <outline>
    <contour>
      <point x="604" y="0" type="line" smooth="yes"/>
      <point x="627" y="0"/>
      <point x="653" y="-26"/>
      <point x="675" y="-26" type="curve" smooth="yes"/>
      <point x="757" y="-26"/>
      <point x="882" y="120"/>
      <point x="886" y="271" type="curve" smooth="yes"/>
      <point x="886" y="283"/>
      <point x="881" y="292"/>
      <point x="871" y="292" type="curve" smooth="yes"/>
      <point x="860" y="292"/>
      <point x="852" y="281"/>
      <point x="846" y="264" type="curve" smooth="yes"/>
      <point x="793" y="106"/>
      <point x="700" y="46"/>
      <point x="589" y="46" type="curve" smooth="yes"/>
      <point x="26" y="46" type="line"/>
      <point x="37" y="30" type="line"/>
      <point x="231" y="277"/>
      <point x="998" y="1189"/>
      <point x="1127" y="1339" type="curve" smooth="yes"/>
      <point x="1143" y="1359"/>
      <point x="1151" y="1370"/>
      <point x="1151" y="1378" type="curve" smooth="yes"/>
      <point x="1152" y="1390"/>
      <point x="1146" y="1399"/>
      <point x="1122" y="1399" type="curve" smooth="yes"/>
      <point x="610" y="1399" type="line" smooth="yes"/>
      <point x="553" y="1399"/>
      <point x="546" y="1429"/>
      <point x="504" y="1429" type="curve" smooth="yes"/>
      <point x="491" y="1429"/>
      <point x="474" y="1414"/>
      <point x="456" y="1390" type="curve" smooth="yes"/>
      <point x="334" y="1225" type="line" smooth="yes"/>
      <point x="310" y="1192"/>
      <point x="308" y="1174"/>
      <point x="323" y="1168" type="curve" smooth="yes"/>
      <point x="335" y="1162"/>
      <point x="357" y="1175"/>
      <point x="374" y="1196" type="curve" smooth="yes"/>
      <point x="470" y="1316"/>
      <point x="533" y="1354"/>
      <point x="584" y="1354" type="curve" smooth="yes"/>
      <point x="1093" y="1354" type="line"/>
      <point x="1078" y="1368" type="line"/>
      <point x="886" y="1128"/>
      <point x="176" y="277"/>
      <point x="-17" y="64" type="curve" smooth="yes"/>
      <point x="-33" y="47"/>
      <point x="-39" y="38"/>
      <point x="-39" y="20" type="curve" smooth="yes"/>
      <point x="-39" y="7"/>
      <point x="-30" y="0"/>
      <point x="-7" y="0" type="curve" smooth="yes"/>
    </contour>
  </outline>
</glyph>
<glyph name="bracketleft" format="2">
  <advance width="507"/>
  <unicode hex="005B"/>
  <outline>
    <contour>
      <point x="488" y="1298" type="line" smooth="yes"/>
      <point x="492" y="1313"/>
      <point x="502" y="1321"/>
      <point x="516" y="1321" type="curve" smooth="yes"/>
      <point x="748" y="1321" type="line" smooth="yes"/>
      <point x="764" y="1321"/>
      <point x="778" y="1330"/>
      <point x="782" y="1347" type="curve" smooth="yes"/>
      <point x="788" y="1366"/>
      <point x="778" y="1373"/>
      <point x="763" y="1373" type="curve" smooth="yes"/>
      <point x="485" y="1373" type="line" smooth="yes"/>
      <point x="458" y="1373"/>
      <point x="440" y="1360"/>
      <point x="434" y="1334" type="curve" smooth="yes"/>
      <point x="23" y="-197" type="line" smooth="yes"/>
      <point x="17" y="-224"/>
      <point x="25" y="-238"/>
      <point x="52" y="-238" type="curve" smooth="yes"/>
      <point x="331" y="-238" type="line" smooth="yes"/>
      <point x="347" y="-238"/>
      <point x="359" y="-230"/>
      <point x="365" y="-212" type="curve" smooth="yes"/>
      <point x="369" y="-194"/>
      <point x="361" y="-186"/>
      <point x="345" y="-186" type="curve" smooth="yes"/>
      <point x="112" y="-186" type="line" smooth="yes"/>
      <point x="98" y="-186"/>
      <point x="92" y="-177"/>
      <point x="96" y="-162" type="curve" smooth="yes"/>
    </contour>
  </outline>
</glyph>
<glyph name="asciicircum" format="2">
  <advance width="826"/>
  <unicode hex="005E"/>
  <outline>
    <contour>
      <point x="698" y="1366" type="line"/>
      <point x="251" y="807" type="line" smooth="yes"/>
      <point x="238" y="790"/>
      <point x="229" y="786"/>
      <point x="221" y="786" type="curve" smooth="yes"/>
      <point x="198" y="786"/>
      <point x="204" y="820"/>
      <point x="233" y="856" type="curve" smooth="yes"/>
      <point x="629" y="1376" type="line" smooth="yes"/>
      <point x="655" y="1411"/>
      <point x="666" y="1419"/>
      <point x="681" y="1419" type="curve" smooth="yes"/>
      <point x="697" y="1419"/>
      <point x="703" y="1411"/>
      <point x="712" y="1376" type="curve" smooth="yes"/>
      <point x="829" y="856" type="line" smooth="yes"/>
      <point x="836" y="820"/>
      <point x="826" y="786"/>
      <point x="805" y="786" type="curve" smooth="yes"/>
      <point x="795" y="786"/>
      <point x="787" y="790"/>
      <point x="782" y="807" type="curve" smooth="yes"/>
      <point x="636" y="1366" type="line"/>
    </contour>
  </outline>
</glyph>
<glyph name="underscore" format="2">
  <advance width="735"/>
  <unicode hex="005F"/>
  <outline>
    <contour>
      <point x="-95" y="-187" type="curve" smooth="yes"/>
      <point x="-98" y="-202"/>
      <point x="-93" y="-212"/>
      <point x="-79" y="-212" type="curve" smooth="yes"/>
      <point x="687" y="-212" type="line" smooth="yes"/>
      <point x="702" y="-212"/>
      <point x="709" y="-202"/>
      <point x="711" y="-187" type="curve" smooth="yes"/>
      <point x="714" y="-171"/>
      <point x="710" y="-161"/>
      <point x="695" y="-161" type="curve" smooth="yes"/>
      <point x="-71" y="-161" type="line" smooth="yes"/>
      <point x="-85" y="-161"/>
      <point x="-93" y="-171"/>
    </contour>
  </outline>
</glyph>
<glyph name="a" format="2">
  <advance width="798"/>
  <unicode hex="0061"/>
  <anchor x="559.0" y="1010.0" name="center"/>
  <outline>
    <contour>
      <point x="583" y="173" type="curve" smooth="yes"/>
      <point x="726" y="720" type="line"/>
      <point x="733" y="748"/>
      <point x="760" y="772"/>
      <point x="760" y="800" type="curve" smooth="yes"/>
      <point x="759" y="841"/>
      <point x="701" y="865"/>
      <point x="619" y="865" type="curve" smooth="yes"/>
      <point x="361" y="865"/>
      <point x="124" y="603"/>
      <point x="61" y="303" type="curve" smooth="yes"/>
      <point x="18" y="99"/>
      <point x="74" y="-15"/>
      <point x="192" y="-15" type="curve" smooth="yes"/>
      <point x="338" y="-15"/>
      <point x="484" y="147"/>
      <point x="657" y="492" type="curve"/>
      <point x="623" y="486" type="line"/>
      <point x="527" y="189"/>
      <point x="512" y="108"/>
      <point x="512" y="62" type="curve" smooth="yes"/>
      <point x="512" y="13"/>
      <point x="541" y="-15"/>
      <point x="588" y="-15" type="curve" smooth="yes"/>
      <point x="647" y="-15"/>
      <point x="695" y="16"/>
      <point x="739" y="82" type="curve" smooth="yes"/>
      <point x="749" y="97"/>
      <point x="752" y="114"/>
      <point x="743" y="121" type="curve" smooth="yes"/>
      <point x="733" y="126"/>
      <point x="720" y="124"/>
      <point x="704" y="103" type="curve" smooth="yes"/>
      <point x="660" y="46"/>
      <point x="630" y="28"/>
      <point x="599" y="28" type="curve" smooth="yes"/>
      <point x="568" y="28"/>
      <point x="553" y="59"/>
    </contour>
    <contour>
      <point x="123" y="28"/>
      <point x="75" y="130"/>
      <point x="111" y="295" type="curve" smooth="yes"/>
      <point x="178" y="599"/>
      <point x="400" y="822"/>
      <point x="589" y="822" type="curve" smooth="yes"/>
      <point x="642" y="822"/>
      <point x="672" y="803"/>
      <point x="672" y="756" type="curve" smooth="yes"/>
      <point x="672" y="531"/>
      <point x="403" y="28"/>
      <point x="206" y="28" type="curve" smooth="yes"/>
    </contour>
  </outline>
</glyph>
<glyph name="b" format="2">
  <advance width="810"/>
  <unicode hex="0062"/>
  <outline>
    <contour>
      <point x="357" y="1018" type="line" smooth="yes"/>
      <point x="428" y="1269"/>
      <point x="560" y="1376"/>
      <point x="711" y="1376" type="curve" smooth="yes"/>
      <point x="778" y="1376"/>
      <point x="825" y="1351"/>
      <point x="864" y="1351" type="curve" smooth="yes"/>
      <point x="902" y="1351"/>
      <point x="921" y="1364"/>
      <point x="921" y="1391" type="curve" smooth="yes"/>
      <point x="921" y="1413"/>
      <point x="898" y="1438"/>
      <point x="817" y="1438" type="curve" smooth="yes"/>
      <point x="582" y="1438"/>
      <point x="395" y="1327"/>
      <point x="307" y="1014" type="curve" smooth="yes"/>
      <point x="30" y="21" type="line" smooth="yes"/>
      <point x="24" y="0"/>
      <point x="29" y="-15"/>
      <point x="45" y="-15" type="curve" smooth="yes"/>
      <point x="56" y="-15"/>
      <point x="64" y="-6"/>
      <point x="68" y="8" type="curve" smooth="yes"/>
      <point x="125" y="187" type="line"/>
      <point x="105" y="194" type="line"/>
      <point x="89" y="68"/>
      <point x="166" y="-15"/>
      <point x="292" y="-15" type="curve" smooth="yes"/>
      <point x="516" y="-15"/>
      <point x="708" y="246"/>
      <point x="773" y="574" type="curve" smooth="yes"/>
      <point x="816" y="788"/>
      <point x="715" y="865"/>
      <point x="611" y="865" type="curve" smooth="yes"/>
      <point x="438" y="865"/>
      <point x="281" y="697"/>
      <point x="189" y="481" type="curve"/>
      <point x="209" y="494" type="line"/>
    </contour>
    <contour>
      <point x="593" y="822" type="curve" smooth="yes"/>
      <point x="690" y="822"/>
      <point x="760" y="758"/>
      <point x="720" y="563" type="curve" smooth="yes"/>
      <point x="660" y="276"/>
      <point x="487" y="28"/>
      <point x="302" y="28" type="curve" smooth="yes"/>
      <point x="179" y="28"/>
      <point x="118" y="112"/>
      <point x="151" y="268" type="curve" smooth="yes"/>
      <point x="203" y="513"/>
      <point x="411" y="822"/>
    </contour>
  </outline>
</glyph>
<glyph name="c" format="2">
  <advance width="653"/>
  <unicode hex="0063"/>
  <anchor x="494.0" y="984.0" name="center"/>
  <outline>
    <contour>
      <point x="470" y="826" type="curve" smooth="yes"/>
      <point x="537" y="826"/>
      <point x="576" y="787"/>
      <point x="576" y="729" type="curve" smooth="yes"/>
      <point x="576" y="701"/>
      <point x="568" y="684"/>
      <point x="568" y="663" type="curve" smooth="yes"/>
      <point x="568" y="640"/>
      <point x="582" y="626"/>
      <point x="603" y="626" type="curve" smooth="yes"/>
      <point x="632" y="626"/>
      <point x="650" y="655"/>
      <point x="650" y="706" type="curve" smooth="yes"/>
      <point x="650" y="800"/>
      <point x="589" y="869"/>
      <point x="478" y="869" type="curve" smooth="yes"/>
      <point x="265" y="869"/>
      <point x="73" y="641"/>
      <point x="38" y="362" type="curve" smooth="yes"/>
      <point x="9" y="129"/>
      <point x="80" y="-15"/>
      <point x="262" y="-15" type="curve" smooth="yes"/>
      <point x="424" y="-15"/>
      <point x="525" y="103"/>
      <point x="573" y="226" type="curve" smooth="yes"/>
      <point x="587" y="262"/>
      <point x="577" y="274"/>
      <point x="564" y="274" type="curve" smooth="yes"/>
      <point x="553" y="274"/>
      <point x="546" y="267"/>
      <point x="538" y="249" type="curve" smooth="yes"/>
      <point x="473" y="89"/>
      <point x="360" y="28"/>
      <point x="271" y="28" type="curve" smooth="yes"/>
      <point x="129" y="28"/>
      <point x="63" y="152"/>
      <point x="93" y="369" type="curve" smooth="yes"/>
      <point x="133" y="657"/>
      <point x="321" y="826"/>
    </contour>
  </outline>
</glyph>
<glyph name="d" format="2">
  <advance width="805"/>
  <unicode hex="0064"/>
  <guideline x="1382" y="340" angle="0" identifier="JqABTGjc2a"/>
  <anchor x="272.0" y="1022" name="center"/>
  <outline>
    <contour>
      <point x="745" y="802" type="line"/>
      <point x="713" y="837"/>
      <point x="673" y="865"/>
      <point x="588" y="865" type="curve" smooth="yes"/>
      <point x="330" y="865"/>
      <point x="91" y="603"/>
      <point x="28" y="303" type="curve" smooth="yes"/>
      <point x="-15" y="99"/>
      <point x="41" y="-15"/>
      <point x="159" y="-15" type="curve" smooth="yes"/>
      <point x="314" y="-15"/>
      <point x="481" y="142"/>
      <point x="652" y="526" type="curve"/>
      <point x="613" y="485" type="line"/>
      <point x="512" y="198"/>
      <point x="493" y="122"/>
      <point x="493" y="77" type="curve" smooth="yes"/>
      <point x="493" y="15"/>
      <point x="521" y="-15"/>
      <point x="574" y="-15" type="curve" smooth="yes"/>
      <point x="632" y="-15"/>
      <point x="678" y="17"/>
      <point x="724" y="89" type="curve" smooth="yes"/>
      <point x="733" y="103"/>
      <point x="732" y="116"/>
      <point x="725" y="121" type="curve" smooth="yes"/>
      <point x="716" y="127"/>
      <point x="704" y="125"/>
      <point x="693" y="108" type="curve" smooth="yes"/>
      <point x="650" y="44"/>
      <point x="617" y="28"/>
      <point x="587" y="28" type="curve" smooth="yes"/>
      <point x="539" y="28"/>
      <point x="542" y="93"/>
      <point x="571" y="193" type="curve" smooth="yes"/>
      <point x="837" y="1099" type="line" smooth="yes"/>
      <point x="865" y="1196"/>
      <point x="877" y="1255"/>
      <point x="916" y="1316" type="curve" smooth="yes"/>
      <point x="944" y="1360"/>
      <point x="974" y="1385"/>
      <point x="1014" y="1385" type="curve" smooth="yes"/>
      <point x="1064" y="1385"/>
      <point x="1081" y="1360"/>
      <point x="1123" y="1360" type="curve" smooth="yes"/>
      <point x="1154" y="1360"/>
      <point x="1167" y="1381"/>
      <point x="1167" y="1401" type="curve" smooth="yes"/>
      <point x="1167" y="1426"/>
      <point x="1138" y="1448"/>
      <point x="1079" y="1448" type="curve" smooth="yes"/>
      <point x="959" y="1448"/>
      <point x="871" y="1377"/>
      <point x="818" y="1197" type="curve" smooth="yes"/>
      <point x="674" y="711" type="line" smooth="yes"/>
      <point x="569" y="355"/>
      <point x="343" y="28"/>
      <point x="173" y="28" type="curve" smooth="yes"/>
      <point x="85" y="28"/>
      <point x="44" y="137"/>
      <point x="78" y="295" type="curve" smooth="yes"/>
      <point x="143" y="599"/>
      <point x="376" y="822"/>
      <point x="571" y="822" type="curve" smooth="yes"/>
      <point x="639" y="822"/>
      <point x="675" y="804"/>
      <point x="718" y="762" type="curve"/>
    </contour>
  </outline>
</glyph>
<glyph name="e" format="2">
  <advance width="650"/>
  <unicode hex="0065"/>
  <anchor x="461.0" y="1035.0" name="center"/>
  <outline>
    <contour>
      <point x="68" y="409" type="curve"/>
      <point x="77" y="365" type="line"/>
      <point x="77" y="365"/>
      <point x="455" y="543"/>
      <point x="649" y="634" type="curve" smooth="yes"/>
      <point x="670" y="644"/>
      <point x="678" y="655"/>
      <point x="672" y="668" type="curve" smooth="yes"/>
      <point x="667" y="678"/>
      <point x="654" y="681"/>
      <point x="638" y="675" type="curve" smooth="yes"/>
      <point x="627" y="671"/>
      <point x="622" y="676"/>
      <point x="622" y="687" type="curve" smooth="yes"/>
      <point x="622" y="791"/>
      <point x="568" y="865"/>
      <point x="451" y="865" type="curve" smooth="yes"/>
      <point x="262" y="865"/>
      <point x="74" y="622"/>
      <point x="38" y="340" type="curve" smooth="yes"/>
      <point x="10" y="118"/>
      <point x="90" y="-15"/>
      <point x="267" y="-15" type="curve" smooth="yes"/>
      <point x="423" y="-15"/>
      <point x="518" y="105"/>
      <point x="566" y="226" type="curve" smooth="yes"/>
      <point x="580" y="262"/>
      <point x="570" y="274"/>
      <point x="557" y="274" type="curve" smooth="yes"/>
      <point x="546" y="274"/>
      <point x="539" y="267"/>
      <point x="531" y="249" type="curve" smooth="yes"/>
      <point x="465" y="91"/>
      <point x="360" y="28"/>
      <point x="276" y="28" type="curve" smooth="yes"/>
      <point x="141" y="28"/>
      <point x="67" y="128"/>
      <point x="93" y="327" type="curve" smooth="yes"/>
      <point x="134" y="638"/>
      <point x="307" y="822"/>
      <point x="443" y="822" type="curve" smooth="yes"/>
      <point x="527" y="822"/>
      <point x="569" y="768"/>
      <point x="569" y="683" type="curve" smooth="yes"/>
      <point x="569" y="653"/>
      <point x="567" y="636"/>
      <point x="561" y="613" type="curve"/>
      <point x="573" y="644" type="line"/>
      <point x="383" y="555"/>
      <point x="68" y="409"/>
    </contour>
  </outline>
</glyph>
<glyph name="f" format="2">
  <advance width="416"/>
  <unicode hex="0066"/>
  <outline>
    <contour>
      <point x="289" y="811" type="line"/>
      <point x="472" y="811" type="line" smooth="yes"/>
      <point x="501" y="811"/>
      <point x="522" y="819"/>
      <point x="522" y="837" type="curve" smooth="yes"/>
      <point x="522" y="845"/>
      <point x="516" y="850"/>
      <point x="505" y="850" type="curve" smooth="yes"/>
      <point x="300" y="850" type="line"/>
    </contour>
    <contour>
      <point x="118" y="834" type="curve" smooth="yes"/>
      <point x="118" y="824"/>
      <point x="127" y="815"/>
      <point x="156" y="815" type="curve" smooth="yes"/>
      <point x="246" y="815"/>
      <point x="262" y="782"/>
      <point x="242" y="714" type="curve" smooth="yes"/>
      <point x="-33" y="-238" type="line" smooth="yes"/>
      <point x="-58" y="-323"/>
      <point x="-52" y="-350"/>
      <point x="-12" y="-350" type="curve" smooth="yes"/>
      <point x="18" y="-350"/>
      <point x="44" y="-329"/>
      <point x="44" y="-304" type="curve" smooth="yes"/>
      <point x="44" y="-280"/>
      <point x="28" y="-268"/>
      <point x="28" y="-239" type="curve" smooth="yes"/>
      <point x="28" y="-210"/>
      <point x="31" y="-188"/>
      <point x="38" y="-162" type="curve" smooth="yes"/>
      <point x="396" y="1089" type="line" smooth="yes"/>
      <point x="424" y="1185"/>
      <point x="440" y="1256"/>
      <point x="475" y="1309" type="curve" smooth="yes"/>
      <point x="505" y="1354"/>
      <point x="533" y="1375"/>
      <point x="573" y="1375" type="curve" smooth="yes"/>
      <point x="623" y="1375"/>
      <point x="640" y="1350"/>
      <point x="682" y="1350" type="curve" smooth="yes"/>
      <point x="713" y="1350"/>
      <point x="726" y="1371"/>
      <point x="726" y="1391" type="curve" smooth="yes"/>
      <point x="726" y="1416"/>
      <point x="697" y="1438"/>
      <point x="638" y="1438" type="curve" smooth="yes"/>
      <point x="518" y="1438"/>
      <point x="428" y="1368"/>
      <point x="377" y="1187" type="curve" smooth="yes"/>
      <point x="280" y="850" type="line"/>
      <point x="146" y="850" type="line" smooth="yes"/>
      <point x="127" y="850"/>
      <point x="118" y="844"/>
    </contour>
  </outline>
</glyph>
<glyph name="g" format="2">
  <advance width="712"/>
  <unicode hex="0067"/>
  <anchor x="544.0" y="1010.0" name="center"/>
  <outline>
    <contour>
      <point x="492" y="-42" type="curve" smooth="yes"/>
      <point x="692" y="720" type="line" smooth="yes"/>
      <point x="699" y="748"/>
      <point x="726" y="772"/>
      <point x="726" y="800" type="curve" smooth="yes"/>
      <point x="725" y="841"/>
      <point x="667" y="865"/>
      <point x="585" y="865" type="curve" smooth="yes"/>
      <point x="327" y="865"/>
      <point x="90" y="603"/>
      <point x="27" y="303" type="curve" smooth="yes"/>
      <point x="-16" y="99"/>
      <point x="40" y="-15"/>
      <point x="158" y="-15" type="curve" smooth="yes"/>
      <point x="304" y="-15"/>
      <point x="450" y="147"/>
      <point x="623" y="492" type="curve"/>
      <point x="588" y="486" type="line"/>
      <point x="437" y="-55" type="line" smooth="yes"/>
      <point x="369" y="-297"/>
      <point x="205" y="-437"/>
      <point x="23" y="-437" type="curve" smooth="yes"/>
      <point x="-51" y="-437"/>
      <point x="-89" y="-396"/>
      <point x="-135" y="-396" type="curve" smooth="yes"/>
      <point x="-165" y="-396"/>
      <point x="-184" y="-409"/>
      <point x="-184" y="-432" type="curve" smooth="yes"/>
      <point x="-184" y="-463"/>
      <point x="-143" y="-490"/>
      <point x="-39" y="-490" type="curve" smooth="yes"/>
      <point x="219" y="-490"/>
      <point x="417" y="-329"/>
    </contour>
    <contour>
      <point x="84" y="28"/>
      <point x="43" y="136"/>
      <point x="77" y="295" type="curve" smooth="yes"/>
      <point x="142" y="599"/>
      <point x="366" y="822"/>
      <point x="555" y="822" type="curve" smooth="yes"/>
      <point x="608" y="822"/>
      <point x="638" y="803"/>
      <point x="638" y="756" type="curve" smooth="yes"/>
      <point x="638" y="531"/>
      <point x="369" y="28"/>
      <point x="172" y="28" type="curve" smooth="yes"/>
    </contour>
  </outline>
</glyph>
<glyph name="h" format="2">
  <advance width="828"/>
  <unicode hex="0068"/>
  <anchor x="308.0" y="980" name="center"/>
  <outline>
    <contour>
      <point x="156" y="270" type="curve" smooth="yes"/>
      <point x="125" y="157"/>
      <point x="119" y="127"/>
      <point x="119" y="106" type="curve" smooth="yes"/>
      <point x="119" y="74"/>
      <point x="127" y="55"/>
      <point x="127" y="29" type="curve" smooth="yes"/>
      <point x="127" y="1"/>
      <point x="99" y="-15"/>
      <point x="67" y="-15" type="curve" smooth="yes"/>
      <point x="30" y="-15"/>
      <point x="29" y="13"/>
      <point x="59" y="121" type="curve" smooth="yes"/>
      <point x="309" y="1014" type="line" smooth="yes"/>
      <point x="397" y="1327"/>
      <point x="584" y="1438"/>
      <point x="819" y="1438" type="curve" smooth="yes"/>
      <point x="900" y="1438"/>
      <point x="923" y="1413"/>
      <point x="923" y="1391" type="curve" smooth="yes"/>
      <point x="923" y="1364"/>
      <point x="904" y="1351"/>
      <point x="866" y="1351" type="curve" smooth="yes"/>
      <point x="827" y="1351"/>
      <point x="780" y="1376"/>
      <point x="713" y="1376" type="curve" smooth="yes"/>
      <point x="562" y="1376"/>
      <point x="430" y="1269"/>
      <point x="359" y="1018" type="curve" smooth="yes"/>
      <point x="178" y="377" type="line"/>
      <point x="153" y="377" type="line"/>
      <point x="296" y="732"/>
      <point x="510" y="865"/>
      <point x="636" y="865" type="curve" smooth="yes"/>
      <point x="750" y="865"/>
      <point x="770" y="780"/>
      <point x="716" y="617" type="curve" smooth="yes"/>
      <point x="569" y="170" type="line" smooth="yes"/>
      <point x="537" y="73"/>
      <point x="538" y="28"/>
      <point x="582" y="28" type="curve" smooth="yes"/>
      <point x="611" y="28"/>
      <point x="649" y="45"/>
      <point x="695" y="104" type="curve" smooth="yes"/>
      <point x="710" y="122"/>
      <point x="722" y="129"/>
      <point x="732" y="121" type="curve" smooth="yes"/>
      <point x="742" y="113"/>
      <point x="740" y="99"/>
      <point x="728" y="82" type="curve" smooth="yes"/>
      <point x="684" y="17"/>
      <point x="629" y="-15"/>
      <point x="569" y="-15" type="curve" smooth="yes"/>
      <point x="501" y="-15"/>
      <point x="478" y="40"/>
      <point x="513" y="148" type="curve" smooth="yes"/>
      <point x="669" y="630" type="line" smooth="yes"/>
      <point x="717" y="777"/>
      <point x="690" y="822"/>
      <point x="621" y="822" type="curve" smooth="yes"/>
      <point x="491" y="822"/>
      <point x="251" y="621"/>
    </contour>
  </outline>
</glyph>
<glyph name="i" format="2">
  <advance width="412"/>
  <unicode hex="0069"/>
  <outline>
    <contour>
      <point x="140" y="159" type="curve" smooth="yes"/>
      <point x="325" y="695" type="line" smooth="yes"/>
      <point x="363" y="804"/>
      <point x="335" y="865"/>
      <point x="267" y="865" type="curve" smooth="yes"/>
      <point x="210" y="865"/>
      <point x="149" y="828"/>
      <point x="111" y="768" type="curve" smooth="yes"/>
      <point x="101" y="754"/>
      <point x="98" y="738"/>
      <point x="108" y="731" type="curve" smooth="yes"/>
      <point x="120" y="724"/>
      <point x="130" y="729"/>
      <point x="142" y="744" type="curve" smooth="yes"/>
      <point x="188" y="803"/>
      <point x="219" y="822"/>
      <point x="254" y="822" type="curve" smooth="yes"/>
      <point x="298" y="822"/>
      <point x="303" y="774"/>
      <point x="274" y="691" type="curve" smooth="yes"/>
      <point x="90" y="159" type="line" smooth="yes"/>
      <point x="50" y="43"/>
      <point x="79" y="-15"/>
      <point x="147" y="-15" type="curve" smooth="yes"/>
      <point x="201" y="-15"/>
      <point x="259" y="14"/>
      <point x="301" y="80" type="curve" smooth="yes"/>
      <point x="311" y="95"/>
      <point x="314" y="113"/>
      <point x="305" y="119" type="curve" smooth="yes"/>
      <point x="296" y="124"/>
      <point x="284" y="121"/>
      <point x="270" y="102" type="curve" smooth="yes"/>
      <point x="227" y="45"/>
      <point x="189" y="28"/>
      <point x="160" y="28" type="curve" smooth="yes"/>
      <point x="116" y="28"/>
      <point x="111" y="75"/>
    </contour>
    <contour>
      <point x="379" y="1085" type="curve" smooth="yes"/>
      <point x="429" y="1085"/>
      <point x="459" y="1137"/>
      <point x="459" y="1179" type="curve" smooth="yes"/>
      <point x="459" y="1220"/>
      <point x="433" y="1243"/>
      <point x="403" y="1243" type="curve" smooth="yes"/>
      <point x="353" y="1243"/>
      <point x="323" y="1191"/>
      <point x="323" y="1149" type="curve" smooth="yes"/>
      <point x="323" y="1108"/>
      <point x="349" y="1085"/>
    </contour>
  </outline>
</glyph>
<glyph name="j" format="2">
  <advance width="335"/>
  <unicode hex="006A"/>
  <outline>
    <contour>
      <point x="284" y="695" type="line" smooth="yes"/>
      <point x="316" y="807"/>
      <point x="294" y="865"/>
      <point x="226" y="865" type="curve" smooth="yes"/>
      <point x="162" y="865"/>
      <point x="100" y="815"/>
      <point x="70" y="768" type="curve" smooth="yes"/>
      <point x="60" y="753"/>
      <point x="57" y="735"/>
      <point x="66" y="729" type="curve" smooth="yes"/>
      <point x="76" y="724"/>
      <point x="91" y="725"/>
      <point x="106" y="746" type="curve" smooth="yes"/>
      <point x="143" y="801"/>
      <point x="179" y="822"/>
      <point x="213" y="822" type="curve" smooth="yes"/>
      <point x="257" y="822"/>
      <point x="257" y="775"/>
      <point x="233" y="691" type="curve" smooth="yes"/>
      <point x="27" y="-27" type="line" smooth="yes"/>
      <point x="-12" y="-164"/>
      <point x="-40" y="-271"/>
      <point x="-70" y="-329" type="curve" smooth="yes"/>
      <point x="-107" y="-401"/>
      <point x="-140" y="-419"/>
      <point x="-173" y="-419" type="curve" smooth="yes"/>
      <point x="-220" y="-419"/>
      <point x="-235" y="-399"/>
      <point x="-271" y="-399" type="curve" smooth="yes"/>
      <point x="-308" y="-399"/>
      <point x="-323" y="-420"/>
      <point x="-323" y="-441" type="curve" smooth="yes"/>
      <point x="-323" y="-467"/>
      <point x="-296" y="-490"/>
      <point x="-238" y="-490" type="curve" smooth="yes"/>
      <point x="-118" y="-490"/>
      <point x="-37" y="-421"/>
      <point x="12" y="-251" type="curve" smooth="yes"/>
    </contour>
    <contour>
      <point x="418" y="1179" type="curve" smooth="yes"/>
      <point x="418" y="1220"/>
      <point x="392" y="1243"/>
      <point x="362" y="1243" type="curve" smooth="yes"/>
      <point x="312" y="1243"/>
      <point x="282" y="1191"/>
      <point x="282" y="1149" type="curve" smooth="yes"/>
      <point x="282" y="1108"/>
      <point x="308" y="1085"/>
      <point x="338" y="1085" type="curve" smooth="yes"/>
      <point x="388" y="1085"/>
      <point x="418" y="1137"/>
    </contour>
  </outline>
</glyph>
<glyph name="k" format="2">
  <advance width="793"/>
  <unicode hex="006B"/>
  <anchor x="268.0" y="980" name="center"/>
  <outline>
    <contour>
      <point x="191" y="422" type="curve"/>
      <point x="171" y="434" type="line"/>
      <point x="289" y="701"/>
      <point x="488" y="865"/>
      <point x="643" y="865" type="curve" smooth="yes"/>
      <point x="734" y="865"/>
      <point x="803" y="810"/>
      <point x="789" y="700" type="curve" smooth="yes"/>
      <point x="771" y="554"/>
      <point x="562" y="399"/>
      <point x="145" y="309" type="curve"/>
      <point x="150" y="352" type="line"/>
      <point x="555" y="447"/>
      <point x="715" y="561"/>
      <point x="735" y="706" type="curve" smooth="yes"/>
      <point x="745" y="780"/>
      <point x="697" y="822"/>
      <point x="634" y="822" type="curve" smooth="yes"/>
      <point x="474" y="822"/>
      <point x="246" y="580"/>
      <point x="174" y="334" type="curve" smooth="yes"/>
      <point x="122" y="156"/>
      <point x="119" y="127"/>
      <point x="119" y="106" type="curve" smooth="yes"/>
      <point x="119" y="74"/>
      <point x="127" y="55"/>
      <point x="127" y="29" type="curve" smooth="yes"/>
      <point x="127" y="1"/>
      <point x="99" y="-15"/>
      <point x="67" y="-15" type="curve" smooth="yes"/>
      <point x="30" y="-15"/>
      <point x="29" y="13"/>
      <point x="59" y="121" type="curve" smooth="yes"/>
      <point x="309" y="1014" type="line" smooth="yes"/>
      <point x="397" y="1327"/>
      <point x="584" y="1438"/>
      <point x="819" y="1438" type="curve" smooth="yes"/>
      <point x="900" y="1438"/>
      <point x="923" y="1413"/>
      <point x="923" y="1391" type="curve" smooth="yes"/>
      <point x="923" y="1364"/>
      <point x="904" y="1351"/>
      <point x="866" y="1351" type="curve" smooth="yes"/>
      <point x="827" y="1351"/>
      <point x="780" y="1376"/>
      <point x="713" y="1376" type="curve" smooth="yes"/>
      <point x="562" y="1376"/>
      <point x="430" y="1269"/>
      <point x="359" y="1018" type="curve" smooth="yes"/>
      <point x="336" y="936"/>
      <point x="247" y="620"/>
    </contour>
    <contour>
      <point x="362" y="389" type="line"/>
      <point x="408" y="414" type="line"/>
      <point x="492" y="138" type="line" smooth="yes"/>
      <point x="519" y="48"/>
      <point x="546" y="28"/>
      <point x="583" y="28" type="curve" smooth="yes"/>
      <point x="620" y="28"/>
      <point x="644" y="51"/>
      <point x="667" y="96" type="curve" smooth="yes"/>
      <point x="675" y="112"/>
      <point x="686" y="116"/>
      <point x="696" y="112" type="curve" smooth="yes"/>
      <point x="706" y="108"/>
      <point x="709" y="98"/>
      <point x="701" y="79" type="curve" smooth="yes"/>
      <point x="678" y="25"/>
      <point x="638" y="-15"/>
      <point x="574" y="-15" type="curve" smooth="yes"/>
      <point x="513" y="-15"/>
      <point x="474" y="16"/>
      <point x="441" y="127" type="curve" smooth="yes"/>
    </contour>
  </outline>
</glyph>
<glyph name="l" format="2">
  <advance width="403"/>
  <unicode hex="006C"/>
  <anchor x="80.0" y="1593" name="center"/>
  <outline>
    <contour>
      <point x="624" y="1438" type="curve" smooth="yes"/>
      <point x="504" y="1438"/>
      <point x="414" y="1367"/>
      <point x="363" y="1187" type="curve" smooth="yes"/>
      <point x="71" y="159" type="line"/>
      <point x="32" y="30"/>
      <point x="58" y="-15"/>
      <point x="126" y="-15" type="curve" smooth="yes"/>
      <point x="192" y="-15"/>
      <point x="244" y="12"/>
      <point x="296" y="90" type="curve" smooth="yes"/>
      <point x="304" y="102"/>
      <point x="306" y="117"/>
      <point x="296" y="123" type="curve" smooth="yes"/>
      <point x="286" y="129"/>
      <point x="274" y="125"/>
      <point x="261" y="106" type="curve" smooth="yes"/>
      <point x="214" y="44"/>
      <point x="178" y="28"/>
      <point x="145" y="28" type="curve" smooth="yes"/>
      <point x="108" y="28"/>
      <point x="92" y="59"/>
      <point x="121" y="160" type="curve" smooth="yes"/>
      <point x="384" y="1089" type="line" smooth="yes"/>
      <point x="411" y="1186"/>
      <point x="424" y="1245"/>
      <point x="463" y="1306" type="curve" smooth="yes"/>
      <point x="491" y="1350"/>
      <point x="520" y="1375"/>
      <point x="559" y="1375" type="curve" smooth="yes"/>
      <point x="609" y="1375"/>
      <point x="626" y="1350"/>
      <point x="668" y="1350" type="curve" smooth="yes"/>
      <point x="699" y="1350"/>
      <point x="712" y="1371"/>
      <point x="712" y="1391" type="curve" smooth="yes"/>
      <point x="712" y="1416"/>
      <point x="683" y="1438"/>
    </contour>
  </outline>
</glyph>
<glyph name="m" format="2">
  <advance width="1244"/>
  <unicode hex="006D"/>
  <anchor x="463.0" y="980" name="center"/>
  <outline>
    <contour>
      <point x="485" y="121" type="line" smooth="yes"/>
      <point x="448" y="15"/>
      <point x="455" y="-15"/>
      <point x="492" y="-15" type="curve" smooth="yes"/>
      <point x="524" y="-15"/>
      <point x="552" y="1"/>
      <point x="552" y="29" type="curve" smooth="yes"/>
      <point x="552" y="55"/>
      <point x="544" y="74"/>
      <point x="544" y="106" type="curve" smooth="yes"/>
      <point x="544" y="127"/>
      <point x="550" y="156"/>
      <point x="587" y="270" type="curve" smooth="yes"/>
      <point x="699" y="615"/>
      <point x="914" y="822"/>
      <point x="1041" y="822" type="curve" smooth="yes"/>
      <point x="1103" y="822"/>
      <point x="1131" y="776"/>
      <point x="1084" y="630" type="curve" smooth="yes"/>
      <point x="928" y="148" type="line" smooth="yes"/>
      <point x="893" y="40"/>
      <point x="916" y="-15"/>
      <point x="984" y="-15" type="curve" smooth="yes"/>
      <point x="1045" y="-15"/>
      <point x="1103" y="28"/>
      <point x="1143" y="87" type="curve" smooth="yes"/>
      <point x="1151" y="99"/>
      <point x="1153" y="113"/>
      <point x="1145" y="119" type="curve" smooth="yes"/>
      <point x="1138" y="124"/>
      <point x="1129" y="121"/>
      <point x="1115" y="106" type="curve" smooth="yes"/>
      <point x="1061" y="47"/>
      <point x="1030" y="28"/>
      <point x="997" y="28" type="curve" smooth="yes"/>
      <point x="953" y="28"/>
      <point x="952" y="73"/>
      <point x="984" y="170" type="curve" smooth="yes"/>
      <point x="1131" y="617" type="line" smooth="yes"/>
      <point x="1184" y="779"/>
      <point x="1163" y="865"/>
      <point x="1056" y="865" type="curve" smooth="yes"/>
      <point x="927" y="865"/>
      <point x="706" y="713"/>
      <point x="565" y="309" type="curve"/>
      <point x="565" y="300" type="line"/>
      <point x="730" y="640"/>
      <point x="743" y="698"/>
      <point x="743" y="756" type="curve"/>
      <point x="743" y="826"/>
      <point x="708" y="865"/>
      <point x="637" y="865" type="curve" smooth="yes"/>
      <point x="508" y="865"/>
      <point x="286" y="713"/>
      <point x="145" y="309" type="curve"/>
      <point x="166" y="307" type="line"/>
      <point x="315" y="684"/>
      <point x="336" y="736"/>
      <point x="336" y="788" type="curve" smooth="yes"/>
      <point x="336" y="840"/>
      <point x="310" y="865"/>
      <point x="261" y="865" type="curve" smooth="yes"/>
      <point x="199" y="865"/>
      <point x="134" y="819"/>
      <point x="93" y="759" type="curve" smooth="yes"/>
      <point x="86" y="749"/>
      <point x="87" y="736"/>
      <point x="95" y="731" type="curve" smooth="yes"/>
      <point x="103" y="726"/>
      <point x="114" y="727"/>
      <point x="126" y="741" type="curve" smooth="yes"/>
      <point x="170" y="795"/>
      <point x="209" y="822"/>
      <point x="248" y="822" type="curve" smooth="yes"/>
      <point x="292" y="822"/>
      <point x="295" y="777"/>
      <point x="261" y="680" type="curve" smooth="yes"/>
      <point x="65" y="121" type="line" smooth="yes"/>
      <point x="28" y="15"/>
      <point x="35" y="-15"/>
      <point x="72" y="-15" type="curve" smooth="yes"/>
      <point x="104" y="-15"/>
      <point x="132" y="1"/>
      <point x="132" y="29" type="curve" smooth="yes"/>
      <point x="132" y="55"/>
      <point x="124" y="74"/>
      <point x="124" y="106" type="curve" smooth="yes"/>
      <point x="124" y="127"/>
      <point x="130" y="156"/>
      <point x="167" y="270" type="curve" smooth="yes"/>
      <point x="279" y="615"/>
      <point x="495" y="822"/>
      <point x="622" y="822" type="curve" smooth="yes"/>
      <point x="684" y="822"/>
      <point x="716" y="775"/>
      <point x="665" y="630" type="curve" smooth="yes"/>
    </contour>
  </outline>
</glyph>
<glyph name="n" format="2">
  <advance width="830"/>
  <unicode hex="006E"/>
  <anchor x="547.0" y="946" name="center"/>
  <outline>
    <contour>
      <point x="95" y="730" type="curve" smooth="yes"/>
      <point x="106" y="724"/>
      <point x="119" y="727"/>
      <point x="135" y="748" type="curve" smooth="yes"/>
      <point x="170" y="795"/>
      <point x="207" y="822"/>
      <point x="248" y="822" type="curve" smooth="yes"/>
      <point x="292" y="822"/>
      <point x="295" y="777"/>
      <point x="261" y="680" type="curve" smooth="yes"/>
      <point x="65" y="121" type="line" smooth="yes"/>
      <point x="28" y="15"/>
      <point x="35" y="-15"/>
      <point x="72" y="-15" type="curve" smooth="yes"/>
      <point x="104" y="-15"/>
      <point x="132" y="1"/>
      <point x="132" y="29" type="curve" smooth="yes"/>
      <point x="132" y="55"/>
      <point x="124" y="74"/>
      <point x="124" y="106" type="curve" smooth="yes"/>
      <point x="124" y="127"/>
      <point x="130" y="156"/>
      <point x="167" y="270" type="curve" smooth="yes"/>
      <point x="280" y="616"/>
      <point x="501" y="822"/>
      <point x="631" y="822" type="curve" smooth="yes"/>
      <point x="700" y="822"/>
      <point x="727" y="777"/>
      <point x="679" y="630" type="curve" smooth="yes"/>
      <point x="523" y="148" type="line" smooth="yes"/>
      <point x="488" y="40"/>
      <point x="511" y="-15"/>
      <point x="579" y="-15" type="curve" smooth="yes"/>
      <point x="633" y="-15"/>
      <point x="674" y="11"/>
      <point x="727" y="87" type="curve" smooth="yes"/>
      <point x="736" y="100"/>
      <point x="736" y="113"/>
      <point x="727" y="120" type="curve" smooth="yes"/>
      <point x="720" y="126"/>
      <point x="709" y="123"/>
      <point x="696" y="106" type="curve" smooth="yes"/>
      <point x="648" y="44"/>
      <point x="619" y="28"/>
      <point x="592" y="28" type="curve" smooth="yes"/>
      <point x="548" y="28"/>
      <point x="547" y="73"/>
      <point x="579" y="170" type="curve" smooth="yes"/>
      <point x="726" y="617" type="line" smooth="yes"/>
      <point x="780" y="780"/>
      <point x="760" y="865"/>
      <point x="646" y="865" type="curve" smooth="yes"/>
      <point x="514" y="865"/>
      <point x="286" y="714"/>
      <point x="145" y="309" type="curve"/>
      <point x="166" y="307" type="line"/>
      <point x="315" y="684"/>
      <point x="336" y="736"/>
      <point x="336" y="788" type="curve" smooth="yes"/>
      <point x="336" y="840"/>
      <point x="310" y="865"/>
      <point x="261" y="865" type="curve" smooth="yes"/>
      <point x="198" y="865"/>
      <point x="138" y="830"/>
      <point x="98" y="769" type="curve" smooth="yes"/>
      <point x="88" y="754"/>
      <point x="84" y="736"/>
    </contour>
  </outline>
</glyph>
<glyph name="o" format="2">
  <advance width="759"/>
  <unicode hex="006F"/>
  <anchor x="516.0" y="1000" name="center"/>
  <outline>
    <contour>
      <point x="459" y="865" type="curve" smooth="yes"/>
      <point x="277" y="865"/>
      <point x="115" y="712"/>
      <point x="50" y="437" type="curve" smooth="yes"/>
      <point x="-15" y="159"/>
      <point x="92" y="-15"/>
      <point x="276" y="-15" type="curve" smooth="yes"/>
      <point x="444" y="-15"/>
      <point x="615" y="115"/>
      <point x="688" y="413" type="curve" smooth="yes"/>
      <point x="751" y="670"/>
      <point x="654" y="865"/>
    </contour>
    <contour>
      <point x="290" y="28" type="curve" smooth="yes"/>
      <point x="141" y="28"/>
      <point x="38" y="154"/>
      <point x="102" y="434" type="curve" smooth="yes"/>
      <point x="163" y="699"/>
      <point x="318" y="822"/>
      <point x="448" y="822" type="curve" smooth="yes"/>
      <point x="586" y="822"/>
      <point x="702" y="692"/>
      <point x="636" y="416" type="curve" smooth="yes"/>
      <point x="571" y="146"/>
      <point x="423" y="28"/>
    </contour>
  </outline>
</glyph>
<glyph name="p" format="2">
  <advance width="748"/>
  <unicode hex="0070"/>
  <outline>
    <contour>
      <point x="365" y="992" type="line" smooth="yes"/>
      <point x="371" y="1013"/>
      <point x="368" y="1026"/>
      <point x="353" y="1026" type="curve" smooth="yes"/>
      <point x="334" y="1026"/>
      <point x="320" y="1008"/>
      <point x="310" y="974" type="curve" smooth="yes"/>
      <point x="-86" y="-371" type="line" smooth="yes"/>
      <point x="-100" y="-419"/>
      <point x="-122" y="-436"/>
      <point x="-192" y="-447" type="curve" smooth="yes"/>
      <point x="-231" y="-453"/>
      <point x="-238" y="-459"/>
      <point x="-238" y="-471" type="curve" smooth="yes"/>
      <point x="-238" y="-483"/>
      <point x="-227" y="-491"/>
      <point x="-187" y="-490" type="curve" smooth="yes"/>
      <point x="59" y="-486" type="line" smooth="yes"/>
      <point x="79" y="-486"/>
      <point x="90" y="-479"/>
      <point x="90" y="-467" type="curve" smooth="yes"/>
      <point x="90" y="-455"/>
      <point x="80" y="-447"/>
      <point x="59" y="-445" type="curve" smooth="yes"/>
      <point x="-6" y="-438" type="line" smooth="yes"/>
      <point x="-37" y="-435"/>
      <point x="-48" y="-414"/>
      <point x="-36" y="-373" type="curve" smooth="yes"/>
    </contour>
    <contour>
      <point x="117" y="666" type="curve" smooth="yes"/>
      <point x="187" y="772"/>
      <point x="286" y="823"/>
      <point x="417" y="823" type="curve" smooth="yes"/>
      <point x="568" y="823"/>
      <point x="674" y="708"/>
      <point x="635" y="433" type="curve" smooth="yes"/>
      <point x="600" y="190"/>
      <point x="460" y="29"/>
      <point x="314" y="29" type="curve" smooth="yes"/>
      <point x="204" y="29"/>
      <point x="148" y="78"/>
      <point x="111" y="160" type="curve"/>
      <point x="75" y="144" type="line"/>
      <point x="116" y="28"/>
      <point x="198" y="-14"/>
      <point x="310" y="-14" type="curve" smooth="yes"/>
      <point x="485" y="-15"/>
      <point x="650" y="155"/>
      <point x="688" y="425" type="curve" smooth="yes"/>
      <point x="731" y="730"/>
      <point x="611" y="866"/>
      <point x="425" y="866" type="curve" smooth="yes"/>
      <point x="273" y="866"/>
      <point x="157" y="810"/>
      <point x="73" y="680" type="curve" smooth="yes"/>
      <point x="62" y="663"/>
      <point x="66" y="645"/>
      <point x="78" y="641" type="curve" smooth="yes"/>
      <point x="91" y="636"/>
      <point x="103" y="644"/>
    </contour>
  </outline>
</glyph>
<glyph name="q" format="2">
  <advance width="748"/>
  <unicode hex="0071"/>
  <outline>
    <contour>
      <point x="609" y="486" type="line"/>
      <point x="370" y="-367" type="line" smooth="yes"/>
      <point x="356" y="-417"/>
      <point x="329" y="-438"/>
      <point x="222" y="-449" type="curve" smooth="yes"/>
      <point x="185" y="-453"/>
      <point x="176" y="-460"/>
      <point x="176.0" y="-472" type="curve" smooth="yes"/>
      <point x="176" y="-484"/>
      <point x="188" y="-492"/>
      <point x="228" y="-490" type="curve" smooth="yes"/>
      <point x="517" y="-479" type="line" smooth="yes"/>
      <point x="537" y="-478"/>
      <point x="548" y="-471"/>
      <point x="548.0" y="-459" type="curve" smooth="yes"/>
      <point x="548" y="-447"/>
      <point x="537" y="-440"/>
      <point x="516" y="-438" type="curve" smooth="yes"/>
      <point x="451" y="-433" type="line" smooth="yes"/>
      <point x="420" y="-431"/>
      <point x="409" y="-410"/>
      <point x="420" y="-368" type="curve" smooth="yes"/>
      <point x="713" y="720" type="line" smooth="yes"/>
      <point x="721" y="748"/>
      <point x="747" y="772"/>
      <point x="747" y="800" type="curve" smooth="yes"/>
      <point x="746" y="841"/>
      <point x="688" y="865"/>
      <point x="606" y="865" type="curve" smooth="yes"/>
      <point x="348" y="865"/>
      <point x="111" y="603"/>
      <point x="48" y="303" type="curve" smooth="yes"/>
      <point x="5" y="99"/>
      <point x="61" y="-15"/>
      <point x="179" y="-15" type="curve" smooth="yes"/>
      <point x="325" y="-15"/>
      <point x="471" y="147"/>
      <point x="644" y="492" type="curve"/>
    </contour>
    <contour>
      <point x="105.0" y="28.0"/>
      <point x="63.70452129465863" y="135.62689307517834"/>
      <point x="98" y="295" type="curve" smooth="yes"/>
      <point x="163.25492638294259" y="599.1883491389478"/>
      <point x="387.0" y="822.0"/>
      <point x="576" y="822" type="curve" smooth="yes"/>
      <point x="629.0" y="822.0"/>
      <point x="659.0" y="803.4375"/>
      <point x="659" y="756" type="curve" smooth="yes"/>
      <point x="659.0" y="531.3829201101928"/>
      <point x="390.0" y="28.0"/>
      <point x="193" y="28" type="curve" smooth="yes"/>
    </contour>
  </outline>
</glyph>
<glyph name="r" format="2">
  <advance width="636"/>
  <unicode hex="0072"/>
  <anchor x="454.0" y="945" name="center"/>
  <outline>
    <contour>
      <point x="92" y="729" type="curve" smooth="yes"/>
      <point x="101" y="723"/>
      <point x="111" y="727"/>
      <point x="124" y="741" type="curve" smooth="yes"/>
      <point x="176" y="801"/>
      <point x="206" y="822"/>
      <point x="234" y="822" type="curve" smooth="yes"/>
      <point x="278" y="822"/>
      <point x="280" y="777"/>
      <point x="247" y="680" type="curve" smooth="yes"/>
      <point x="56" y="121" type="line" smooth="yes"/>
      <point x="20" y="15"/>
      <point x="26" y="-15"/>
      <point x="66" y="-15" type="curve" smooth="yes"/>
      <point x="102" y="-15"/>
      <point x="137" y="1"/>
      <point x="137" y="29" type="curve" smooth="yes"/>
      <point x="137" y="55"/>
      <point x="115" y="56"/>
      <point x="115" y="106" type="curve" smooth="yes"/>
      <point x="115" y="127"/>
      <point x="119" y="156"/>
      <point x="156" y="270" type="curve" smooth="yes"/>
      <point x="267" y="611"/>
      <point x="446" y="822"/>
      <point x="555" y="822" type="curve" smooth="yes"/>
      <point x="585" y="822"/>
      <point x="602" y="812"/>
      <point x="602" y="790" type="curve" smooth="yes"/>
      <point x="602" y="760"/>
      <point x="593" y="747"/>
      <point x="593" y="726" type="curve" smooth="yes"/>
      <point x="593" y="703"/>
      <point x="604" y="688"/>
      <point x="625" y="688" type="curve" smooth="yes"/>
      <point x="652" y="688"/>
      <point x="671" y="712"/>
      <point x="671" y="760" type="curve" smooth="yes"/>
      <point x="671" y="827"/>
      <point x="636" y="865"/>
      <point x="570" y="865" type="curve" smooth="yes"/>
      <point x="461" y="865"/>
      <point x="272" y="719"/>
      <point x="137" y="299" type="curve"/>
      <point x="157" y="307" type="line"/>
      <point x="306" y="683"/>
      <point x="322" y="736"/>
      <point x="322" y="788" type="curve" smooth="yes"/>
      <point x="322" y="840"/>
      <point x="296" y="865"/>
      <point x="247" y="865" type="curve" smooth="yes"/>
      <point x="189" y="865"/>
      <point x="130" y="819"/>
      <point x="91" y="759" type="curve" smooth="yes"/>
      <point x="83" y="746"/>
      <point x="83" y="735"/>
    </contour>
  </outline>
</glyph>
<glyph name="s" format="2">
  <advance width="588"/>
  <unicode hex="0073"/>
  <anchor x="425.0" y="1004" name="center"/>
  <outline>
    <contour>
      <point x="233" y="24" type="curve" smooth="yes"/>
      <point x="152" y="24"/>
      <point x="86" y="57"/>
      <point x="62" y="134" type="curve" smooth="yes"/>
      <point x="53" y="164"/>
      <point x="39" y="173"/>
      <point x="24" y="173" type="curve"/>
      <point x="6" y="173"/>
      <point x="-8" y="158"/>
      <point x="-8" y="134" type="curve" smooth="yes"/>
      <point x="-8" y="66"/>
      <point x="88" y="-15"/>
      <point x="221" y="-15" type="curve" smooth="yes"/>
      <point x="371" y="-15"/>
      <point x="455" y="75"/>
      <point x="455" y="186" type="curve" smooth="yes"/>
      <point x="455" y="253"/>
      <point x="433" y="306"/>
      <point x="308" y="425" type="curve" smooth="yes"/>
      <point x="201" y="528"/>
      <point x="180" y="592"/>
      <point x="180" y="653" type="curve" smooth="yes"/>
      <point x="180" y="750"/>
      <point x="259" y="827"/>
      <point x="379" y="827" type="curve" smooth="yes"/>
      <point x="447" y="827"/>
      <point x="486" y="809"/>
      <point x="510" y="762" type="curve" smooth="yes"/>
      <point x="528" y="727"/>
      <point x="542" y="717"/>
      <point x="561" y="717" type="curve" smooth="yes"/>
      <point x="581" y="717"/>
      <point x="593" y="728"/>
      <point x="593" y="752" type="curve" smooth="yes"/>
      <point x="593" y="806"/>
      <point x="519" y="865"/>
      <point x="386" y="865" type="curve" smooth="yes"/>
      <point x="230" y="865"/>
      <point x="128" y="768"/>
      <point x="127" y="643" type="curve" smooth="yes"/>
      <point x="127" y="557"/>
      <point x="153" y="502"/>
      <point x="273" y="384" type="curve" smooth="yes"/>
      <point x="377" y="282"/>
      <point x="402" y="231"/>
      <point x="402" y="174" type="curve" smooth="yes"/>
      <point x="402" y="97"/>
      <point x="341" y="24"/>
    </contour>
  </outline>
</glyph>
<glyph name="t" format="2">
  <advance width="506"/>
  <unicode hex="0074"/>
  <anchor x="89.0" y="1130" name="center"/>
  <outline>
    <contour>
      <point x="229" y="802" type="line" smooth="yes"/>
      <point x="261" y="797"/>
      <point x="265" y="776"/>
      <point x="242" y="701" type="curve" smooth="yes"/>
      <point x="85" y="184" type="line" smooth="yes"/>
      <point x="49" y="66"/>
      <point x="81" y="-15"/>
      <point x="186" y="-15" type="curve" smooth="yes"/>
      <point x="258" y="-15"/>
      <point x="323" y="30"/>
      <point x="375" y="106" type="curve" smooth="yes"/>
      <point x="386" y="123"/>
      <point x="391" y="141"/>
      <point x="381" y="147" type="curve" smooth="yes"/>
      <point x="371" y="153"/>
      <point x="359" y="147"/>
      <point x="342" y="127" type="curve" smooth="yes"/>
      <point x="287" y="62"/>
      <point x="242" y="29"/>
      <point x="194" y="29" type="curve" smooth="yes"/>
      <point x="127" y="29"/>
      <point x="105" y="83"/>
      <point x="136" y="186" type="curve" smooth="yes"/>
      <point x="365" y="940" type="line" smooth="yes"/>
      <point x="371" y="961"/>
      <point x="375" y="980"/>
      <point x="375" y="989" type="curve" smooth="yes"/>
      <point x="375" y="1003"/>
      <point x="369" y="1008"/>
      <point x="359" y="1008" type="curve" smooth="yes"/>
      <point x="351" y="1008"/>
      <point x="343" y="1003"/>
      <point x="335" y="985" type="curve" smooth="yes"/>
      <point x="283" y="868" type="line" smooth="yes"/>
      <point x="278" y="857"/>
      <point x="269" y="850"/>
      <point x="252" y="850" type="curve" smooth="yes"/>
      <point x="147" y="850" type="line" smooth="yes"/>
      <point x="128" y="850"/>
      <point x="120" y="842"/>
      <point x="120" y="833" type="curve" smooth="yes"/>
      <point x="120" y="824"/>
      <point x="127" y="818"/>
      <point x="146" y="815" type="curve" smooth="yes"/>
    </contour>
    <contour>
      <point x="283" y="811" type="line"/>
      <point x="526" y="811" type="line" smooth="yes"/>
      <point x="555" y="811"/>
      <point x="576" y="819"/>
      <point x="576" y="837" type="curve" smooth="yes"/>
      <point x="576" y="845"/>
      <point x="570" y="850"/>
      <point x="559" y="850" type="curve" smooth="yes"/>
      <point x="294" y="850" type="line"/>
    </contour>
  </outline>
</glyph>
<glyph name="u" format="2">
  <advance width="830"/>
  <unicode hex="0075"/>
  <anchor x="550.0" y="1016.0" name="center"/>
  <outline>
    <contour>
      <point x="729" y="120" type="curve" smooth="yes"/>
      <point x="721" y="127"/>
      <point x="709" y="123"/>
      <point x="694" y="105" type="curve" smooth="yes"/>
      <point x="644" y="44"/>
      <point x="610" y="28"/>
      <point x="577" y="28" type="curve" smooth="yes"/>
      <point x="533" y="28"/>
      <point x="530" y="73"/>
      <point x="564" y="170" type="curve" smooth="yes"/>
      <point x="760" y="729" type="line" smooth="yes"/>
      <point x="797" y="835"/>
      <point x="790" y="865"/>
      <point x="753" y="865" type="curve" smooth="yes"/>
      <point x="721" y="865"/>
      <point x="693" y="849"/>
      <point x="693" y="821" type="curve" smooth="yes"/>
      <point x="693" y="795"/>
      <point x="701" y="776"/>
      <point x="701" y="744" type="curve" smooth="yes"/>
      <point x="701" y="723"/>
      <point x="695" y="694"/>
      <point x="658" y="580" type="curve" smooth="yes"/>
      <point x="546" y="235"/>
      <point x="331" y="28"/>
      <point x="204" y="28" type="curve" smooth="yes"/>
      <point x="135" y="28"/>
      <point x="108" y="73"/>
      <point x="156" y="220" type="curve" smooth="yes"/>
      <point x="312" y="702" type="line" smooth="yes"/>
      <point x="347" y="810"/>
      <point x="324" y="865"/>
      <point x="256" y="865" type="curve" smooth="yes"/>
      <point x="194" y="865"/>
      <point x="128" y="820"/>
      <point x="96" y="768" type="curve" smooth="yes"/>
      <point x="87" y="753"/>
      <point x="83" y="736"/>
      <point x="93" y="730" type="curve" smooth="yes"/>
      <point x="103" y="723"/>
      <point x="113" y="729"/>
      <point x="134" y="753" type="curve" smooth="yes"/>
      <point x="178" y="803"/>
      <point x="208" y="822"/>
      <point x="243" y="822" type="curve" smooth="yes"/>
      <point x="287" y="822"/>
      <point x="288" y="777"/>
      <point x="256" y="680" type="curve" smooth="yes"/>
      <point x="109" y="233" type="line" smooth="yes"/>
      <point x="55" y="70"/>
      <point x="75" y="-15"/>
      <point x="189" y="-15" type="curve" smooth="yes"/>
      <point x="318" y="-15"/>
      <point x="539" y="137"/>
      <point x="680" y="541" type="curve"/>
      <point x="659" y="543" type="line"/>
      <point x="510" y="166"/>
      <point x="489" y="114"/>
      <point x="489" y="62" type="curve" smooth="yes"/>
      <point x="489" y="10"/>
      <point x="515" y="-15"/>
      <point x="564" y="-15" type="curve" smooth="yes"/>
      <point x="630" y="-15"/>
      <point x="692" y="28"/>
      <point x="727" y="84" type="curve" smooth="yes"/>
      <point x="735" y="97"/>
      <point x="737" y="113"/>
    </contour>
  </outline>
</glyph>
<glyph name="w" format="2">
  <advance width="1239"/>
  <unicode hex="0077"/>
  <anchor x="791" y="1013" name="center"/>
  <outline>
    <contour>
      <point x="770" y="864" type="curve" smooth="yes"/>
      <point x="751" y="867"/>
      <point x="729" y="835"/>
      <point x="702" y="728" type="curve" smooth="yes"/>
      <point x="550" y="120"/>
      <point x="671" y="-15"/>
      <point x="794" y="-15" type="curve" smooth="yes"/>
      <point x="980" y="-15"/>
      <point x="1188" y="322"/>
      <point x="1188" y="715" type="curve" smooth="yes"/>
      <point x="1188" y="828"/>
      <point x="1153" y="865"/>
      <point x="1114" y="865" type="curve" smooth="yes"/>
      <point x="1090" y="865"/>
      <point x="1072" y="847"/>
      <point x="1072" y="824" type="curve" smooth="yes"/>
      <point x="1072" y="804"/>
      <point x="1082" y="789"/>
      <point x="1111" y="764" type="curve" smooth="yes"/>
      <point x="1134" y="744"/>
      <point x="1138" y="713"/>
      <point x="1138" y="649" type="curve" smooth="yes"/>
      <point x="1138" y="386"/>
      <point x="966" y="28"/>
      <point x="801" y="28" type="curve" smooth="yes"/>
      <point x="710" y="28"/>
      <point x="623" y="171"/>
      <point x="727" y="627" type="curve"/>
      <point x="619" y="165"/>
      <point x="452" y="28"/>
      <point x="325" y="28" type="curve" smooth="yes"/>
      <point x="241" y="28"/>
      <point x="203" y="79"/>
      <point x="203" y="177" type="curve" smooth="yes"/>
      <point x="203" y="369"/>
      <point x="362" y="533"/>
      <point x="442" y="798" type="curve" smooth="yes"/>
      <point x="457" y="848"/>
      <point x="452" y="865"/>
      <point x="436" y="865" type="curve" smooth="yes"/>
      <point x="417" y="865"/>
      <point x="408" y="837"/>
      <point x="380" y="837" type="curve" smooth="yes"/>
      <point x="335" y="837"/>
      <point x="258" y="865"/>
      <point x="195" y="865" type="curve" smooth="yes"/>
      <point x="106" y="865"/>
      <point x="51" y="794"/>
      <point x="51" y="707" type="curve" smooth="yes"/>
      <point x="51" y="653"/>
      <point x="71" y="635"/>
      <point x="94" y="635" type="curve" smooth="yes"/>
      <point x="115" y="635"/>
      <point x="134" y="651"/>
      <point x="134" y="673" type="curve" smooth="yes"/>
      <point x="134" y="684"/>
      <point x="128" y="695"/>
      <point x="122" y="704" type="curve" smooth="yes"/>
      <point x="110" y="721"/>
      <point x="108" y="728"/>
      <point x="108" y="739" type="curve" smooth="yes"/>
      <point x="108" y="786"/>
      <point x="139" y="822"/>
      <point x="188" y="822" type="curve" smooth="yes"/>
      <point x="256" y="822"/>
      <point x="340" y="790"/>
      <point x="402" y="790" type="curve"/>
      <point x="396" y="820" type="line"/>
      <point x="341" y="592"/>
      <point x="159" y="394"/>
      <point x="151" y="181" type="curve" smooth="yes"/>
      <point x="147" y="56"/>
      <point x="201" y="-15"/>
      <point x="314" y="-15" type="curve" smooth="yes"/>
      <point x="494" y="-15"/>
      <point x="660" y="154"/>
      <point x="766" y="669" type="curve" smooth="yes"/>
      <point x="795" y="808"/>
      <point x="791" y="861"/>
    </contour>
  </outline>
</glyph>
<glyph name="x" format="2">
  <advance width="816"/>
  <unicode hex="0078"/>
  <outline>
    <contour>
      <point x="416" y="484.0" type="line"/>
      <point x="283" y="123.0"/>
      <point x="193" y="30.0"/>
      <point x="125" y="30.0" type="curve" smooth="yes"/>
      <point x="87" y="30.0"/>
      <point x="72" y="51.0"/>
      <point x="72" y="83.0" type="curve" smooth="yes"/>
      <point x="72" y="110.0"/>
      <point x="78" y="134.0"/>
      <point x="79" y="154.0" type="curve" smooth="yes"/>
      <point x="79" y="181.0"/>
      <point x="65" y="198.0"/>
      <point x="47" y="198.0" type="curve" smooth="yes"/>
      <point x="19" y="198.0"/>
      <point x="0" y="167.0"/>
      <point x="-1" y="110.0" type="curve" smooth="yes"/>
      <point x="0" y="38.0"/>
      <point x="36" y="-14.0"/>
      <point x="113" y="-14.0" type="curve" smooth="yes"/>
      <point x="214.0" y="-14.0"/>
      <point x="305" y="88.0"/>
      <point x="426" y="398.0" type="curve"/>
    </contour>
    <contour>
      <point x="441" y="690.0" type="line" smooth="yes"/>
      <point x="436" y="807.0"/>
      <point x="396" y="865.0"/>
      <point x="313" y="865.0" type="curve" smooth="yes"/>
      <point x="241" y="865.0"/>
      <point x="187" y="818.0"/>
      <point x="158" y="751.0" type="curve" smooth="yes"/>
      <point x="148" y="728.0"/>
      <point x="147" y="713.0"/>
      <point x="158" y="708.0" type="curve" smooth="yes"/>
      <point x="170" y="703.0"/>
      <point x="183" y="714.0"/>
      <point x="193" y="733.0" type="curve" smooth="yes"/>
      <point x="224" y="791.0"/>
      <point x="256" y="822.0"/>
      <point x="306" y="822.0" type="curve" smooth="yes"/>
      <point x="366" y="822.0"/>
      <point x="389" y="775.0"/>
      <point x="393" y="690.0" type="curve" smooth="yes"/>
      <point x="418" y="160.0" type="line" smooth="yes"/>
      <point x="423" y="43.0"/>
      <point x="463" y="-15.0"/>
      <point x="546" y="-15.0" type="curve" smooth="yes"/>
      <point x="618" y="-15.0"/>
      <point x="672" y="32.0"/>
      <point x="701" y="99.0" type="curve" smooth="yes"/>
      <point x="711" y="122.0"/>
      <point x="712" y="137.0"/>
      <point x="701" y="142.0" type="curve" smooth="yes"/>
      <point x="689" y="147.0"/>
      <point x="676" y="136.0"/>
      <point x="666" y="117.0" type="curve" smooth="yes"/>
      <point x="635" y="59.0"/>
      <point x="603" y="28.0"/>
      <point x="553" y="28.0" type="curve" smooth="yes"/>
      <point x="493" y="28.0"/>
      <point x="470" y="75.0"/>
      <point x="466" y="160.0" type="curve" smooth="yes"/>
    </contour>
    <contour>
      <point x="449" y="410.0" type="line"/>
      <point x="569" y="738.0"/>
      <point x="659" y="821.0"/>
      <point x="723" y="821.0" type="curve" smooth="yes"/>
      <point x="761" y="821.0"/>
      <point x="776" y="800.0"/>
      <point x="776" y="768.0" type="curve" smooth="yes"/>
      <point x="776" y="741.0"/>
      <point x="770" y="717.0"/>
      <point x="769" y="697.0" type="curve" smooth="yes"/>
      <point x="769" y="670.0"/>
      <point x="783" y="653.0"/>
      <point x="801" y="653.0" type="curve" smooth="yes"/>
      <point x="829" y="653.0"/>
      <point x="848" y="684.0"/>
      <point x="849" y="741.0" type="curve" smooth="yes"/>
      <point x="848" y="813.0"/>
      <point x="812" y="865.0"/>
      <point x="735" y="865.0" type="curve" smooth="yes"/>
      <point x="639.0" y="865.0"/>
      <point x="547" y="776.0"/>
      <point x="439" y="496.0" type="curve"/>
    </contour>
  </outline>
</glyph>
<glyph name="y" format="2">
  <advance width="705"/>
  <unicode hex="0079"/>
  <anchor x="485" y="1003" name="center"/>
  <outline>
    <contour>
      <point x="536" y="610" type="curve" smooth="yes"/>
      <point x="274" y="-36" type="line"/>
      <point x="289" y="-36" type="line"/>
      <point x="277" y="230"/>
      <point x="257" y="548"/>
      <point x="244" y="766" type="curve" smooth="yes"/>
      <point x="240" y="832"/>
      <point x="217" y="865"/>
      <point x="168" y="865" type="curve" smooth="yes"/>
      <point x="117" y="865"/>
      <point x="71" y="815"/>
      <point x="54" y="763" type="curve" smooth="yes"/>
      <point x="46" y="741"/>
      <point x="49" y="733"/>
      <point x="59" y="728" type="curve" smooth="yes"/>
      <point x="69" y="723"/>
      <point x="80" y="732"/>
      <point x="91" y="753" type="curve" smooth="yes"/>
      <point x="117" y="799"/>
      <point x="134" y="822"/>
      <point x="158" y="822" type="curve" smooth="yes"/>
      <point x="182" y="822"/>
      <point x="194" y="806"/>
      <point x="198" y="739" type="curve" smooth="yes"/>
      <point x="218" y="412"/>
      <point x="238" y="128"/>
      <point x="238" y="-15" type="curve" smooth="yes"/>
      <point x="238" y="-219"/>
      <point x="64" y="-428"/>
      <point x="-85" y="-428" type="curve" smooth="yes"/>
      <point x="-158" y="-428"/>
      <point x="-194" y="-393"/>
      <point x="-229" y="-393" type="curve" smooth="yes"/>
      <point x="-258" y="-393"/>
      <point x="-274" y="-408"/>
      <point x="-274" y="-432" type="curve" smooth="yes"/>
      <point x="-274" y="-465"/>
      <point x="-233" y="-490"/>
      <point x="-154" y="-490" type="curve" smooth="yes"/>
      <point x="49" y="-490"/>
      <point x="178" y="-381"/>
      <point x="294" y="-97" type="curve" smooth="yes"/>
      <point x="580" y="605" type="line" smooth="yes"/>
      <point x="631" y="730"/>
      <point x="671" y="775"/>
      <point x="747" y="791" type="curve" smooth="yes"/>
      <point x="784" y="799"/>
      <point x="797" y="812"/>
      <point x="797" y="833" type="curve" smooth="yes"/>
      <point x="797" y="852"/>
      <point x="783" y="865"/>
      <point x="756" y="865" type="curve" smooth="yes"/>
      <point x="674" y="865"/>
      <point x="609" y="791"/>
    </contour>
  </outline>
</glyph>
<glyph name="z" format="2">
  <advance width="684"/>
  <unicode hex="007A"/>
  <anchor x="483.0" y="998" name="center"/>
  <outline>
    <contour>
      <point x="88" y="81" type="curve"/>
      <point x="100" y="106" type="line"/>
      <point x="197" y="106"/>
      <point x="292" y="28"/>
      <point x="416" y="28" type="curve" smooth="yes"/>
      <point x="479" y="28"/>
      <point x="530" y="63"/>
      <point x="549" y="166" type="curve" smooth="yes"/>
      <point x="551" y="179"/>
      <point x="559" y="188"/>
      <point x="570" y="187" type="curve" smooth="yes"/>
      <point x="581" y="186"/>
      <point x="585" y="176"/>
      <point x="583" y="161" type="curve" smooth="yes"/>
      <point x="569" y="66"/>
      <point x="518" y="-15"/>
      <point x="409" y="-15" type="curve" smooth="yes"/>
      <point x="280" y="-15"/>
      <point x="165" y="60"/>
      <point x="111" y="60" type="curve" smooth="yes"/>
      <point x="53" y="60"/>
      <point x="68" y="-15"/>
      <point x="19" y="-15" type="curve"/>
      <point x="-7" y="-15"/>
      <point x="-22" y="2"/>
      <point x="-22" y="28" type="curve" smooth="yes"/>
      <point x="-22" y="56"/>
      <point x="-5" y="76"/>
      <point x="35" y="96" type="curve" smooth="yes"/>
      <point x="57" y="107"/>
      <point x="92" y="160"/>
      <point x="339" y="438" type="curve" smooth="yes"/>
      <point x="527" y="649"/>
      <point x="616" y="748"/>
      <point x="639" y="789" type="curve"/>
      <point x="646" y="763" type="line"/>
      <point x="539" y="763"/>
      <point x="411" y="822"/>
      <point x="314" y="822" type="curve" smooth="yes"/>
      <point x="237" y="822"/>
      <point x="212" y="792"/>
      <point x="212" y="754" type="curve" smooth="yes"/>
      <point x="212" y="737"/>
      <point x="216" y="723"/>
      <point x="233" y="707" type="curve" smooth="yes"/>
      <point x="247" y="693"/>
      <point x="251" y="683"/>
      <point x="251" y="668" type="curve" smooth="yes"/>
      <point x="251" y="648"/>
      <point x="237" y="633"/>
      <point x="215" y="633" type="curve" smooth="yes"/>
      <point x="182" y="633"/>
      <point x="155" y="663"/>
      <point x="155" y="713" type="curve" smooth="yes"/>
      <point x="155" y="809"/>
      <point x="209" y="865"/>
      <point x="318" y="865" type="curve" smooth="yes"/>
      <point x="426" y="865"/>
      <point x="536" y="812"/>
      <point x="621" y="812" type="curve" smooth="yes"/>
      <point x="681" y="812"/>
      <point x="669" y="865"/>
      <point x="711" y="865" type="curve" smooth="yes"/>
      <point x="731" y="865"/>
      <point x="741" y="851"/>
      <point x="741" y="824" type="curve" smooth="yes"/>
      <point x="741" y="800"/>
      <point x="730" y="778"/>
      <point x="697" y="768" type="curve" smooth="yes"/>
      <point x="682" y="763"/>
      <point x="639" y="717"/>
      <point x="366" y="410" type="curve" smooth="yes"/>
      <point x="199" y="223"/>
      <point x="154" y="164"/>
    </contour>
  </outline>
</glyph>
<glyph name="braceleft" format="2">
  <advance width="563"/>
  <unicode hex="007B"/>
  <outline>
    <contour>
      <point x="279" y="568" type="curve" smooth="yes"/>
      <point x="282" y="578"/>
      <point x="290" y="585"/>
      <point x="304" y="585" type="curve" smooth="yes"/>
      <point x="425" y="585"/>
      <point x="489" y="638"/>
      <point x="509" y="713" type="curve" smooth="yes"/>
      <point x="549" y="863"/>
      <point x="364" y="1004"/>
      <point x="407" y="1162" type="curve" smooth="yes"/>
      <point x="435" y="1270"/>
      <point x="526" y="1321"/>
      <point x="661" y="1321" type="curve" smooth="yes"/>
      <point x="771" y="1321" type="line" smooth="yes"/>
      <point x="786" y="1321"/>
      <point x="800" y="1330"/>
      <point x="804" y="1347" type="curve" smooth="yes"/>
      <point x="809" y="1366"/>
      <point x="801" y="1373"/>
      <point x="785" y="1373" type="curve" smooth="yes"/>
      <point x="672" y="1373" type="line" smooth="yes"/>
      <point x="486" y="1373"/>
      <point x="376" y="1285"/>
      <point x="343" y="1162" type="curve" smooth="yes"/>
      <point x="298" y="994"/>
      <point x="478" y="831"/>
      <point x="448" y="714" type="curve" smooth="yes"/>
      <point x="432" y="657"/>
      <point x="392" y="622"/>
      <point x="325" y="622" type="curve" smooth="yes"/>
      <point x="285" y="622"/>
      <point x="268" y="636"/>
      <point x="218" y="636" type="curve" smooth="yes"/>
      <point x="173" y="636"/>
      <point x="139" y="599"/>
      <point x="130" y="568" type="curve" smooth="yes"/>
      <point x="122" y="536"/>
      <point x="136" y="499"/>
      <point x="182" y="499" type="curve" smooth="yes"/>
      <point x="232" y="499"/>
      <point x="256" y="513"/>
      <point x="296" y="513" type="curve" smooth="yes"/>
      <point x="363" y="513"/>
      <point x="384" y="479"/>
      <point x="369" y="422" type="curve" smooth="yes"/>
      <point x="337" y="304"/>
      <point x="70" y="140"/>
      <point x="25" y="-27" type="curve" smooth="yes"/>
      <point x="-8" y="-150"/>
      <point x="55" y="-238"/>
      <point x="240" y="-238" type="curve" smooth="yes"/>
      <point x="352" y="-238" type="line" smooth="yes"/>
      <point x="368" y="-238"/>
      <point x="381" y="-231"/>
      <point x="385" y="-213" type="curve" smooth="yes"/>
      <point x="391" y="-196"/>
      <point x="382" y="-187"/>
      <point x="367" y="-187" type="curve" smooth="yes"/>
      <point x="257" y="-187" type="line" smooth="yes"/>
      <point x="122" y="-187"/>
      <point x="59" y="-135"/>
      <point x="88" y="-27" type="curve" smooth="yes"/>
      <point x="131" y="132"/>
      <point x="390" y="271"/>
      <point x="431" y="423" type="curve" smooth="yes"/>
      <point x="451" y="497"/>
      <point x="416" y="551"/>
      <point x="295" y="551" type="curve" smooth="yes"/>
      <point x="281" y="551"/>
      <point x="277" y="558"/>
    </contour>
  </outline>
</glyph>
<glyph name="bar" format="2">
  <advance width="310"/>
  <unicode hex="007C"/>
  <outline>
    <contour>
      <point x="188" y="583" type="curve" smooth="yes"/>
      <point x="140" y="403"/>
      <point x="17" y="-21"/>
      <point x="-44" y="-246" type="curve" smooth="yes"/>
      <point x="-51" y="-273"/>
      <point x="-41" y="-290"/>
      <point x="-21" y="-290" type="curve" smooth="yes"/>
      <point x="1" y="-290"/>
      <point x="20" y="-273"/>
      <point x="27" y="-246" type="curve" smooth="yes"/>
      <point x="77" y="-57"/>
      <point x="189" y="389"/>
      <point x="241" y="583" type="curve" smooth="yes"/>
      <point x="292" y="775"/>
      <point x="421" y="1221"/>
      <point x="471" y="1411" type="curve" smooth="yes"/>
      <point x="478" y="1437"/>
      <point x="468" y="1455"/>
      <point x="447" y="1455" type="curve" smooth="yes"/>
      <point x="426" y="1455"/>
      <point x="407" y="1437"/>
      <point x="400" y="1411" type="curve" smooth="yes"/>
      <point x="340" y="1186"/>
      <point x="236" y="762"/>
    </contour>
  </outline>
</glyph>
<glyph name="asciitilde" format="2">
  <advance width="1101"/>
  <unicode hex="007E"/>
  <outline>
    <contour>
      <point x="842" y="556" type="curve" smooth="yes"/>
      <point x="961" y="556"/>
      <point x="1070" y="668"/>
      <point x="1101" y="790" type="curve" smooth="yes"/>
      <point x="1108" y="821"/>
      <point x="1097" y="840"/>
      <point x="1080" y="840" type="curve" smooth="yes"/>
      <point x="1060" y="840"/>
      <point x="1045" y="827"/>
      <point x="1035" y="796" type="curve" smooth="yes"/>
      <point x="996" y="681"/>
      <point x="934" y="636"/>
      <point x="866" y="636" type="curve" smooth="yes"/>
      <point x="714" y="636"/>
      <point x="621" y="860"/>
      <point x="446" y="860" type="curve" smooth="yes"/>
      <point x="311" y="860"/>
      <point x="195" y="733"/>
      <point x="145" y="585" type="curve" smooth="yes"/>
      <point x="138" y="561"/>
      <point x="145" y="545"/>
      <point x="162" y="545" type="curve" smooth="yes"/>
      <point x="180" y="545"/>
      <point x="196" y="556"/>
      <point x="207" y="584" type="curve" smooth="yes"/>
      <point x="252" y="710"/>
      <point x="329" y="790"/>
      <point x="423" y="790" type="curve" smooth="yes"/>
      <point x="560" y="790"/>
      <point x="671" y="556"/>
    </contour>
  </outline>
</glyph>
<glyph name="sterling" format="2">
  <advance width="1048"/>
  <unicode hex="00A3"/>
  <outline>
    <contour>
      <point x="247" y="185" type="line"/>
      <point x="386" y="265"/>
      <point x="452" y="352"/>
      <point x="480" y="452" type="curve" smooth="yes"/>
      <point x="533" y="642"/>
      <point x="414" y="871"/>
      <point x="463" y="1058" type="curve" smooth="yes"/>
      <point x="518" y="1269"/>
      <point x="668" y="1388"/>
      <point x="854" y="1388" type="curve" smooth="yes"/>
      <point x="1025" y="1388"/>
      <point x="1106" y="1294"/>
      <point x="1065" y="1141" type="curve" smooth="yes"/>
      <point x="1053" y="1093" type="line" smooth="yes"/>
      <point x="1041" y="1051"/>
      <point x="1053" y="1027"/>
      <point x="1075" y="1027" type="curve" smooth="yes"/>
      <point x="1103" y="1027"/>
      <point x="1128" y="1058"/>
      <point x="1147" y="1118" type="curve" smooth="yes"/>
      <point x="1196" y="1297"/>
      <point x="1125" y="1438"/>
      <point x="879" y="1438" type="curve" smooth="yes"/>
      <point x="663" y="1438"/>
      <point x="477" y="1300"/>
      <point x="412" y="1070" type="curve" smooth="yes"/>
      <point x="353" y="858"/>
      <point x="475" y="644"/>
      <point x="427" y="463" type="curve" smooth="yes"/>
      <point x="403" y="374"/>
      <point x="343" y="296"/>
      <point x="227" y="225" type="curve"/>
    </contour>
    <contour>
      <point x="-20" y="55" type="curve" smooth="yes"/>
      <point x="-34" y="4"/>
      <point x="-18" y="-19"/>
      <point x="6" y="-19" type="curve" smooth="yes"/>
      <point x="35" y="-19"/>
      <point x="57" y="4"/>
      <point x="73" y="50" type="curve" smooth="yes"/>
      <point x="99" y="125"/>
      <point x="134" y="174"/>
      <point x="198" y="174" type="curve" smooth="yes"/>
      <point x="263" y="174"/>
      <point x="309" y="147"/>
      <point x="392" y="87" type="curve" smooth="yes"/>
      <point x="490" y="21"/>
      <point x="542" y="-18"/>
      <point x="638" y="-18" type="curve" smooth="yes"/>
      <point x="753" y="-18"/>
      <point x="836" y="43"/>
      <point x="908" y="206" type="curve" smooth="yes"/>
      <point x="919" y="232"/>
      <point x="917" y="242"/>
      <point x="906" y="245" type="curve" smooth="yes"/>
      <point x="894" y="247"/>
      <point x="881" y="239"/>
      <point x="871" y="218" type="curve" smooth="yes"/>
      <point x="815" y="109"/>
      <point x="755" y="50"/>
      <point x="648" y="50" type="curve" smooth="yes"/>
      <point x="505" y="50"/>
      <point x="394" y="230"/>
      <point x="232" y="230" type="curve" smooth="yes"/>
      <point x="99" y="230"/>
      <point x="7" y="144"/>
    </contour>
    <contour>
      <point x="192" y="653" type="curve" smooth="yes"/>
      <point x="188" y="636"/>
      <point x="200" y="626"/>
      <point x="219" y="626" type="curve" smooth="yes"/>
      <point x="455" y="626" type="line"/>
      <point x="450" y="680" type="line"/>
      <point x="236" y="681" type="line" smooth="yes"/>
      <point x="217" y="681"/>
      <point x="197" y="669"/>
    </contour>
    <contour>
      <point x="479" y="625" type="line"/>
      <point x="868" y="625" type="line" smooth="yes"/>
      <point x="887" y="625"/>
      <point x="904" y="636"/>
      <point x="909" y="653" type="curve" smooth="yes"/>
      <point x="913" y="668"/>
      <point x="903" y="681"/>
      <point x="883" y="681" type="curve" smooth="yes"/>
      <point x="470" y="681" type="line"/>
    </contour>
  </outline>
</glyph>
<glyph name="brokenbar" format="2">
  <advance width="534"/>
  <unicode hex="00A6"/>
  <outline>
    <contour>
      <point x="360" y="694" type="curve" smooth="yes"/>
      <point x="423" y="931"/>
      <point x="499" y="1174"/>
      <point x="544" y="1341" type="curve" smooth="yes"/>
      <point x="557" y="1395"/>
      <point x="554" y="1425"/>
      <point x="528" y="1425" type="curve" smooth="yes"/>
      <point x="502" y="1425"/>
      <point x="480" y="1395"/>
      <point x="465" y="1341" type="curve" smooth="yes"/>
      <point x="421" y="1174"/>
      <point x="365" y="932"/>
      <point x="302" y="694" type="curve" smooth="yes"/>
      <point x="295" y="666"/>
      <point x="301" y="653"/>
      <point x="318" y="653" type="curve" smooth="yes"/>
      <point x="340" y="653"/>
      <point x="352" y="664"/>
    </contour>
    <contour>
      <point x="238" y="456" type="curve" smooth="yes"/>
      <point x="175" y="219"/>
      <point x="99" y="-24"/>
      <point x="55" y="-191" type="curve" smooth="yes"/>
      <point x="40" y="-245"/>
      <point x="45" y="-276"/>
      <point x="70" y="-276" type="curve" smooth="yes"/>
      <point x="96" y="-276"/>
      <point x="119" y="-245"/>
      <point x="133" y="-191" type="curve" smooth="yes"/>
      <point x="178" y="-24"/>
      <point x="232" y="218"/>
      <point x="296" y="456" type="curve" smooth="yes"/>
      <point x="303" y="483"/>
      <point x="297" y="496"/>
      <point x="280" y="496" type="curve" smooth="yes"/>
      <point x="259" y="496"/>
      <point x="247" y="485"/>
    </contour>
  </outline>
</glyph>
<glyph name="section" format="2">
  <advance width="901"/>
  <unicode hex="00A7"/>
  <outline>
    <contour>
      <point x="312" y="-362" type="curve" smooth="yes"/>
      <point x="484" y="-362"/>
      <point x="615" y="-257"/>
      <point x="651" y="-130" type="curve" smooth="yes"/>
      <point x="694" y="27"/>
      <point x="655" y="158"/>
      <point x="428" y="272" type="curve" smooth="yes"/>
      <point x="248" y="362"/>
      <point x="211" y="463"/>
      <point x="248" y="605" type="curve" smooth="yes"/>
      <point x="275" y="711"/>
      <point x="372" y="804"/>
      <point x="491" y="821" type="curve"/>
      <point x="454" y="862" type="line"/>
      <point x="323" y="826"/>
      <point x="219" y="728"/>
      <point x="189" y="618" type="curve" smooth="yes"/>
      <point x="144" y="450"/>
      <point x="196" y="311"/>
      <point x="388" y="222" type="curve" smooth="yes"/>
      <point x="580" y="135"/>
      <point x="632" y="14"/>
      <point x="596" y="-112" type="curve" smooth="yes"/>
      <point x="563" y="-229"/>
      <point x="458" y="-307"/>
      <point x="331" y="-307" type="curve" smooth="yes"/>
      <point x="199" y="-307"/>
      <point x="85" y="-240"/>
      <point x="61" y="-90" type="curve" smooth="yes"/>
      <point x="58" y="-65"/>
      <point x="49" y="-60"/>
      <point x="35" y="-62" type="curve" smooth="yes"/>
      <point x="19" y="-66"/>
      <point x="10" y="-82"/>
      <point x="10" y="-105" type="curve" smooth="yes"/>
      <point x="10" y="-334" type="line" smooth="yes"/>
      <point x="11" y="-351"/>
      <point x="18" y="-358"/>
      <point x="30" y="-358" type="curve" smooth="yes"/>
      <point x="57" y="-358"/>
      <point x="67" y="-282"/>
      <point x="81" y="-282" type="curve" smooth="yes"/>
      <point x="98" y="-282"/>
      <point x="169" y="-362"/>
    </contour>
    <contour>
      <point x="701" y="1376" type="curve" smooth="yes"/>
      <point x="812" y="1376"/>
      <point x="879" y="1316"/>
      <point x="903" y="1203" type="curve" smooth="yes"/>
      <point x="911" y="1164" type="line" smooth="yes"/>
      <point x="915" y="1145"/>
      <point x="928" y="1123"/>
      <point x="955" y="1123" type="curve" smooth="yes"/>
      <point x="975" y="1123"/>
      <point x="993" y="1148"/>
      <point x="994" y="1175" type="curve" smooth="yes"/>
      <point x="995" y="1302"/>
      <point x="897" y="1427"/>
      <point x="712" y="1427" type="curve" smooth="yes"/>
      <point x="551" y="1427"/>
      <point x="393" y="1312"/>
      <point x="350" y="1151" type="curve" smooth="yes"/>
      <point x="304" y="979"/>
      <point x="377" y="855"/>
      <point x="551" y="769" type="curve" smooth="yes"/>
      <point x="752" y="672"/>
      <point x="796" y="555"/>
      <point x="763" y="443" type="curve" smooth="yes"/>
      <point x="731" y="333"/>
      <point x="630" y="232"/>
      <point x="492" y="232" type="curve"/>
      <point x="485" y="183" type="line"/>
      <point x="643" y="183"/>
      <point x="783" y="288"/>
      <point x="820" y="425" type="curve" smooth="yes"/>
      <point x="861" y="583"/>
      <point x="797" y="715"/>
      <point x="584" y="822" type="curve" smooth="yes"/>
      <point x="430" y="899"/>
      <point x="373" y="1016"/>
      <point x="407" y="1142" type="curve" smooth="yes"/>
      <point x="447" y="1285"/>
      <point x="560" y="1376"/>
    </contour>
  </outline>
</glyph>
